<svg id="Camada_1" data-name="Camada 1" xmlns="http://www.w3.org/2000/svg" viewBox="0 0 591.69 527.74"><defs><style>.cls-1{fill:#00002b;}.cls-2{fill:#97c93c;}.cls-3{fill:#e8ffb6;}.cls-4{fill:#00004e;}.cls-5{fill:#16110d;}</style></defs><title>box-img</title><path class="cls-1" d="M273.56,518c1.36.78,1.36,2,0,2.83a5.42,5.42,0,0,1-4.9,0c-1.35-.79-1.35-2.05,0-2.83A5.36,5.36,0,0,1,273.56,518Z"/><path class="cls-1" d="M260.75,510.61c1.35.78,1.35,2,0,2.83a5.44,5.44,0,0,1-4.91,0c-1.35-.79-1.35-2.05,0-2.83A5.38,5.38,0,0,1,260.75,510.61Z"/><path class="cls-1" d="M247.93,503.21c1.35.78,1.35,2,0,2.83a5.42,5.42,0,0,1-4.9,0c-1.36-.79-1.36-2.05,0-2.83A5.36,5.36,0,0,1,247.93,503.21Z"/><path class="cls-1" d="M235.11,495.81c1.36.78,1.36,2,0,2.83a5.42,5.42,0,0,1-4.9,0c-1.35-.79-1.35-2.05,0-2.83A5.36,5.36,0,0,1,235.11,495.81Z"/><path class="cls-1" d="M222.3,488.41c1.35.78,1.35,2,0,2.83a5.44,5.44,0,0,1-4.91,0c-1.35-.79-1.35-2.05,0-2.83A5.38,5.38,0,0,1,222.3,488.41Z"/><path class="cls-1" d="M209.37,480.93c1.35.78,1.35,2.05,0,2.83a5.42,5.42,0,0,1-4.9,0c-1.36-.78-1.36-2.05,0-2.83A5.42,5.42,0,0,1,209.37,480.93Z"/><path class="cls-1" d="M196.55,473.53c1.35.78,1.35,2.05,0,2.83a5.42,5.42,0,0,1-4.9,0c-1.36-.78-1.36-2.05,0-2.83A5.42,5.42,0,0,1,196.55,473.53Z"/><path class="cls-1" d="M183.73,466.13c1.36.78,1.36,2.05,0,2.83a5.42,5.42,0,0,1-4.9,0c-1.35-.78-1.35-2,0-2.83A5.42,5.42,0,0,1,183.73,466.13Z"/><path class="cls-1" d="M170.92,458.73c1.35.78,1.35,2,0,2.83a5.44,5.44,0,0,1-4.91,0c-1.35-.78-1.35-2.05,0-2.83A5.44,5.44,0,0,1,170.92,458.73Z"/><path class="cls-1" d="M158.1,451.33c1.35.78,1.35,2.05,0,2.83a5.42,5.42,0,0,1-4.9,0c-1.36-.78-1.36-2.05,0-2.83A5.42,5.42,0,0,1,158.1,451.33Z"/><path class="cls-1" d="M145.28,443.93c1.36.78,1.36,2.05,0,2.83a5.42,5.42,0,0,1-4.9,0c-1.35-.78-1.35-2.05,0-2.83A5.42,5.42,0,0,1,145.28,443.93Z"/><ellipse class="cls-1" cx="130.01" cy="437.94" rx="3.47" ry="2"/><path class="cls-1" d="M119.65,429.13c1.35.78,1.35,2.05,0,2.83a5.44,5.44,0,0,1-4.91,0c-1.35-.78-1.35-2,0-2.83A5.44,5.44,0,0,1,119.65,429.13Z"/><path class="cls-1" d="M286.88,524.22c1.36.78,1.36,2,0,2.83a5.42,5.42,0,0,1-4.9,0c-1.35-.78-1.35-2,0-2.83A5.42,5.42,0,0,1,286.88,524.22Z"/><path class="cls-1" d="M286.42,510.7c1.35.78,1.35,2.05,0,2.83a5.42,5.42,0,0,1-4.9,0c-1.35-.78-1.35-2,0-2.83A5.42,5.42,0,0,1,286.42,510.7Z"/><path class="cls-1" d="M299.24,503.3c1.35.78,1.35,2.05,0,2.83a5.42,5.42,0,0,1-4.9,0c-1.36-.78-1.36-2.05,0-2.83A5.42,5.42,0,0,1,299.24,503.3Z"/><path class="cls-1" d="M312.06,495.9c1.35.78,1.35,2.05,0,2.83a5.44,5.44,0,0,1-4.91,0c-1.35-.78-1.35-2.05,0-2.83A5.44,5.44,0,0,1,312.06,495.9Z"/><path class="cls-1" d="M324.87,488.5c1.36.78,1.36,2.05,0,2.83a5.42,5.42,0,0,1-4.9,0c-1.35-.78-1.35-2.05,0-2.83A5.42,5.42,0,0,1,324.87,488.5Z"/><path class="cls-1" d="M337.69,481.1c1.35.78,1.35,2,0,2.83a5.42,5.42,0,0,1-4.9,0c-1.36-.78-1.36-2.05,0-2.83A5.42,5.42,0,0,1,337.69,481.1Z"/><path class="cls-1" d="M350.51,473.7c1.35.78,1.35,2.05,0,2.83a5.42,5.42,0,0,1-4.9,0c-1.36-.78-1.36-2,0-2.83A5.42,5.42,0,0,1,350.51,473.7Z"/><ellipse class="cls-1" cx="360.87" cy="467.72" rx="3.47" ry="2"/><path class="cls-1" d="M376.14,458.9c1.36.78,1.36,2.05,0,2.83a5.42,5.42,0,0,1-4.9,0c-1.35-.78-1.35-2.05,0-2.83A5.42,5.42,0,0,1,376.14,458.9Z"/><path class="cls-1" d="M389,451.5c1.35.78,1.35,2.05,0,2.83a5.42,5.42,0,0,1-4.9,0c-1.36-.78-1.36-2.05,0-2.83A5.42,5.42,0,0,1,389,451.5Z"/><ellipse class="cls-1" cx="399.33" cy="445.52" rx="3.47" ry="2"/><path class="cls-1" d="M414.59,436.7c1.36.78,1.36,2.05,0,2.83a5.42,5.42,0,0,1-4.9,0c-1.35-.78-1.35-2,0-2.83A5.42,5.42,0,0,1,414.59,436.7Z"/><path class="cls-1" d="M427.41,429.3c1.35.78,1.35,2.05,0,2.83a5.42,5.42,0,0,1-4.9,0c-1.35-.78-1.35-2.05,0-2.83A5.42,5.42,0,0,1,427.41,429.3Z"/><path class="cls-1" d="M440.23,421.9c1.35.78,1.35,2.05,0,2.83a5.42,5.42,0,0,1-4.9,0c-1.36-.78-1.36-2.05,0-2.83A5.42,5.42,0,0,1,440.23,421.9Z"/><path class="cls-1" d="M453.05,414.5c1.35.78,1.35,2.05,0,2.83a5.44,5.44,0,0,1-4.91,0c-1.35-.78-1.35-2.05,0-2.83A5.44,5.44,0,0,1,453.05,414.5Z"/><path class="cls-1" d="M465.86,407.1c1.36.78,1.36,2,0,2.83a5.42,5.42,0,0,1-4.9,0c-1.35-.78-1.35-2.05,0-2.83A5.42,5.42,0,0,1,465.86,407.1Z"/><ellipse class="cls-1" cx="476.23" cy="401.12" rx="3.47" ry="2"/><path class="cls-1" d="M268.69,503.31a5.42,5.42,0,0,1,4.9,0c1.35.78,1.36,2,0,2.83a5.44,5.44,0,0,1-4.91,0C267.34,505.36,267.33,504.09,268.69,503.31Z"/><path class="cls-1" d="M286.42,495.9c1.35.78,1.35,2.05,0,2.83a5.42,5.42,0,0,1-4.9,0c-1.35-.78-1.35-2.05,0-2.83A5.42,5.42,0,0,1,286.42,495.9Z"/><path class="cls-1" d="M299.24,488.5c1.35.78,1.35,2.05,0,2.83a5.42,5.42,0,0,1-4.9,0c-1.36-.78-1.36-2.05,0-2.83A5.42,5.42,0,0,1,299.24,488.5Z"/><path class="cls-1" d="M312.06,481.1c1.35.78,1.35,2,0,2.83a5.44,5.44,0,0,1-4.91,0c-1.35-.78-1.35-2.05,0-2.83A5.44,5.44,0,0,1,312.06,481.1Z"/><ellipse class="cls-1" cx="322.42" cy="475.12" rx="3.47" ry="2"/><path class="cls-1" d="M337.69,466.3c1.35.78,1.35,2.05,0,2.83a5.42,5.42,0,0,1-4.9,0c-1.36-.78-1.36-2.05,0-2.83A5.42,5.42,0,0,1,337.69,466.3Z"/><path class="cls-1" d="M350.51,458.9c1.35.78,1.35,2.05,0,2.83a5.42,5.42,0,0,1-4.9,0c-1.36-.78-1.36-2.05,0-2.83A5.42,5.42,0,0,1,350.51,458.9Z"/><path class="cls-1" d="M363.32,451.5c1.36.78,1.36,2.05,0,2.83a5.42,5.42,0,0,1-4.9,0c-1.35-.78-1.35-2.05,0-2.83A5.42,5.42,0,0,1,363.32,451.5Z"/><path class="cls-1" d="M376.14,444.1c1.36.78,1.36,2,0,2.83a5.42,5.42,0,0,1-4.9,0c-1.35-.78-1.35-2.05,0-2.83A5.42,5.42,0,0,1,376.14,444.1Z"/><path class="cls-1" d="M389,436.7c1.35.78,1.35,2.05,0,2.83a5.42,5.42,0,0,1-4.9,0c-1.36-.78-1.36-2,0-2.83A5.42,5.42,0,0,1,389,436.7Z"/><path class="cls-1" d="M401.78,429.3c1.35.78,1.35,2.05,0,2.83a5.44,5.44,0,0,1-4.91,0c-1.35-.78-1.35-2.05,0-2.83A5.44,5.44,0,0,1,401.78,429.3Z"/><path class="cls-1" d="M414.59,421.9c1.36.78,1.36,2.05,0,2.83a5.42,5.42,0,0,1-4.9,0c-1.35-.78-1.35-2.05,0-2.83A5.42,5.42,0,0,1,414.59,421.9Z"/><path class="cls-1" d="M427.41,414.5c1.35.78,1.35,2.05,0,2.83a5.42,5.42,0,0,1-4.9,0c-1.35-.78-1.35-2.05,0-2.83A5.42,5.42,0,0,1,427.41,414.5Z"/><path class="cls-1" d="M435.33,407.1a5.42,5.42,0,0,1,4.9,0c1.35.78,1.35,2,0,2.83a5.42,5.42,0,0,1-4.9,0c-1.36-.78-1.36-2.05,0-2.83Z"/><path class="cls-1" d="M453.05,399.7c1.35.78,1.35,2.05,0,2.83a5.44,5.44,0,0,1-4.91,0C446.79,401.75,451.69,398.92,453.05,399.7Z"/><path class="cls-1" d="M461,392.3a5.42,5.42,0,0,1,4.9,0c1.36.78,1.36,2.05,0,2.83a5.42,5.42,0,0,1-4.9,0C459.61,394.35,459.61,393.08,461,392.3Z"/><path class="cls-1" d="M255.87,495.91a5.42,5.42,0,0,1,4.9,0c1.36.78,1.36,2,0,2.83a5.42,5.42,0,0,1-4.9,0C254.52,498,254.52,496.69,255.87,495.91Z"/><path class="cls-1" d="M273.6,488.5c1.36.78,1.36,2.05,0,2.83a5.42,5.42,0,0,1-4.9,0c-1.35-.78-1.35-2.05,0-2.83A5.42,5.42,0,0,1,273.6,488.5Z"/><path class="cls-1" d="M286.42,481.1c1.35.78,1.35,2,0,2.83a5.42,5.42,0,0,1-4.9,0c-1.35-.78-1.35-2.05,0-2.83A5.42,5.42,0,0,1,286.42,481.1Z"/><path class="cls-1" d="M299.24,473.7c1.35.78,1.35,2.05,0,2.83a5.42,5.42,0,0,1-4.9,0c-1.36-.78-1.36-2,0-2.83A5.42,5.42,0,0,1,299.24,473.7Z"/><ellipse class="cls-1" cx="309.6" cy="467.72" rx="3.47" ry="2"/><path class="cls-1" d="M324.87,458.9c1.36.78,1.36,2.05,0,2.83a5.42,5.42,0,0,1-4.9,0c-1.35-.78-1.35-2.05,0-2.83A5.42,5.42,0,0,1,324.87,458.9Z"/><path class="cls-1" d="M337.69,451.5c1.35.78,1.35,2.05,0,2.83a5.42,5.42,0,0,1-4.9,0c-1.36-.78-1.36-2.05,0-2.83A5.42,5.42,0,0,1,337.69,451.5Z"/><ellipse class="cls-1" cx="348.06" cy="445.52" rx="3.47" ry="2"/><path class="cls-1" d="M363.32,436.7c1.36.78,1.36,2.05,0,2.83a5.42,5.42,0,0,1-4.9,0c-1.35-.78-1.35-2,0-2.83A5.42,5.42,0,0,1,363.32,436.7Z"/><path class="cls-1" d="M376.14,429.3c1.36.78,1.36,2.05,0,2.83a5.42,5.42,0,0,1-4.9,0c-1.35-.78-1.35-2.05,0-2.83A5.42,5.42,0,0,1,376.14,429.3Z"/><path class="cls-1" d="M389,421.9c1.35.78,1.35,2.05,0,2.83a5.42,5.42,0,0,1-4.9,0c-1.36-.78-1.36-2.05,0-2.83A5.42,5.42,0,0,1,389,421.9Z"/><path class="cls-1" d="M401.78,414.5c1.35.78,1.35,2.05,0,2.83a5.44,5.44,0,0,1-4.91,0c-1.35-.78-1.35-2.05,0-2.83A5.44,5.44,0,0,1,401.78,414.5Z"/><path class="cls-1" d="M414.59,407.1c1.36.78,1.36,2,0,2.83a5.42,5.42,0,0,1-4.9,0c-1.35-.78-1.35-2.05,0-2.83A5.42,5.42,0,0,1,414.59,407.1Z"/><path class="cls-1" d="M243.05,488.51a5.42,5.42,0,0,1,4.9,0c1.36.78,1.36,2,0,2.83a5.42,5.42,0,0,1-4.9,0C241.7,490.56,241.7,489.29,243.05,488.51Z"/><path class="cls-1" d="M260.79,481.1c1.35.78,1.35,2,0,2.83a5.44,5.44,0,0,1-4.91,0c-1.35-.78-1.35-2.05,0-2.83A5.44,5.44,0,0,1,260.79,481.1Z"/><path class="cls-1" d="M273.6,473.7c1.36.78,1.36,2.05,0,2.83a5.42,5.42,0,0,1-4.9,0c-1.35-.78-1.35-2,0-2.83A5.42,5.42,0,0,1,273.6,473.7Z"/><path class="cls-1" d="M286.42,466.3c1.36.78,1.36,2.05,0,2.83a5.42,5.42,0,0,1-4.9,0c-1.35-.78-1.35-2.05,0-2.83A5.42,5.42,0,0,1,286.42,466.3Z"/><path class="cls-1" d="M299.24,458.9c1.35.78,1.35,2.05,0,2.83a5.42,5.42,0,0,1-4.9,0c-1.36-.78-1.36-2.05,0-2.83A5.42,5.42,0,0,1,299.24,458.9Z"/><ellipse class="cls-1" cx="309.61" cy="452.92" rx="3.47" ry="2"/><path class="cls-1" d="M324.87,444.1c1.36.78,1.36,2,0,2.83a5.42,5.42,0,0,1-4.9,0c-1.35-.78-1.35-2.05,0-2.83A5.42,5.42,0,0,1,324.87,444.1Z"/><path class="cls-1" d="M337.69,436.7c1.35.78,1.35,2.05,0,2.83a5.42,5.42,0,0,1-4.9,0c-1.36-.78-1.36-2,0-2.83A5.42,5.42,0,0,1,337.69,436.7Z"/><path class="cls-1" d="M350.51,429.3c1.35.78,1.35,2.05,0,2.83a5.42,5.42,0,0,1-4.9,0c-1.36-.78-1.36-2.05,0-2.83A5.42,5.42,0,0,1,350.51,429.3Z"/><path class="cls-1" d="M363.32,421.9c1.36.78,1.36,2.05,0,2.83a5.42,5.42,0,0,1-4.9,0c-1.35-.78-1.35-2.05,0-2.83A5.42,5.42,0,0,1,363.32,421.9Z"/><path class="cls-1" d="M376.14,414.5c1.36.78,1.36,2.05,0,2.83a5.42,5.42,0,0,1-4.9,0c-1.35-.78-1.35-2.05,0-2.83A5.42,5.42,0,0,1,376.14,414.5Z"/><path class="cls-1" d="M389,407.1c1.35.78,1.35,2,0,2.83a5.42,5.42,0,0,1-4.9,0c-1.36-.78-1.36-2.05,0-2.83A5.42,5.42,0,0,1,389,407.1Z"/><path class="cls-1" d="M230.23,481.11a5.44,5.44,0,0,1,4.91,0c1.35.78,1.36,2,0,2.83a5.44,5.44,0,0,1-4.91,0C228.89,483.16,228.88,481.89,230.23,481.11Z"/><path class="cls-1" d="M248,473.7c1.35.78,1.35,2.05,0,2.83a5.42,5.42,0,0,1-4.9,0c-1.36-.78-1.36-2,0-2.83A5.42,5.42,0,0,1,248,473.7Z"/><path class="cls-1" d="M260.79,466.3c1.35.78,1.35,2.05,0,2.83a5.44,5.44,0,0,1-4.91,0c-1.35-.78-1.35-2.05,0-2.83A5.44,5.44,0,0,1,260.79,466.3Z"/><ellipse class="cls-1" cx="271.15" cy="460.32" rx="3.47" ry="2"/><path class="cls-1" d="M286.42,451.5c1.36.78,1.36,2.05,0,2.83a5.42,5.42,0,0,1-4.9,0c-1.35-.78-1.35-2.05,0-2.83A5.42,5.42,0,0,1,286.42,451.5Z"/><path class="cls-1" d="M299.24,444.1c1.35.78,1.35,2,0,2.83a5.42,5.42,0,0,1-4.9,0c-1.36-.78-1.36-2.05,0-2.83A5.42,5.42,0,0,1,299.24,444.1Z"/><path class="cls-1" d="M312.06,436.7c1.35.78,1.35,2.05,0,2.83a5.44,5.44,0,0,1-4.91,0c-1.35-.78-1.35-2,0-2.83A5.44,5.44,0,0,1,312.06,436.7Z"/><path class="cls-1" d="M324.87,429.3c1.36.78,1.36,2.05,0,2.83a5.42,5.42,0,0,1-4.9,0c-1.35-.78-1.35-2.05,0-2.83A5.42,5.42,0,0,1,324.87,429.3Z"/><path class="cls-1" d="M337.69,421.9c1.35.78,1.35,2.05,0,2.83a5.42,5.42,0,0,1-4.9,0c-1.36-.78-1.36-2.05,0-2.83A5.42,5.42,0,0,1,337.69,421.9Z"/><ellipse class="cls-1" cx="348.06" cy="415.92" rx="3.47" ry="2"/><path class="cls-1" d="M363.33,407.1c1.35.78,1.35,2,0,2.83a5.44,5.44,0,0,1-4.91,0c-1.35-.78-1.35-2.05,0-2.83A5.44,5.44,0,0,1,363.33,407.1Z"/><path class="cls-1" d="M217.31,473.63a5.42,5.42,0,0,1,4.9,0c1.35.78,1.36,2.05,0,2.83a5.44,5.44,0,0,1-4.91,0C216,475.68,216,474.42,217.31,473.63Z"/><path class="cls-1" d="M235,466.22c1.36.78,1.36,2,0,2.83a5.36,5.36,0,0,1-4.9,0c-1.35-.78-1.35-2.05,0-2.83A5.42,5.42,0,0,1,235,466.22Z"/><ellipse class="cls-1" cx="245.41" cy="460.24" rx="3.47" ry="2"/><path class="cls-1" d="M260.68,451.42c1.35.78,1.35,2.05,0,2.83a5.38,5.38,0,0,1-4.91,0c-1.35-.78-1.35-2.05,0-2.83A5.44,5.44,0,0,1,260.68,451.42Z"/><path class="cls-1" d="M273.49,444c1.36.78,1.36,2.05,0,2.83a5.36,5.36,0,0,1-4.9,0c-1.35-.78-1.35-2.05,0-2.83A5.42,5.42,0,0,1,273.49,444Z"/><path class="cls-1" d="M286.31,436.62c1.35.79,1.35,2.05,0,2.83a5.36,5.36,0,0,1-4.9,0c-1.36-.78-1.36-2,0-2.83A5.42,5.42,0,0,1,286.31,436.62Z"/><path class="cls-1" d="M299.13,429.22c1.35.78,1.35,2,0,2.83a5.42,5.42,0,0,1-4.9,0c-1.36-.78-1.36-2.05,0-2.83A5.42,5.42,0,0,1,299.13,429.22Z"/><path class="cls-1" d="M312,421.82c1.35.78,1.35,2.05,0,2.83a5.44,5.44,0,0,1-4.91,0c-1.35-.78-1.35-2,0-2.83A5.44,5.44,0,0,1,312,421.82Z"/><path class="cls-1" d="M324.76,414.42c1.36.78,1.36,2.05,0,2.83a5.36,5.36,0,0,1-4.9,0c-1.35-.78-1.35-2.05,0-2.83A5.42,5.42,0,0,1,324.76,414.42Z"/><path class="cls-1" d="M337.58,407c1.35.79,1.35,2.05,0,2.83a5.42,5.42,0,0,1-4.9,0c-1.36-.78-1.36-2,0-2.83A5.42,5.42,0,0,1,337.58,407Z"/><path class="cls-1" d="M204.49,466.23a5.42,5.42,0,0,1,4.9,0c1.36.78,1.36,2,0,2.83a5.42,5.42,0,0,1-4.9,0C203.14,468.28,203.14,467,204.49,466.23Z"/><path class="cls-1" d="M222.22,458.82c1.36.78,1.36,2.05,0,2.83a5.36,5.36,0,0,1-4.9,0c-1.35-.78-1.35-2,0-2.83A5.42,5.42,0,0,1,222.22,458.82Z"/><path class="cls-1" d="M235,451.42c1.36.78,1.36,2.05,0,2.83a5.36,5.36,0,0,1-4.9,0c-1.35-.78-1.35-2.05,0-2.83A5.42,5.42,0,0,1,235,451.42Z"/><path class="cls-1" d="M247.86,444c1.35.78,1.35,2.05,0,2.83a5.36,5.36,0,0,1-4.9,0c-1.36-.78-1.36-2.05,0-2.83A5.42,5.42,0,0,1,247.86,444Z"/><path class="cls-1" d="M260.68,436.62c1.35.79,1.35,2.05,0,2.83a5.38,5.38,0,0,1-4.91,0c-1.35-.78-1.35-2,0-2.83A5.44,5.44,0,0,1,260.68,436.62Z"/><path class="cls-1" d="M273.49,429.22c1.36.78,1.36,2,0,2.83a5.42,5.42,0,0,1-4.9,0c-1.35-.78-1.35-2.05,0-2.83A5.42,5.42,0,0,1,273.49,429.22Z"/><path class="cls-1" d="M286.31,421.82c1.35.78,1.35,2.05,0,2.83a5.36,5.36,0,0,1-4.9,0c-1.36-.78-1.36-2,0-2.83A5.42,5.42,0,0,1,286.31,421.82Z"/><path class="cls-1" d="M299.13,414.42c1.35.78,1.35,2.05,0,2.83a5.36,5.36,0,0,1-4.9,0c-1.36-.78-1.36-2,0-2.83A5.42,5.42,0,0,1,299.13,414.42Z"/><path class="cls-1" d="M312,407c1.35.79,1.35,2.05,0,2.83a5.44,5.44,0,0,1-4.91,0c-1.35-.78-1.35-2,0-2.83A5.44,5.44,0,0,1,312,407Z"/><path class="cls-1" d="M191.67,458.83a5.42,5.42,0,0,1,4.9,0c1.36.78,1.36,2,0,2.83a5.42,5.42,0,0,1-4.9,0C190.32,460.88,190.32,459.62,191.67,458.83Z"/><path class="cls-1" d="M209.41,451.42c1.35.78,1.35,2.05,0,2.83a5.38,5.38,0,0,1-4.91,0c-1.35-.78-1.35-2.05,0-2.83A5.44,5.44,0,0,1,209.41,451.42Z"/><path class="cls-1" d="M222.22,444c1.36.78,1.36,2.05,0,2.83a5.36,5.36,0,0,1-4.9,0c-1.35-.78-1.35-2,0-2.83A5.42,5.42,0,0,1,222.22,444Z"/><path class="cls-1" d="M235,436.62c1.36.79,1.36,2.05,0,2.83a5.36,5.36,0,0,1-4.9,0c-1.35-.78-1.35-2,0-2.83A5.42,5.42,0,0,1,235,436.62Z"/><path class="cls-1" d="M247.86,429.22c1.35.78,1.35,2,0,2.83a5.42,5.42,0,0,1-4.9,0c-1.36-.78-1.36-2.05,0-2.83A5.42,5.42,0,0,1,247.86,429.22Z"/><path class="cls-1" d="M260.68,421.82c1.35.78,1.35,2.05,0,2.83a5.38,5.38,0,0,1-4.91,0c-1.35-.78-1.35-2,0-2.83A5.44,5.44,0,0,1,260.68,421.82Z"/><path class="cls-1" d="M273.49,414.42c1.36.79,1.36,2.05,0,2.83a5.36,5.36,0,0,1-4.9,0c-1.35-.78-1.35-2,0-2.83A5.42,5.42,0,0,1,273.49,414.42Z"/><path class="cls-1" d="M286.31,407c1.35.79,1.35,2.05,0,2.83a5.42,5.42,0,0,1-4.9,0c-1.36-.78-1.36-2,0-2.83A5.42,5.42,0,0,1,286.31,407Z"/><path class="cls-1" d="M178.85,451.43a5.44,5.44,0,0,1,4.91,0c1.35.78,1.36,2,0,2.83a5.44,5.44,0,0,1-4.91,0C177.51,453.48,177.5,452.22,178.85,451.43Z"/><ellipse class="cls-1" cx="194.14" cy="445.44" rx="3.47" ry="2"/><path class="cls-1" d="M209.41,436.62c1.35.79,1.35,2.05,0,2.83a5.36,5.36,0,0,1-4.9,0c-1.36-.78-1.36-2,0-2.83A5.42,5.42,0,0,1,209.41,436.62Z"/><path class="cls-1" d="M222.22,429.22c1.36.78,1.36,2,0,2.83a5.42,5.42,0,0,1-4.9,0c-1.35-.78-1.35-2.05,0-2.83A5.42,5.42,0,0,1,222.22,429.22Z"/><path class="cls-1" d="M235,421.82c1.36.78,1.36,2.05,0,2.83a5.36,5.36,0,0,1-4.9,0c-1.35-.78-1.35-2,0-2.83A5.42,5.42,0,0,1,235,421.82Z"/><path class="cls-1" d="M247.86,414.42c1.35.79,1.35,2.05,0,2.83a5.36,5.36,0,0,1-4.9,0c-1.36-.78-1.36-2,0-2.83A5.42,5.42,0,0,1,247.86,414.42Z"/><path class="cls-1" d="M260.68,407c1.35.79,1.35,2.05,0,2.83a5.44,5.44,0,0,1-4.91,0c-1.35-.78-1.35-2,0-2.83A5.44,5.44,0,0,1,260.68,407Z"/><path class="cls-1" d="M166,444a5.42,5.42,0,0,1,4.9,0c1.36.78,1.36,2.05,0,2.83a5.42,5.42,0,0,1-4.9,0C164.69,446.08,164.69,444.82,166,444Z"/><path class="cls-1" d="M183.77,436.62c1.36.79,1.36,2.05,0,2.83a5.36,5.36,0,0,1-4.9,0c-1.35-.78-1.35-2,0-2.83A5.42,5.42,0,0,1,183.77,436.62Z"/><ellipse class="cls-1" cx="194.14" cy="430.64" rx="3.47" ry="2"/><path class="cls-1" d="M209.41,421.82c1.35.79,1.35,2.05,0,2.83a5.36,5.36,0,0,1-4.9,0c-1.36-.78-1.36-2,0-2.83A5.42,5.42,0,0,1,209.41,421.82Z"/><path class="cls-1" d="M222.22,414.42c1.36.79,1.36,2.05,0,2.83a5.36,5.36,0,0,1-4.9,0c-1.35-.78-1.35-2,0-2.83A5.42,5.42,0,0,1,222.22,414.42Z"/><path class="cls-1" d="M235,407c1.36.79,1.36,2.05,0,2.83a5.42,5.42,0,0,1-4.9,0c-1.35-.78-1.35-2,0-2.83A5.42,5.42,0,0,1,235,407Z"/><path class="cls-1" d="M153.22,436.63a5.42,5.42,0,0,1,4.9,0c1.36.78,1.36,2.05,0,2.83a5.42,5.42,0,0,1-4.9,0C151.87,438.68,151.87,437.42,153.22,436.63Z"/><path class="cls-1" d="M171,429.22c1.35.78,1.35,2,0,2.83a5.38,5.38,0,0,1-4.91,0c-1.35-.78-1.35-2.05,0-2.83A5.44,5.44,0,0,1,171,429.22Z"/><path class="cls-1" d="M183.77,421.82c1.36.79,1.36,2.05,0,2.83a5.36,5.36,0,0,1-4.9,0c-1.35-.78-1.35-2,0-2.83A5.42,5.42,0,0,1,183.77,421.82Z"/><path class="cls-1" d="M196.59,414.42c1.35.79,1.35,2.05,0,2.83a5.36,5.36,0,0,1-4.9,0c-1.36-.78-1.36-2,0-2.83A5.42,5.42,0,0,1,196.59,414.42Z"/><path class="cls-1" d="M209.41,407c1.35.79,1.35,2.05,0,2.83a5.36,5.36,0,0,1-4.9,0c-1.36-.78-1.36-2,0-2.83A5.42,5.42,0,0,1,209.41,407Z"/><path class="cls-1" d="M140.4,429.23a5.42,5.42,0,0,1,4.9,0c1.36.78,1.37,2,0,2.83a5.42,5.42,0,0,1-4.9,0C139.06,431.28,139.05,430,140.4,429.23Z"/><path class="cls-1" d="M158.14,421.82c1.35.79,1.35,2.05,0,2.83a5.36,5.36,0,0,1-4.9,0c-1.36-.78-1.36-2,0-2.83A5.42,5.42,0,0,1,158.14,421.82Z"/><path class="cls-1" d="M171,414.42c1.35.79,1.35,2.05,0,2.83a5.38,5.38,0,0,1-4.91,0c-1.35-.78-1.35-2,0-2.83A5.44,5.44,0,0,1,171,414.42Z"/><path class="cls-1" d="M183.77,407c1.36.79,1.36,2.05,0,2.83a5.36,5.36,0,0,1-4.9,0c-1.35-.78-1.35-2,0-2.83A5.42,5.42,0,0,1,183.77,407Z"/><path class="cls-1" d="M127.59,421.83a5.42,5.42,0,0,1,4.9,0c1.35.78,1.36,2.05,0,2.83a5.44,5.44,0,0,1-4.91,0C126.24,423.88,126.23,422.62,127.59,421.83Z"/><path class="cls-1" d="M145.32,414.42c1.36.79,1.36,2.05,0,2.83a5.36,5.36,0,0,1-4.9,0c-1.35-.78-1.35-2,0-2.83A5.42,5.42,0,0,1,145.32,414.42Z"/><path class="cls-1" d="M158.14,407c1.35.79,1.35,2.05,0,2.83a5.36,5.36,0,0,1-4.9,0c-1.36-.78-1.36-2,0-2.83A5.42,5.42,0,0,1,158.14,407Z"/><ellipse class="cls-1" cx="168.5" cy="401.04" rx="3.47" ry="2"/><path class="cls-1" d="M114.66,414.36a5.39,5.39,0,0,1,4.9,0c1.36.78,1.36,2,0,2.83a5.42,5.42,0,0,1-4.9,0C113.31,416.41,113.31,415.14,114.66,414.36Z"/><ellipse class="cls-1" cx="129.94" cy="408.36" rx="3.47" ry="2"/><path class="cls-1" d="M145.21,399.55c1.35.78,1.35,2,0,2.83a5.42,5.42,0,0,1-4.9,0c-1.36-.79-1.36-2.05,0-2.83A5.36,5.36,0,0,1,145.21,399.55Z"/><path class="cls-1" d="M119.58,399.55c1.35.78,1.35,2,0,2.83a5.44,5.44,0,0,1-4.91,0c-1.35-.79-1.35-2.05,0-2.83A5.38,5.38,0,0,1,119.58,399.55Z"/><path class="cls-1" d="M132.39,392.15c1.36.78,1.36,2,0,2.83a5.42,5.42,0,0,1-4.9,0c-1.35-.79-1.35-2.05,0-2.83a5.36,5.36,0,0,1,4.9,0C133.75,392.93,131,391.36,132.39,392.15Z"/><path class="cls-1" d="M307.64,524.33a5.39,5.39,0,0,1,4.9,0c1.36.78,1.36,2,0,2.83a5.42,5.42,0,0,1-4.9,0C306.29,526.38,306.29,525.11,307.64,524.33Z"/><path class="cls-1" d="M325.38,516.92c1.35.78,1.35,2.05,0,2.83a5.44,5.44,0,0,1-4.91,0c-1.35-.78-1.35-2,0-2.83A5.44,5.44,0,0,1,325.38,516.92Z"/><path class="cls-1" d="M338.19,509.52c1.36.78,1.36,2.05,0,2.83a5.42,5.42,0,0,1-4.9,0c-1.35-.78-1.35-2.05,0-2.83A5.42,5.42,0,0,1,338.19,509.52Z"/><path class="cls-1" d="M351,502.12c1.35.78,1.35,2.05,0,2.83a5.42,5.42,0,0,1-4.9,0c-1.36-.78-1.36-2.05,0-2.83A5.42,5.42,0,0,1,351,502.12Z"/><path class="cls-1" d="M363.83,494.72c1.35.78,1.35,2,0,2.83a5.44,5.44,0,0,1-4.91,0c-1.35-.78-1.35-2.05,0-2.83A5.44,5.44,0,0,1,363.83,494.72Z"/><path class="cls-1" d="M376.64,487.32c1.36.78,1.36,2.05,0,2.83a5.42,5.42,0,0,1-4.9,0c-1.35-.78-1.35-2,0-2.83A5.42,5.42,0,0,1,376.64,487.32Z"/><path class="cls-1" d="M389.46,479.92c1.35.78,1.35,2.05,0,2.83a5.42,5.42,0,0,1-4.9,0c-1.35-.78-1.35-2.05,0-2.83A5.42,5.42,0,0,1,389.46,479.92Z"/><path class="cls-1" d="M402.28,472.52c1.35.78,1.35,2.05,0,2.83a5.42,5.42,0,0,1-4.9,0c-1.36-.78-1.36-2.05,0-2.83A5.42,5.42,0,0,1,402.28,472.52Z"/><path class="cls-1" d="M415.1,465.12c1.35.78,1.35,2.05,0,2.83a5.44,5.44,0,0,1-4.91,0c-1.35-.78-1.35-2.05,0-2.83A5.38,5.38,0,0,1,415.1,465.12Z"/><path class="cls-1" d="M427.91,457.72c1.36.78,1.36,2,0,2.83a5.42,5.42,0,0,1-4.9,0c-1.35-.78-1.35-2.05,0-2.83A5.36,5.36,0,0,1,427.91,457.72Z"/><path class="cls-1" d="M440.73,450.32c1.35.78,1.35,2.05,0,2.83a5.42,5.42,0,0,1-4.9,0c-1.36-.78-1.36-2,0-2.83A5.42,5.42,0,0,1,440.73,450.32Z"/><path class="cls-1" d="M453.55,442.92c1.35.78,1.35,2.05,0,2.83a5.44,5.44,0,0,1-4.91,0c-1.35-.78-1.35-2.05,0-2.83A5.44,5.44,0,0,1,453.55,442.92Z"/><path class="cls-1" d="M466.36,435.52c1.36.78,1.36,2,0,2.83a5.42,5.42,0,0,1-4.9,0c-1.35-.79-1.35-2.05,0-2.83A5.42,5.42,0,0,1,466.36,435.52Z"/><path class="cls-1" d="M479.18,428.12c1.35.78,1.35,2.05,0,2.83a5.42,5.42,0,0,1-4.9,0c-1.35-.78-1.35-2.05,0-2.83A5.36,5.36,0,0,1,479.18,428.12Z"/><path class="cls-1" d="M492,420.72c1.35.78,1.35,2,0,2.83a5.42,5.42,0,0,1-4.9,0c-1.36-.78-1.36-2.05,0-2.83A5.42,5.42,0,0,1,492,420.72Z"/><path class="cls-1" d="M294.82,516.93a5.39,5.39,0,0,1,4.9,0c1.36.78,1.36,2.05,0,2.83a5.42,5.42,0,0,1-4.9,0C293.47,519,293.47,517.71,294.82,516.93Z"/><path class="cls-1" d="M312.56,509.52c1.35.78,1.35,2.05,0,2.83a5.42,5.42,0,0,1-4.9,0c-1.36-.78-1.36-2.05,0-2.83A5.42,5.42,0,0,1,312.56,509.52Z"/><path class="cls-1" d="M325.38,502.12c1.35.78,1.35,2.05,0,2.83a5.44,5.44,0,0,1-4.91,0c-1.35-.78-1.35-2.05,0-2.83A5.44,5.44,0,0,1,325.38,502.12Z"/><path class="cls-1" d="M338.19,494.72c1.36.78,1.36,2,0,2.83a5.42,5.42,0,0,1-4.9,0c-1.35-.78-1.35-2.05,0-2.83A5.42,5.42,0,0,1,338.19,494.72Z"/><path class="cls-1" d="M351,487.32c1.35.78,1.35,2.05,0,2.83a5.42,5.42,0,0,1-4.9,0c-1.36-.78-1.36-2,0-2.83A5.42,5.42,0,0,1,351,487.32Z"/><path class="cls-1" d="M363.83,479.92c1.35.78,1.35,2.05,0,2.83a5.44,5.44,0,0,1-4.91,0c-1.35-.78-1.35-2.05,0-2.83A5.44,5.44,0,0,1,363.83,479.92Z"/><path class="cls-1" d="M376.64,472.52c1.36.78,1.36,2.05,0,2.83a5.42,5.42,0,0,1-4.9,0c-1.35-.78-1.35-2.05,0-2.83A5.42,5.42,0,0,1,376.64,472.52Z"/><path class="cls-1" d="M389.46,465.12c1.36.78,1.36,2.05,0,2.83a5.42,5.42,0,0,1-4.9,0c-1.35-.78-1.35-2.05,0-2.83A5.36,5.36,0,0,1,389.46,465.12Z"/><path class="cls-1" d="M402.28,457.72c1.35.78,1.35,2,0,2.83a5.42,5.42,0,0,1-4.9,0c-1.36-.78-1.36-2.05,0-2.83A5.36,5.36,0,0,1,402.28,457.72Z"/><path class="cls-1" d="M415.1,450.32c1.35.78,1.35,2.05,0,2.83a5.44,5.44,0,0,1-4.91,0c-1.35-.78-1.35-2,0-2.83A5.44,5.44,0,0,1,415.1,450.32Z"/><path class="cls-1" d="M427.91,442.92c1.36.78,1.36,2.05,0,2.83a5.42,5.42,0,0,1-4.9,0c-1.35-.78-1.35-2.05,0-2.83A5.42,5.42,0,0,1,427.91,442.92Z"/><ellipse class="cls-1" cx="438.28" cy="436.93" rx="3.47" ry="2"/><path class="cls-1" d="M453.55,428.12c1.35.78,1.35,2.05,0,2.83a5.44,5.44,0,0,1-4.91,0c-1.35-.78-1.35-2.05,0-2.83A5.44,5.44,0,0,1,453.55,428.12Z"/><path class="cls-1" d="M466.36,420.72c1.36.78,1.36,2,0,2.83a5.42,5.42,0,0,1-4.9,0c-1.35-.78-1.35-2.05,0-2.83A5.42,5.42,0,0,1,466.36,420.72Z"/><path class="cls-1" d="M479.18,413.32c1.36.78,1.36,2,0,2.83a5.42,5.42,0,0,1-4.9,0c-1.35-.79-1.35-2,0-2.83A5.42,5.42,0,0,1,479.18,413.32Z"/><path class="cls-1" d="M492,405.92c1.35.78,1.35,2.05,0,2.83a5.42,5.42,0,0,1-4.9,0c-1.36-.78-1.36-2.05,0-2.83A5.42,5.42,0,0,1,492,405.92Z"/><polygon class="cls-2" points="121.63 206.61 52.72 101.65 226.02 1.56 294.99 106.52 121.63 206.61"/><polygon class="cls-3" points="121.27 223.34 52.37 118.38 225.67 18.29 294.64 123.25 121.27 223.34"/><path class="cls-4" d="M121.26,208.17,51.07,101.26,226.39,0l70.26,106.91ZM54.38,102.05l67.62,103,171.34-98.92-67.69-103Z"/><polygon class="cls-2" points="469.19 207.2 538.1 102.24 364.8 2.15 295.83 107.1 469.19 207.2"/><polygon class="cls-3" points="475.87 223.34 544.77 118.38 371.47 18.29 302.5 123.25 475.87 223.34"/><path class="cls-4" d="M469.57,208.76,294.18,107.5,364.43.58,539.75,101.84l-.68,1Zm-172.08-102,171.33,98.92,67.62-103L365.17,3.71Z"/><polygon class="cls-2" points="122.5 207.2 122.5 392.47 295.87 492.56 295.87 307.29 122.5 207.2"/><path class="cls-4" d="M295.87,305.94,121.33,205.17v188L295.87,493.91,469.81,393.48l.59-.34v-188Zm-172.2,85.85V209.22L294.7,308V490.54Z"/><polygon class="cls-2" points="469.23 207.19 295.87 307.29 122.5 207.2 295.87 107.1 469.23 207.19"/><path class="cls-5" d="M295.87,308.66,120.12,207.2,295.87,105.73l.6.34L471.62,207.2Zm-171-101.46,171,98.71,171-98.71-171-98.72Z"/><path class="cls-2" d="M332.9,446.16V413.33l-16.36,9.44,29-63.51,29,30-15.45,8.92v32.84Zm3-38.09V440.9L356,429.31V396.47l13.62-7.86-23.2-24-23.2,50.83Z"/><polygon class="cls-4" points="295.83 107.1 120.13 207.2 295.28 308.3 297.12 307.33 295.83 308.49 295.83 107.1"/><polygon class="cls-2" points="295.83 307.29 180.95 311.11 4.2 210.87 122.47 207.19 295.83 307.29"/><polygon class="cls-3" points="294.7 323.03 179.81 326.85 3.06 226.61 121.33 222.94 294.7 323.03"/><path class="cls-4" d="M180.66,312.29l-.29-.17L0,209.83,122.76,206l.29.17L300,308.32ZM8.39,211.91l172.85,98,110.47-3.67L122.17,208.37Z"/><polygon class="cls-2" points="441.66 409.73 438.62 411.49 438.62 310.38 441.65 308.67 441.66 409.73"/><polygon class="cls-2" points="295.87 307.29 410.75 311.11 587.5 210.87 469.23 207.19 295.87 307.29"/><polygon class="cls-3" points="297.96 319.76 412.85 323.59 589.6 223.35 471.33 219.67 297.96 319.76"/><path class="cls-4" d="M411,312.29h-.33l-119-4L468.93,206h.34l122.42,3.8Zm-111-6,110.47,3.67,172.85-98-113.78-3.54Z"/><polygon class="cls-2" points="203.32 254.6 294.88 202.89 383.75 255.12 294.88 307.47 203.32 254.6"/><polygon class="cls-3" points="215.85 261.67 299.36 214.58 375.7 259.05 294.88 306.78 215.85 261.67"/><path class="cls-5" d="M294.89,309l-.67-.39L202,253.84l92.93-52.49.66.38,90.83,53.39ZM206,254.61l88.86,51.31,86.23-50.8-86.24-50.69Z"/></svg>