<svg id="Camada_1" data-name="Camada 1" xmlns="http://www.w3.org/2000/svg" viewBox="0 0 122 52.8"><defs><style>.cls-1{fill:#97c93c;}</style></defs><title>logo</title><g id="Grupo_1" data-name="Grupo 1"><path id="Caminho_1" data-name="Caminho 1" class="cls-1" d="M22.65,5.88,18.12,9.29A7.72,7.72,0,0,0,15,15.46s1.78,28-4.36,28C3,43.47,6.94,18.84,6.94,18.84a.56.56,0,0,0-.56-.56.55.55,0,0,0-.33.11s-5.57,2.79-5.57,5c0,0-1.43,19.72,4.47,25.66C17.39,61.63,23.8,33.44,23.8,33.44l5.58-4.88A4.77,4.77,0,0,0,31,25V20.14a.58.58,0,0,0-.59-.59.57.57,0,0,0-.35.12l-6.31,4.76a.7.7,0,0,1-1-.15.67.67,0,0,1-.13-.41v-6.6A4.14,4.14,0,0,1,24.3,14l4.16-3.14A6.41,6.41,0,0,0,31,5.71V.42A.42.42,0,0,0,30.59,0a.38.38,0,0,0-.25.09Z"/><path id="Caminho_2" data-name="Caminho 2" class="cls-1" d="M2.5,16.74A3.1,3.1,0,1,0,.06,13.1a3,3,0,0,0,0,1.2A3.12,3.12,0,0,0,2.5,16.74Z"/><path id="Caminho_3" data-name="Caminho 3" class="cls-1" d="M67.16,29.8a3.23,3.23,0,0,1,3.68,2.7,1.53,1.53,0,0,1,0,.3,3.4,3.4,0,0,1-3.14,3.27l-7.17.85a.32.32,0,0,1-.37-.27v-.07C60.31,35.19,61.2,30.51,67.16,29.8Zm21,6c-.78.61-2.19,1.79-4,3.14-5.81,4.37-15.55,10.45-20.29,4.52-.13-.15-.06-.3.15-.3,2.57-.1,9.65-.84,13.43-6.12C80,33.51,76,21.84,64.85,23.17c-14.73,1.75-12.41,19.91-9.44,23.61,7.6,9.54,16.94,4.54,19.06,3.14A62.19,62.19,0,0,0,84.2,41.1a39.08,39.08,0,0,0,4.17-5.18Z"/><path id="Caminho_4" data-name="Caminho 4" class="cls-1" d="M120.39,36.63c2.49-3.47-1.49-15-12.5-13.71-14.6,1.74-12.39,19.8-9.36,23.39,9.64,11.41,19.3,3.24,23.3-1.39a.67.67,0,0,0-.78-1c-4.19,1.92-10.81,3.27-14.06-.06a.66.66,0,0,1,0-1,.72.72,0,0,1,.42-.2C110.19,42.53,116.8,41.64,120.39,36.63Zm-16.33-.13a.67.67,0,0,1-.74-.58.54.54,0,0,1,0-.18c.27-1.74,1.49-5.61,6.85-6.25a3.21,3.21,0,0,1,3.65,2.68l0,.3a3.37,3.37,0,0,1-3.12,3.23Z"/><path id="Caminho_5" data-name="Caminho 5" class="cls-1" d="M51.48,21.64a11.37,11.37,0,0,0-7.64,3.77.21.21,0,0,1-.29,0,.22.22,0,0,1-.06-.15h0a4,4,0,0,0-3.94-4H35.84a.61.61,0,0,0-.6.61V49.31a3.24,3.24,0,0,0,3.25,3.24H43a.48.48,0,0,0,.48-.49h0V37.2c0-4.2,1.93-7.2,8.28-8.36a1,1,0,0,0,.76-.93l-.05-5.34a.92.92,0,0,0-.94-.93Z"/><path id="Caminho_6" data-name="Caminho 6" class="cls-1" d="M96.25,46.68a5.29,5.29,0,0,1-4.42,6,5.1,5.1,0,0,1-.87.07c-3.32-.06-6.76-1.67-6.76-8.11v-13l-3.59,1.74a.33.33,0,0,1-.44-.14h0l-.36-.72a4.51,4.51,0,0,1,2.07-6h0l2.31-1.13V19.26a3.72,3.72,0,0,1,2.34-3.45l4.3-1.75v8.13l4.66-2.26a.35.35,0,0,1,.46.15,5.32,5.32,0,0,1-2.44,7.1l-2.68,1.3v3.38a.73.73,0,0,1-.5.7l-4.45,1.49,2.28,1.72.19.15,2,1.48a1.25,1.25,0,0,1,.5,1v5.25c0,4.58,3.53,3.32,4.86,2.72a.4.4,0,0,1,.52.22.17.17,0,0,1,0,.1Z"/></g></svg>