<svg id="Camada_1" data-name="Camada 1" xmlns="http://www.w3.org/2000/svg" viewBox="0 0 30.68 52.3"><defs><style>.cls-1{fill:#97c93c;}</style></defs><title>logo</title><path id="Caminho_1" data-name="Caminho 1" class="cls-1" d="M22.32,5.88,17.79,9.29a7.72,7.72,0,0,0-3.08,6.17s1.78,28-4.36,28c-7.66,0-3.74-24.63-3.74-24.63a.56.56,0,0,0-.56-.56.55.55,0,0,0-.33.11s-5.57,2.79-5.57,5c0,0-1.43,19.72,4.47,25.66C17.06,61.63,23.47,33.44,23.47,33.44l5.58-4.88A4.77,4.77,0,0,0,30.68,25V20.14a.58.58,0,0,0-.59-.59.57.57,0,0,0-.35.12l-6.31,4.76a.7.7,0,0,1-1-.15.67.67,0,0,1-.13-.41v-6.6A4.14,4.14,0,0,1,24,14l4.16-3.14a6.41,6.41,0,0,0,2.55-5.11V.42A.42.42,0,0,0,30.26,0,.38.38,0,0,0,30,.09Z"/><path id="Caminho_2" data-name="Caminho 2" class="cls-1" d="M2.17,16.74A3.1,3.1,0,1,0-.27,13.1a3,3,0,0,0,0,1.2A3.12,3.12,0,0,0,2.17,16.74Z"/></svg>