<svg id="content" xmlns="http://www.w3.org/2000/svg" viewBox="0 0 686.75 453.76"><defs><style>.cls-1{fill:#00002b;opacity:0.31;}.cls-2{fill:#8cb238;}.cls-3{fill:#97c93c;}.cls-4{fill:#bcef4d;}.cls-5{fill:#00004e;}.cls-6{fill:#e8ffb6;}.cls-7{fill:#fec;}.cls-8{fill:#ffbe2e;}.cls-9{fill:#fff;}</style></defs><title>phone-logistics</title><path class="cls-1" d="M20,325.37,431,78.65a60.56,60.56,0,0,1,57.54-2.59l167.77,81.2a24.1,24.1,0,0,1,1.92,42.35L249.66,445.26a59.57,59.57,0,0,1-56.58,2.6L25.36,367C3.81,355.71,4.51,334.65,20,325.37Z" transform="translate(0 -0.02)"/><g id="mask"><path class="cls-2" d="M684.44,124.41C680.92,109.76,661.13,101,661.13,101l-20.5-10.49L577,137.6c-50.22,20.29-131.06,54.4-139.27,59.86C426,205.28,347.87,282,331.46,298s-28.8,35.7-33.54,39.49-3.27,1.58-14.44,18.62c-2.16,3.3-3.77,5.86-5,7.9h-61.7c.58-4.93.45-9.16-.84-11.86-5.59-11.65-39.44-46.81-63.53-48.37-8.64-.56-21.27-2-34.37-3.44l-79.8-44.42L13.83,272S1,284.4,1,302.79c0,15,5.66,23.79,17.09,30.21S41.4,344.87,41.4,344.87l121.15,60.75,29.61,14.28a59.57,59.57,0,0,0,56.58-2.6l46.83-28.16L658.65,171.29s4.69-2.93,15.31-11.72S688,139.06,684.44,124.41Z" transform="translate(0 -0.02)"/><path class="cls-3" d="M685.41,124.18c-3.59-15-23-23.72-23.82-24.07L640.53,89.34l-64,47.38C526.45,157,445.42,191.13,437.17,196.63c-10.37,6.91-71.69,66.73-97.87,92.28l-8.54,8.32c-9.92,9.64-18.38,20.67-24.56,28.72-4,5.18-7.11,9.27-8.91,10.71l-1.38,1.08c-3.27,2.52-3.27,2.52-12.94,17.27l-.33.5c-1.79,2.74-3.38,5.24-4.72,7.45h-60c.5-5,.14-8.81-1-11.3-5.35-11.16-39.67-47.33-64.37-48.93-7.47-.49-18-1.64-29.14-2.86l-5-.55L38.73,255l-.53-.29L13.28,271.16l-.15.11C12.6,271.79,0,284.19,0,302.79,0,317.45,5.43,327,17.6,333.87c11.33,6.37,23.26,11.85,23.35,11.89l121.17,60.76,29.6,14.28a60.41,60.41,0,0,0,57.53-2.64L296.09,390,659.18,172.14c.19-.12,4.87-3.07,15.42-11.8C685.39,151.41,689,139.24,685.41,124.18Zm-377.62,203c6.14-8,14.55-19,24.37-28.51l8.54-8.32c26.14-25.5,87.37-85.24,97.58-92,8.16-5.44,89.12-39.58,139.09-59.77l.12-.05,63.23-46.79,20,10.23c1.63.77,3.22,1.61,4.77,2.54l-360.28,226c.79-1.05,1.67-2.15,2.58-3.34ZM14.46,272.77,38.28,257l79.28,44.14.17.1,5.38.58c11.17,1.23,21.71,2.39,29.23,2.87,24,1.56,57.46,36.9,62.7,47.81,1.11,2.32,1.36,6.13.75,11.31l-.14,1.12H250.3l-17.44,11s6.65,24-5.35,36.37c-6.33,6.51-15.13,6.63-23.08,5.39a58,58,0,0,1-16.83-5.46C163.08,400,37.88,337.76,21.42,328.75,8,321.38,3.71,312.48,2.1,306c-.06-1-.1-2.07-.1-3.16C2,285.71,13.51,273.73,14.46,272.77Z" transform="translate(0 -0.02)"/><path class="cls-3" d="M20.57,266.48l411-246.72a60.56,60.56,0,0,1,57.54-2.59L656.84,98.36a24.11,24.11,0,0,1,1.92,42.36L250.25,386.37a59.59,59.59,0,0,1-56.59,2.6L26,308.07C4.39,296.82,5.1,275.76,20.57,266.48Z" transform="translate(0 -0.02)"/><path class="cls-4" d="M20.45,270.8l411-246.72A60.61,60.61,0,0,1,489,21.49l167.77,81.2A24.1,24.1,0,0,1,658.65,145L250.13,390.69a59.57,59.57,0,0,1-56.58,2.61L25.83,312.39C4.27,301.14,5,280.09,20.45,270.8Z" transform="translate(0 -0.02)"/><path class="cls-5" d="M219.56,395.91a60.45,60.45,0,0,1-26.33-6L25.51,309C14.86,303.44,8.6,295,8.33,285.7c-.24-8,4.14-15.5,11.72-20.05L431,18.9a61.37,61.37,0,0,1,58.49-2.63L657.28,97.46a25.11,25.11,0,0,1,2,44.12L250.76,387.23A60.4,60.4,0,0,1,219.56,395.91Zm-199-129.43.52.85c-6.95,4.18-11,11-10.75,18.28.25,8.51,6.11,16.37,16.08,21.57L194.1,388.07a58.4,58.4,0,0,0,55.63-2.56L658.25,139.86a23.1,23.1,0,0,0-1.84-40.6L488.64,18.07a59.39,59.39,0,0,0-56.59,2.55l-411,246.71Z" transform="translate(0 -0.02)"/><path class="cls-3" d="M41.85,269.44,252,369.2a11,11,0,0,0,10.31-.49L638.87,144.22a3.59,3.59,0,0,0-.27-6.32L429.05,35.9a9.86,9.86,0,0,0-9.38.42L41.57,263.65a3.3,3.3,0,0,0,.28,5.79Z" transform="translate(0 -0.02)"/><path class="cls-5" d="M256.65,371a11.54,11.54,0,0,1-5-1.14L41.53,270.12a4,4,0,0,1-2-5.29A4,4,0,0,1,41.18,263L419.28,35.69a10.54,10.54,0,0,1,10.1-.45l209.55,102a4.35,4.35,0,0,1,.33,7.64L262.64,369.35A11.69,11.69,0,0,1,256.65,371ZM42.18,268.76l210.09,99.76a10.21,10.21,0,0,0,9.6-.45L638.49,143.58a2.86,2.86,0,0,0-.21-5l-209.56-102a9.06,9.06,0,0,0-8.66.38L42,264.29a2.55,2.55,0,0,0-.87,3.49,2.58,2.58,0,0,0,1.09,1Z" transform="translate(0 -0.02)"/><path class="cls-5" d="M641.3,140.34a4.25,4.25,0,0,0-2.37-3.11l-209.55-102a10.54,10.54,0,0,0-10.1.45L41.18,263a4,4,0,0,0-1.91,2.83,4.07,4.07,0,0,0,.95,3.31,1.21,1.21,0,0,0,1.56.17l1.33-.87L420.05,41.82a9.08,9.08,0,0,1,8.67-.38l209.56,102a2.66,2.66,0,0,1,.83.66l.55.6.55-.59A4.34,4.34,0,0,0,641.3,140.34Z" transform="translate(0 -0.02)"/><path class="cls-2" d="M280.14,388,273,392.2c-2.06,1.23-3.76,0-3.79-2.79h0c0-2.77,1.6-6,3.66-7.24L280,378c2.06-1.23,3.76,0,3.79,2.79h0C283.84,383.53,282.2,386.77,280.14,388Z" transform="translate(0 -0.02)"/><path class="cls-6" d="M272.87,382.23c-2.06,1.23-3.7,4.47-3.66,7.23a4.83,4.83,0,0,0,.37,1.68,2.78,2.78,0,0,0,.89-.36l7.13-4.21c2.06-1.22,3.7-4.46,3.67-7.23a4.91,4.91,0,0,0-.3-1.7,3.28,3.28,0,0,0-1,.38Z" transform="translate(0 -0.02)"/><path class="cls-5" d="M269.23,391.79l-.17-.45a5.23,5.23,0,0,1-.41-1.87c0-3,1.69-6.38,3.94-7.72h0l7.13-4.2a3.87,3.87,0,0,1,1.12-.45l.48-.11.17.46a5.47,5.47,0,0,1,.33,1.88c0,3-1.69,6.38-3.94,7.72l-7.13,4.21a3.66,3.66,0,0,1-1,.42Zm3.93-9.08c-1.91,1.13-3.43,4.16-3.4,6.75a3.73,3.73,0,0,0,.16,1l.27-.15,7.13-4.2c1.9-1.14,3.43-4.17,3.39-6.75a4.79,4.79,0,0,0-.11-1l-.31.16Z" transform="translate(0 -0.02)"/><path class="cls-6" d="M283.39,390.57h0c-2.06,1.23-3.76,0-3.8-2.79h0c0-2.77,1.61-6,3.67-7.24h0c2.06-1.22,3.76,0,3.8,2.8h0C287.09,386.11,285.45,389.34,283.39,390.57Z" transform="translate(0 -0.02)"/><path class="cls-5" d="M281.91,391.71a2.7,2.7,0,0,1-1.3-.33,4,4,0,0,1-1.68-3.6c0-3,1.71-6.45,4-7.81a3,3,0,0,1,3.12-.24,4,4,0,0,1,1.68,3.6c0,3-1.71,6.46-4,7.81h0A3.68,3.68,0,0,1,281.91,391.71Zm2.84-11a2.49,2.49,0,0,0-1.15.38c-1.84,1.1-3.37,4.15-3.34,6.66a2.75,2.75,0,0,0,1,2.45,1.8,1.8,0,0,0,1.79-.22h0c1.85-1.1,3.38-4.14,3.34-6.66a2.77,2.77,0,0,0-1-2.45,1.3,1.3,0,0,0-.64-.14Z" transform="translate(0 -0.02)"/><path class="cls-3" d="M279.68,387.82c0-2.77,1.61-6,3.67-7.24a2.46,2.46,0,0,1,2.33-.27h0l-2.62-1.88-.3-.2-.24-.14-.19-.11c-.66-.37-1.32-.25-2.25.3-2.06,1.22-3.7,4.46-3.66,7.23a3.56,3.56,0,0,0,1.08,2.84l-.13-.11.16.14.23.16,3,2.08A3.61,3.61,0,0,1,279.68,387.82Z" transform="translate(0 -0.02)"/><path class="cls-5" d="M280.34,391.15l-3-2.07-.27-.19-.09-.08a4.29,4.29,0,0,1-1.27-3.3c0-3,1.71-6.46,4-7.81a2.81,2.81,0,0,1,2.92-.32l.44.27a2.7,2.7,0,0,1,.39.27l3,2.14-.44,1.15-.65-.29a1.83,1.83,0,0,0-1.71.24c-1.84,1.09-3.37,4.14-3.34,6.65a3,3,0,0,0,.8,2.29Zm-2.41-3.31.2.14.95.67a5.66,5.66,0,0,1-.06-.82c0-3,1.71-6.46,4-7.82a4.12,4.12,0,0,1,.67-.32l-1-.73c-.1-.08-.19-.12-.24-.16l-.44-.27c-.27-.14-.63-.25-1.57.31-1.84,1.1-3.37,4.14-3.34,6.65a3.18,3.18,0,0,0,.74,2.25l.12.1Z" transform="translate(0 -0.02)"/><path class="cls-3" d="M294.2,379.87c0-2.77,1.6-6,3.66-7.24l21.35-12.7a2.35,2.35,0,0,1,2.58-.14l-3.59-2.41-.35-.23a2.34,2.34,0,0,0-2.8,0l-21.35,12.7c-2.06,1.23-3.7,4.47-3.67,7.23a3.15,3.15,0,0,0,.9,2.69l.18.16h0l.11.08,4.08,2.77A3.53,3.53,0,0,1,294.2,379.87Z" transform="translate(0 -0.02)"/><path class="cls-5" d="M295,383.31l-4.45-3.05a3.88,3.88,0,0,1-1.14-3.2c0-3,1.71-6.46,4-7.81l21.35-12.7a3,3,0,0,1,3.54.07l3.9,2.62h0l-.74,1.1h0a1.76,1.76,0,0,0-1.87.17L298.2,373.2c-1.84,1.1-3.37,4.15-3.34,6.66a3,3,0,0,0,.87,2.36Zm21.52-26a2.23,2.23,0,0,0-1.09.35L294,370.39c-1.84,1.1-3.37,4.15-3.34,6.66,0,1.19.2,1.82.64,2.17l.19.16,2.07,1.4c0-.3-.06-.6-.07-.9,0-3,1.71-6.46,4-7.82l21.35-12.7a4.6,4.6,0,0,1,.63-.31l-2-1.35a1.56,1.56,0,0,0-1-.36Z" transform="translate(0 -0.02)"/><path class="cls-6" d="M319.34,370,298,382.66c-2.06,1.23-3.76,0-3.79-2.79h0c0-2.77,1.6-6,3.66-7.24l21.35-12.7c2.06-1.22,3.76,0,3.8,2.8h0C323,365.5,321.4,368.74,319.34,370Z" transform="translate(0 -0.02)"/><path class="cls-5" d="M296.51,383.8a2.59,2.59,0,0,1-1.3-.33,4,4,0,0,1-1.68-3.59c0-3,1.71-6.46,4-7.82l21.35-12.7a3,3,0,0,1,3.12-.24,4,4,0,0,1,1.68,3.6c0,3-1.71,6.46-4,7.81l-21.35,12.7A3.68,3.68,0,0,1,296.51,383.8Zm24.19-23.67a2.35,2.35,0,0,0-1.15.38L298.2,373.2c-1.84,1.1-3.37,4.15-3.34,6.66a2.81,2.81,0,0,0,1,2.45,1.85,1.85,0,0,0,1.79-.22L319,369.39c1.85-1.1,3.38-4.14,3.34-6.65a2.75,2.75,0,0,0-1-2.46,1.21,1.21,0,0,0-.64-.15Z" transform="translate(0 -0.02)"/><path class="cls-3" d="M328.86,359.06c0-2.77,1.61-6,3.67-7.24l21.35-12.7a2.33,2.33,0,0,1,2.57-.14l-3.59-2.41-.34-.23a2.34,2.34,0,0,0-2.8,0L328.37,349c-2.06,1.23-3.7,4.46-3.67,7.23,0,1.35.24,2.17.89,2.69l.19.15h0l.11.08L330,362A3.55,3.55,0,0,1,328.86,359.06Z" transform="translate(0 -0.02)"/><path class="cls-5" d="M329.62,362.5l-4.45-3.05a3.86,3.86,0,0,1-1.13-3.2c0-3,1.71-6.46,4-7.81l21.34-12.7a3,3,0,0,1,3.55.07l3.9,2.62h0l-.74,1.1h0a1.72,1.72,0,0,0-1.86.17l-21.35,12.69c-1.85,1.1-3.38,4.15-3.34,6.66a3,3,0,0,0,.86,2.36Zm21.53-26a2.23,2.23,0,0,0-1.09.35l-21.35,12.7c-1.85,1.1-3.38,4.15-3.34,6.66,0,1.19.2,1.82.64,2.17l.19.16,2.07,1.4a6.82,6.82,0,0,1-.07-.9c0-3,1.71-6.46,4-7.82l21.35-12.7a5.12,5.12,0,0,1,.62-.31l-2-1.35a1.62,1.62,0,0,0-1-.33Z" transform="translate(0 -0.02)"/><path class="cls-6" d="M354,349.15l-21.35,12.7c-2.06,1.23-3.76,0-3.8-2.79h0c0-2.77,1.61-6,3.67-7.24l21.35-12.7c2.06-1.22,3.76,0,3.79,2.8h0C357.71,344.69,356.07,347.93,354,349.15Z" transform="translate(0 -0.02)"/><path class="cls-5" d="M331.18,363a2.59,2.59,0,0,1-1.3-.33,4,4,0,0,1-1.68-3.59c0-3,1.71-6.46,4-7.82l21.35-12.7a3,3,0,0,1,3.12-.24,4,4,0,0,1,1.68,3.6c0,3-1.71,6.46-4,7.81L333,362.42A3.69,3.69,0,0,1,331.18,363Zm24.19-23.67a2.25,2.25,0,0,0-1.15.38L332.87,352.4c-1.85,1.1-3.38,4.15-3.34,6.66a2.77,2.77,0,0,0,1,2.45,1.85,1.85,0,0,0,1.79-.22l21.35-12.7c1.84-1.1,3.37-4.14,3.34-6.65a2.76,2.76,0,0,0-1-2.46,1.2,1.2,0,0,0-.64-.16Z" transform="translate(0 -0.02)"/><path class="cls-5" d="M108.68,323.6l1.26-.78a5.07,5.07,0,0,1,4.77-.19l42.5,20.54a1.36,1.36,0,0,1,.36,1.89,1.54,1.54,0,0,1-.36.36l-1.19.79a5.09,5.09,0,0,1-4.71.17L108.8,326.2a1.47,1.47,0,0,1-.71-1.95A1.49,1.49,0,0,1,108.68,323.6Z" transform="translate(0 -0.02)"/><path class="cls-5" d="M153.36,345.33a6,6,0,0,1-2.6-.58l-42.52-20.19a2.46,2.46,0,0,1-.2-4.35l1.25-.78a6.09,6.09,0,0,1,5.73-.24l42.6,20.6a2.17,2.17,0,0,1,1.06,1.66,2.8,2.8,0,0,1-.92,2.17l-.12.09-1.19.79A6.22,6.22,0,0,1,153.36,345.33Zm-41-24.74a4.15,4.15,0,0,0-2.06.55l-1.26.79a.45.45,0,0,0-.23.42.46.46,0,0,0,.27.4l42.52,20.19a4.11,4.11,0,0,0,3.78-.14l1-.7a.79.79,0,0,0,.24-.47.28.28,0,0,0-.11-.13L114.15,321a4,4,0,0,0-1.77-.41Z" transform="translate(0 -0.02)"/><path class="cls-5" d="M106.11,319.58c0,1.41-1.85,2.54-4.14,2.54s-4.14-1.13-4.14-2.54S99.68,317,102,317,106.11,318.18,106.11,319.58Z" transform="translate(0 -0.02)"/><path class="cls-5" d="M101.84,320.59c-2.88,0-5.14-1.56-5.14-3.54s2.26-3.54,5.14-3.54,5.15,1.55,5.15,3.54S104.73,320.59,101.84,320.59Zm0-5.08c-1.77,0-3.14.82-3.14,1.54s1.37,1.54,3.14,1.54,3.15-.83,3.15-1.54S103.62,315.51,101.84,315.51Z" transform="translate(0 -0.02)"/><polygon class="cls-4" points="190.32 322.04 247.81 287.5 288.9 307.45 232 342.06 190.32 322.04"/><polygon class="cls-4" points="214.09 350.37 246.9 330.23 272.8 343.3 240.16 362.75 214.09 350.37"/><polygon class="cls-5" points="303.44 276.3 232.1 319.15 153.33 280.87 148.09 284.36 226.91 322.27 226.9 322.27 232.19 324.85 308.71 278.83 303.44 276.3"/><polygon class="cls-4" points="182.57 238 223.21 258.84 242.13 247.51 269.31 261.09 282.51 242.39 224.79 212.05 182.57 238"/><polygon class="cls-4" points="249.59 165.39 302.12 190.05 336.21 170.1 386.02 195.6 411.12 179.46 427.77 187.72 456.19 170.25 401.3 144.39 371.24 162.83 317.08 135.69 266.55 143.58 239.21 160.54 249.59 165.39"/><polygon class="cls-5" points="438.21 201.06 354.75 160.55 424.17 118.76 427.77 116.72 378.2 92.52 372.96 96.01 417.21 117.25 343.95 161.29 345.49 162.04 345.45 162.07 427.8 201.64 355.31 245.22 360.61 247.8 437.61 201.44 437.57 201.42 438.21 201.06"/><polygon class="cls-4" points="427.43 180.69 398.79 166.67 398.79 116.11 427.43 130.29 427.43 180.69"/><path class="cls-5" d="M455.24,113.15l-27.83,16.73-29-14.36v51.4l28.63,14h0l.39.2.36-.22h0l27.44-16.49Zm-56.07,53.3V116.73l27.88,13.81v49.57Z" transform="translate(0 -0.02)"/><polygon class="cls-3" points="426.25 97.39 394.59 116.23 427.41 132.55 459.54 113.47 426.25 97.39 426.25 97.39"/><polygon class="cls-6" points="426.22 99.79 394.57 118.63 427.38 134.95 459.51 115.86 426.22 99.79 426.22 99.79"/><polygon class="cls-3" points="394.59 116.23 394.59 119.04 427.41 135.32 427.41 132.55 394.59 116.23"/><path class="cls-5" d="M459.52,113.06l-33.11-16-.18-.09-31.65,18.84-.36.22v3.25L427,135.58l.39.19.36-.21,32.12-19.1v-3.21ZM427,134.74l-32-15.92v-2l32,16Zm-31.66-18.52,30.89-18.39,32.47,15.69-31.3,18.62Z" transform="translate(0 -0.02)"/><polygon class="cls-6" points="425.08 151.27 425.08 141.6 403.06 131.03 403.06 140.73 425.08 151.27"/><path class="cls-5" d="M424.26,149.63l-22.77-10.89V128.2l22.77,10.94Zm-22-11.36,21.27,10.17v-8.83l-21.27-10.22Z" transform="translate(0 -0.02)"/><polygon class="cls-3" points="452.26 126.16 452.26 136.24 430.64 149.23 430.64 139.29 452.26 126.16"/><path class="cls-5" d="M430.27,149.91V139.1l22.36-13.59v11Zm.75-10.39v9.07l20.86-12.54v-9.21Z" transform="translate(0 -0.02)"/><polygon class="cls-3" points="436.78 121.58 424.71 115.65 424.71 106.37 430.75 109.27 436.78 121.58"/><polygon class="cls-3" points="423.63 105.88 430.75 109.27 436.78 121.58 438.86 122.66 431.78 108.19 423.63 104.23 423.63 105.88"/><polygon class="cls-3" points="441.78 102.27 431.78 108.19 431.78 108.19 423.63 104.23 433.48 98.27 441.78 102.27 441.78 102.27"/><polygon class="cls-7" points="441.78 103.87 433.24 108.97 433.24 108.97 425.08 105.01 433.47 99.87 441.78 103.87 441.78 103.87"/><path class="cls-5" d="M442.06,102h0l-.3-.15-8.31-4-9.84,6-.36.22v2.1l1.08.51v9.26l12.27,6,2,1,.3.15.47-.28,10-6Zm-8.56-3.3,7.49,3.61-9.22,5.47-7.36-3.58Zm-8.42,16.73V107l5.39,2.56,2.69,5.5,2.8,5.71Zm12,5.88-3.08-6.2L431,109l-.24-.11-6.45-3.09h0l-.33-.15v-.82l7.5,3.64L438,121.82Z" transform="translate(0 -0.02)"/><polygon class="cls-6" points="425.08 164.15 425.08 154.48 403.06 143.91 403.06 153.61 425.08 164.15"/><path class="cls-5" d="M424.26,162.51l-22.77-10.89V141.08L424.26,152Zm-22-11.36,21.27,10.17v-8.83l-21.27-10.22Z" transform="translate(0 -0.02)"/><polygon class="cls-3" points="452.26 139.04 452.26 149.12 430.64 162.11 430.64 152.17 452.26 139.04"/><path class="cls-5" d="M430.27,162.79V152l22.36-13.59v11ZM431,152.4v9.07l20.86-12.54v-9.21Z" transform="translate(0 -0.02)"/><polygon class="cls-3" points="427.05 136.45 427.04 135.56 455.24 119.06 455.24 119.92 427.05 136.45"/></g><g id="_8" data-name=" 8"><polygon class="cls-4" points="121.3 270.5 109.41 263.64 109.41 249.91 121.3 256.78 121.3 270.5"/><polygon class="cls-4" points="133.19 249.91 121.3 256.78 109.41 249.91 121.3 243.05 133.19 249.91"/><polygon class="cls-6" points="133.62 250.86 122.93 256.96 111.04 250.09 121.73 243.99 133.62 250.86"/><path class="cls-5" d="M121.3,242.67l-11.89,6.86-.35.22v14.11L121,270.73h0l.35.2.35-.2h0l11.89-6.87V249.73Zm0,.8,11.19,6.46-5.62,3.25-5.57,3.21-1.75-1-9.44-5.45Zm-11.54,20V250.54L121,257v12.92Z" transform="translate(0 -0.02)"/><path class="cls-5" d="M118.43,266.41l-1.81-1a1.27,1.27,0,0,1-.53-1v-1.9c0-.39.24-.57.53-.4l1.81,1.05a1.22,1.22,0,0,1,.53,1V266C119,266.4,118.73,266.58,118.43,266.41Z" transform="translate(0 -0.02)"/><polygon class="cls-6" points="106.07 240.06 87.89 229.56 69.71 240.06 69.71 240.06 69.71 261.05 87.89 271.55 87.89 250.61 106.07 240.06"/><polygon class="cls-4" points="69.28 261.41 87.46 271.91 87.46 250.97 69.28 240.42 69.28 240.42 69.28 261.41"/><path class="cls-5" d="M106,240.29l-18.55-10.7L69,240.26h-.06v.42h0v21l18.19,10.5h0l.36.21.37-.21h0l18-10.4.18-.1v-21h0Zm-18.55-9.86L96,235.36,78.55,245.44,70,240.5Zm-.36,40.94L69.64,261.29V241.14L87.1,251.21Zm7.76-25.06-7.4,4.27-8.54-4.93,17.45-10.08,8.55,4.93Z" transform="translate(0 -0.02)"/><path class="cls-5" d="M80.24,251l-3.37-1.95A1,1,0,0,0,75.8,249a1.31,1.31,0,0,0-.55,1.18,2.93,2.93,0,0,0,1.25,2.36l3.38,2a1.27,1.27,0,0,0,.6.18.94.94,0,0,0,.46-.13,1.31,1.31,0,0,0,.55-1.18A2.93,2.93,0,0,0,80.24,251Zm.34,2.9a.37.37,0,0,1-.34-.05l-3.37-1.95a2.23,2.23,0,0,1-.87-1.7c0-.32.1-.5.19-.55a.36.36,0,0,1,.33.06l.24.14a2.69,2.69,0,0,0,1.14,2l2.88,1.66a.62.62,0,0,1-.2.42Z" transform="translate(0 -0.02)"/><path class="cls-4" d="M103,255.37a.57.57,0,0,0-.59,0L99.74,257a1.7,1.7,0,0,0-.7,1.34v2.88a.74.74,0,0,0,.3.66.54.54,0,0,0,.25.06.67.67,0,0,0,.34-.1l2.68-1.55h0a1.68,1.68,0,0,0,.71-1.34V256A.72.72,0,0,0,103,255.37Z" transform="translate(0 -0.02)"/></g><g id="_7" data-name=" 7"><polygon class="cls-4" points="293.73 172.26 262.95 157.19 262.95 102.84 293.73 118.08 293.73 172.26"/><path class="cls-5" d="M323.62,99.66l-29.91,18-31.16-15.43v55.25l30.78,15.07h0l.42.21.38-.23h0l29.49-17.73ZM263.35,157V103.51l30,14.84v53.28Z" transform="translate(0 -0.02)"/><polygon class="cls-3" points="292.46 82.72 258.44 102.97 293.71 120.51 328.25 100 292.46 82.72 292.46 82.72"/><polygon class="cls-6" points="292.86 84.87 258.83 105.12 294.11 122.66 328.64 102.15 292.86 84.87 292.86 84.87"/><polygon class="cls-3" points="258.44 102.97 258.44 105.99 293.71 123.5 293.71 120.51 258.44 102.97"/><path class="cls-5" d="M328.23,99.56,292.64,82.37l-.2-.09-34,20.25-.38.23v3.5l35.27,17.51.42.21.39-.23,34.53-20.53V99.77Zm-34.92,23.31-34.47-17.11v-2.12l34.47,17.14Zm-34-19.91,33.2-19.77,34.91,16.87-33.69,20Z" transform="translate(0 -0.02)"/><polygon class="cls-6" points="291.21 140.63 291.21 130.24 267.54 118.88 267.54 129.31 291.21 140.63"/><path class="cls-5" d="M290.33,138.87l-24.48-11.7V115.84l24.48,11.75Zm-23.67-12.21,22.86,10.94v-9.5l-22.86-11Z" transform="translate(0 -0.02)"/><polygon class="cls-3" points="320.42 113.64 320.42 124.48 297.19 138.45 297.19 127.76 320.42 113.64"/><path class="cls-5" d="M296.79,139.18V127.55l24-14.6v11.78Zm.8-11.17v9.74L320,124.28v-9.9Z" transform="translate(0 -0.02)"/><polygon class="cls-3" points="303.79 108.72 290.81 102.35 290.81 92.37 297.3 95.49 303.79 108.72"/><polygon class="cls-3" points="289.65 91.85 297.3 95.49 303.79 108.72 306.02 109.88 298.41 94.33 289.65 90.07 289.65 91.85"/><polygon class="cls-3" points="309.16 87.96 298.41 94.33 298.41 94.33 289.65 90.07 300.23 83.67 309.16 87.96 309.16 87.96"/><polygon class="cls-7" points="309.16 89.68 299.97 95.17 299.97 95.17 291.21 90.91 300.23 85.38 309.16 89.68 309.16 89.68"/><path class="cls-5" d="M309.46,87.68h0l-.32-.15-8.93-4.3-10.58,6.4-.38.23v2.26l1.15.56v9.94l13.19,6.47,2.13,1.11.32.16.51-.3,10.78-6.4Zm-9.21-3.54L308.31,88l-9.92,5.87L290.49,90Zm-9,18V93.06L297,95.81l2.9,5.91,3,6.14Zm12.88,6.32-3.27-6.67L297.6,95.2l-.27-.12-6.93-3.33h0l-.35-.16v-.88l8.06,3.91,7,14.33Z" transform="translate(0 -0.02)"/><polygon class="cls-6" points="291.21 154.48 291.21 144.09 267.54 132.72 267.54 143.16 291.21 154.48"/><path class="cls-5" d="M290.33,152.72,265.85,141V129.68l24.48,11.76ZM266.66,140.5l22.86,10.94v-9.5l-22.86-11Z" transform="translate(0 -0.02)"/><polygon class="cls-3" points="320.42 127.49 320.42 138.33 297.19 152.29 297.19 141.6 320.42 127.49"/><path class="cls-5" d="M296.79,153V141.4l24-14.61v11.79Zm.8-11.17v9.75L320,138.12v-9.9Z" transform="translate(0 -0.02)"/><polygon class="cls-3" points="293.32 124.71 293.32 123.76 323.62 106.19 323.62 107.11 293.32 124.71"/></g><g id="_6" data-name=" 6"><polygon class="cls-6" points="429.19 219.07 411 208.57 392.82 219.07 392.82 219.07 392.82 240.06 411 250.56 411 229.62 429.19 219.07"/><polygon class="cls-4" points="392.82 240 411 250.49 411 229.55 392.82 219 392.82 219 392.82 240"/><path class="cls-5" d="M429.55,218.88,411,208.17l-18.49,10.68h-.05v.42h0v21l18.18,10.5h0l.36.21.37-.21h0l18-10.39.18-.11v-21h0ZM411,209l8.55,4.93L402.1,224l-8.55-4.93Zm-.36,41-17.45-10.08v-20.2l17.45,10.08Zm7.77-25.06L411,229.16l-8.54-4.93,17.45-10.08,8.55,4.94Z" transform="translate(0 -0.02)"/><path class="cls-5" d="M403.78,229.61l-3.37-2a1,1,0,0,0-1.06,0,1.28,1.28,0,0,0-.56,1.18,2.91,2.91,0,0,0,1.25,2.35l3.38,2a1.27,1.27,0,0,0,.6.18.93.93,0,0,0,.46-.12A1.29,1.29,0,0,0,405,232,2.93,2.93,0,0,0,403.78,229.61Zm.34,2.91a.41.41,0,0,1-.34-.06l-3.37-2a2.17,2.17,0,0,1-.89-1.72c0-.33.1-.5.19-.55s.25,0,.33,0l.24.14a2.66,2.66,0,0,0,1.14,1.95L404.3,232C404.28,232.32,404.2,232.47,404.12,232.52Z" transform="translate(0 -0.02)"/><path class="cls-3" d="M426.56,234a.57.57,0,0,0-.59,0l-2.68,1.55a1.68,1.68,0,0,0-.71,1.34v2.88a.74.74,0,0,0,.3.66.55.55,0,0,0,.25.07.79.79,0,0,0,.34-.1l2.68-1.55h0a1.7,1.7,0,0,0,.7-1.34v-2.88A.71.71,0,0,0,426.56,234Z" transform="translate(0 -0.02)"/></g><g id="_5" data-name=" 5"><polygon class="cls-4" points="273.95 351.52 262.06 344.66 262.06 330.93 273.95 337.8 273.95 351.52"/><polygon class="cls-3" points="285.84 330.93 273.95 337.8 262.06 330.93 273.95 324.07 285.84 330.93"/><polygon class="cls-6" points="285.84 332.3 275.15 338.4 263.26 331.54 273.95 325.44 285.84 332.3"/><path class="cls-5" d="M274,323.69l-11.89,6.86-.35.21v14.12l11.89,6.87h0l.35.2.35-.2h0l11.89-6.87V330.75Zm0,.8L285.14,331l-5.62,3.25L274,337.41l-1.75-1L262.76,331Zm-11.54,20V331.56L273.6,338v12.92Z" transform="translate(0 -0.02)"/><path class="cls-5" d="M271.08,347.43l-1.81-1a1.27,1.27,0,0,1-.53-1v-1.91c0-.38.24-.56.53-.39l1.81,1a1.27,1.27,0,0,1,.53,1V347C271.61,347.42,271.37,347.6,271.08,347.43Z" transform="translate(0 -0.02)"/></g><g id="_4" data-name=" 4"><path class="cls-4" d="M246.84,255.29s-1.68-.15-2-1.5a6.19,6.19,0,0,1-.13-2.27s1-1,1.85-.45c1.2.72,2,1.14,2,1.14Z" transform="translate(0 -0.02)"/><path d="M247.05,255.69h-.24c-.08,0-2-.2-2.32-1.8a6.32,6.32,0,0,1-.14-2.41v-.12l.08-.08s1.18-1.2,2.32-.51,2,1.12,2,1.13l.35.17Zm-2-4a6.11,6.11,0,0,0,.15,2,1.72,1.72,0,0,0,1.43,1.18l1.43-2.52a17.38,17.38,0,0,1-1.7-1c-.48-.26-1.07.17-1.29.36Z" transform="translate(0 -0.02)"/><polygon class="cls-6" points="370.46 251.24 339.72 232.38 265.7 274.46 295.61 293.56 370.46 251.24"/><path d="M295.59,294l-.19-.12L265,274.46l.54-.31L339.73,232l31.1,19.52-.18.1Zm-29.16-19.53,29.19,18.65,74.1-41.9-30-18.41Z" transform="translate(0 -0.02)"/><polygon class="cls-3" points="284.17 209.3 284.17 264.85 314.44 282.81 314.44 227.21 284.17 209.3"/><polygon class="cls-6" points="314.46 243.12 284.17 226.07 284.15 254.02 314.44 272 314.46 243.12"/><path d="M314.81,272.68l-31-18.42V225.45l31,17.47Zm-30.29-18.85,29.54,17.53v-28l-29.55-16.62Z" transform="translate(0 -0.02)"/><path class="cls-5" d="M360.8,262.34l-16.91-9.94,9.78-8.54,6.72,1.22s4.75,4.73,5,5.3S360.8,262.34,360.8,262.34Z" transform="translate(0 -0.02)"/><path d="M361.09,262.6l-.3.17-17.54-10.31,10.31-9,7,1.27.09.08c.8.8,4.8,4.81,5.1,5.4.09.18.37.73-4.62,12.28Zm-16.56-10.26,16.09,9.46c2.15-5,4.36-10.46,4.44-11.29-.34-.5-2.69-2.93-4.85-5.08l-6.42-1.16Z" transform="translate(0 -0.02)"/><polygon class="cls-6" points="370.65 195.09 314.44 227.43 284.15 209.55 340.05 177.46 370.65 195.09"/><path class="cls-5" d="M371,194.89l-31-17.84-55.53,31.87-.14.08h0l-.58.34v.46h0v55.29l31,18.4V227.67l56-32.23Zm-86.47,69.77V210.24L314,227.67v54.5Zm30.08-37.75L285.1,209.44,340,177.91l29.85,17.2Z" transform="translate(0 -0.02)"/><polygon class="cls-5" points="295.4 299.32 280.76 289.2 291.03 281.31 300.45 283.16 295.4 299.32"/><path d="M295.72,299.6l-.34.19-15.26-10.56,10.82-8.3,10,2Zm-14.33-10.4,13.81,9.54,4.8-15.27-8.85-1.74Z" transform="translate(0 -0.02)"/><path class="cls-3" d="M286.41,285.82l-.49-.29a2.13,2.13,0,0,0-.55-.2c-2.67-.64-6.11,2.95-7.32,8-1.12,4.7-.06,9,1.8,10.12h0l6.45,3.7,5.29-17.88Z" transform="translate(0 -0.02)"/><path class="cls-5" d="M286.82,306.74a.82.82,0,0,1-1,.57.72.72,0,0,1-.2-.09l-6.14-3.53c-2-1.46-2.83-6-1.79-10.42,1.24-5.21,4.8-9,7.78-8.31a3.56,3.56,0,0,1,.62.23l.54.32,5.4,3.65Zm-6.72-3.54,6,3.43,5.08-17.16-5.43-3.62a2.23,2.23,0,0,0-.43-.16c-2.53-.61-5.75,3-6.88,7.76-1.08,4.56,0,8.71,1.63,9.71Z" transform="translate(0 -0.02)"/><path class="cls-3" d="M293.33,299.15c-1.21,5.08-4.36,8.68-7,8s-3.87-5.27-2.66-10.35,4.35-8.68,7-8S294.54,294.07,293.33,299.15Z" transform="translate(0 -0.02)"/><path class="cls-5" d="M286.93,307.64a3,3,0,0,1-.72-.09c-2.92-.69-4.21-5.43-2.94-10.79s4.57-9,7.48-8.33,4.22,5.44,2.95,10.8C292.53,304.15,289.66,307.64,286.93,307.64Zm3.12-18.54c-2.32,0-5,3.39-6.05,7.83-1.14,4.79-.05,9.32,2.38,9.89s5.45-3,6.58-7.76h0c1.14-4.79.05-9.32-2.38-9.89A1.88,1.88,0,0,0,290.05,289.1Z" transform="translate(0 -0.02)"/><path class="cls-5" d="M291.08,298.61c-.65,2.72-2.33,4.66-3.77,4.31s-2.07-2.82-1.43-5.54,2.34-4.66,3.77-4.31S291.73,295.89,291.08,298.61Z" transform="translate(0 -0.02)"/><path class="cls-5" d="M287.65,303.34a1.55,1.55,0,0,1-.43,0,2.67,2.67,0,0,1-1.77-2.15,8.22,8.22,0,0,1,.07-3.85c.7-3,2.56-5,4.22-4.59a2.64,2.64,0,0,1,1.77,2.15,8.35,8.35,0,0,1-.06,3.85h0C290.8,301.42,289.19,303.34,287.65,303.34Zm1.66-9.94c-1.16,0-2.51,1.76-3.06,4.06a7.49,7.49,0,0,0-.07,3.49c.23.89.67,1.48,1.22,1.61,1.18.29,2.73-1.56,3.32-4a7.49,7.49,0,0,0,.07-3.49c-.23-.89-.68-1.48-1.22-1.61A1.1,1.1,0,0,0,289.31,293.4Z" transform="translate(0 -0.02)"/><path class="cls-3" d="M289.65,293.07a1.5,1.5,0,0,0-.89.08c1.22.59,1.74,2.89,1.14,5.42-.52,2.16-1.7,3.81-2.88,4.22a1.08,1.08,0,0,0,.29.13c1.44.35,3.12-1.59,3.77-4.31S291.09,293.41,289.65,293.07Z" transform="translate(0 -0.02)"/><polygon class="cls-8" points="295.91 276.03 280.24 266.58 274.61 269.67 287.84 277.72 294 283.47 295.91 286.77 295.91 276.03"/><path d="M296.28,288.19l-2.58-4.47L287.58,278l-13.72-8.33,6.39-3.51,16,9.67Zm-20.92-18.48L288,277.42l6.3,5.88,1.2,2.09v-9.13L280.23,267Z" transform="translate(0 -0.02)"/><path class="cls-6" d="M306.21,238.81c-3.91-2.68-26-17-29.29-16.75a16.57,16.57,0,0,0-6.43,2.24l-16.72,9.56a6.81,6.81,0,0,0-3.07,3.65c-.62,2.33-5.23,20.84-5.23,20.84l-3.73,23.8s-1.87,4.69,2.22,7.16,27.83,16,27.83,16a8.21,8.21,0,0,0,6.47-.62l3.14-1.86s.31-14.17,7.69-17.4,6.51,8.13,6.51,8.13l13.09-7.73.81-24v-17.3S310.13,241.49,306.21,238.81Zm-29.93,37.63-29.17-17.33,5-20.3,27.94,16Zm21.48-10.34-19.17,10.34,3.94-22.63,15.23-8.41Z" transform="translate(0 -0.02)"/><path class="cls-5" d="M274.39,306.11a8.42,8.42,0,0,1-2.73-.42c-.29-.17-23.85-13.62-27.9-16.06-4.31-2.61-2.39-7.57-2.37-7.62l3.71-23.72c.05-.22,4.63-18.57,5.24-20.87a7.13,7.13,0,0,1,3.25-3.89L270.3,224a17,17,0,0,1,6.59-2.28H277c3.89,0,26.33,14.7,29.42,16.82,4.08,2.79,3.47,6,3.44,6.11v17.22l-.81,24.24-13.88,8.2.05-.72c0-.06.43-6-2.1-7.8-.95-.68-2.27-.67-3.89,0-7.08,3.1-7.46,16.93-7.46,17.07s0,.21-3.33,2.17A7.91,7.91,0,0,1,274.39,306.11ZM272,305a7.93,7.93,0,0,0,6.09-.62l3-1.75c.07-1.88.81-14.43,7.91-17.54,1.88-.82,3.44-.81,4.63,0,2.33,1.65,2.48,6,2.44,7.76l12.31-7.27.8-23.82V244.53c0-.19.52-2.92-3.12-5.41-5.94-4.07-25.76-16.69-29-16.69H277a16.31,16.31,0,0,0-6.26,2.18L254,234.19a6.38,6.38,0,0,0-2.9,3.42c-.61,2.29-5.18,20.64-5.23,20.83l-3.72,23.77c-.09.26-1.72,4.5,2,6.78,4,2.44,27.59,15.88,27.83,16Zm6.11-27.88,4.1-23.56,16-8.81v21.56ZM282.89,254l-3.78,21.69,18.3-9.87V246Zm-6.31,23L246.7,259.29l5.19-21.05,28.6,16.38-.05.26Zm-29-18.11L276,275.84,279.64,255l-27.28-15.63Z" transform="translate(0 -0.02)"/><polygon class="cls-4" points="247.15 259.19 252.15 238.89 280.1 254.9 276.32 276.52 247.15 259.19"/><path d="M276.6,277.14l-29.88-17.75,5.19-21,28.6,16.38V255ZM247.6,259l28.47,16.91,3.63-20.83-27.3-15.63Z" transform="translate(0 -0.02)"/><polygon class="cls-4" points="297.8 245.23 297.8 266.23 278.63 276.52 282.57 253.89 297.8 245.23"/><path d="M278.13,277.23l4.1-23.56.16-.09,15.79-9v21.87Zm4.78-23.08-3.78,21.69,18.3-9.82V245.89Z" transform="translate(0 -0.02)"/><path class="cls-5" d="M280.05,254.82l-3.77,21.62s-3.55,18.71-4.33,22.73c-.42,2.2,1.17,5.26,2.5,6.48a7.67,7.67,0,0,0,4.24-1l3.14-1.86s.34-13.6,6.65-17c7.09-3.85,7.12,7.83,7.12,7.83l13.09-7.73.81-24.1V244.46s.52-3.49-3.93-6.08c0,0-14.95,8.89-19.62,11.06C279.34,252.5,280.05,254.82,280.05,254.82ZM297.76,266l-19,10.34,3.84-22.62,15.12-8.42Z" transform="translate(0 -0.02)"/><path class="cls-5" d="M274.83,306h-.53l-.1-.09c-1.37-1.25-3.08-4.41-2.61-6.83.77-4,4.32-22.73,4.32-22.73l3.76-21.54c-.1-.56-.07-2.86,6.12-5.73,4.6-2.14,19.44-11,19.59-11l.19-.11.19.11c4.62,2.69,4.13,6.31,4.11,6.46v17.24l-.81,24.32-13.83,8.16v-.65c0-.06-.06-6.26-2.76-7.86-1-.6-2.28-.47-3.81.36-6.05,3.28-6.46,16.57-6.46,16.71s0,.21-3.32,2.17A7.94,7.94,0,0,1,274.83,306Zm-.22-.75a7.07,7.07,0,0,0,3.89-1l3-1.75c.07-1.83.78-13.85,6.84-17.14,1.78-1,3.31-1.08,4.55-.35,2.54,1.5,3,6.14,3.11,7.86l12.36-7.3.8-23.89V244.46c0-.19.41-3.24-3.54-5.65-1.77,1.05-15.13,8.95-19.47,11-6.12,2.83-5.7,4.92-5.7,4.94v.16l-3.77,21.62s-3.55,18.72-4.33,22.74c-.41,2,1,4.82,2.26,6ZM278.3,277l4-23.56,15.85-8.82v21.57Zm4.7-23-3.67,21.68,18.09-9.86V246Z" transform="translate(0 -0.02)"/><polygon class="cls-5" points="292.2 278.48 292.2 274.78 296.52 272.1 296.52 276.63 292.2 279.19 292.2 278.48"/><path class="cls-3" d="M291.83,279.86v-5.27l3.91-2.43a.76.76,0,0,1,1.05.25.8.8,0,0,1,.11.4v3.29a1.34,1.34,0,0,1-.66,1.16Zm.75-4.85v3.54l3.57-2.11v-3.65Z" transform="translate(0 -0.02)"/><path class="cls-5" d="M296.77,272.12a1.42,1.42,0,0,0-.86,1.38V276s.17.87.86.41a1.14,1.14,0,0,0,.54-1.14v-2.72S297,272,296.77,272.12Z" transform="translate(0 -0.02)"/><path class="cls-3" d="M296.4,277a.72.72,0,0,1-.29-.06,1.11,1.11,0,0,1-.57-.78V273.5a1.8,1.8,0,0,1,1.09-1.73.53.53,0,0,1,.39,0,1.29,1.29,0,0,1,.65.65v2.9h0a1.46,1.46,0,0,1-.7,1.45A1,1,0,0,1,296.4,277Zm.43-4.45a1.06,1.06,0,0,0-.55,1V276a.67.67,0,0,0,.12.17.33.33,0,0,0,.16-.07.77.77,0,0,0,.38-.74v-2.72Z" transform="translate(0 -0.02)"/><polygon class="cls-3" points="243.3 272.18 273.73 289.82 275.42 280.92 244.78 262.72 243.3 272.18"/><path class="cls-5" d="M274,290.43l-31.11-18,1.61-10.25,31.34,18.62ZM243.71,272l29.75,17.25,1.55-8.12-29.94-17.78Z" transform="translate(0 -0.02)"/><polygon class="cls-5" points="246.59 271.07 264.81 282.11 274.36 280.29 248.36 264.85 246.59 271.07"/><path class="cls-5" d="M264.74,282.52l-.13-.07-18.46-11.19,2-7,27.26,16.2ZM247,270.92l17.85,10.81,8.44-1.6-24.73-14.69Z" transform="translate(0 -0.02)"/><path class="cls-6" d="M243.74,269.36l8,4.86s-1.1-8-4.46-10l-2.51-1.49Z" transform="translate(0 -0.02)"/><path class="cls-5" d="M252.23,274.94l-8.9-5.39,1.17-7.41,3,1.77c3.48,2.07,4.6,9.92,4.64,10.26Zm-8.08-5.77,7.1,4.3c-.38-2-1.59-7.39-4.15-8.91l-2-1.21Z" transform="translate(0 -0.02)"/><path class="cls-6" d="M275.42,280.94,272.2,279s-1-.32-4.18.33a15.2,15.2,0,0,0-4.09,2.23l10.26,5.86Z" transform="translate(0 -0.02)"/><path class="cls-5" d="M274.46,288l-11.22-6.41.46-.34a15.57,15.57,0,0,1,4.24-2.3c3.16-.65,4.25-.36,4.37-.32l3.53,2.09Zm-9.84-6.48,9.3,5.31,1.09-5.74-3-1.78h-.65a17.1,17.1,0,0,0-3.27.4,12.6,12.6,0,0,0-3.47,1.85Z" transform="translate(0 -0.02)"/><path class="cls-3" d="M267.72,302.83c-3-1.69-1.32-6.63-1.32-6.63l.69-1.94L246.47,282l-.41,2.61s-1.86,4.69,2.22,7.16c2.7,1.63,13.94,8.08,21.29,12.28Z" transform="translate(0 -0.02)"/><path class="cls-5" d="M269.38,304.39c-6.77-3.88-18.54-10.63-21.29-12.29-4.31-2.61-2.4-7.56-2.38-7.61l.48-3.08,21.36,12.69-.8,2.23s-1.49,4.66,1.15,6.17h0l1.85,1.24Zm-22.62-21.77-.33,2.06c-.09.26-1.71,4.5,2,6.78,2.29,1.39,10.9,6.33,17.62,10.18-1.13-2.22-.11-5.38-.06-5.55l.59-1.66Z" transform="translate(0 -0.02)"/><path class="cls-5" d="M250.42,292.33c-2.94-1.69-1.32-6.63-1.32-6.63l.63-1.75L246.47,282l-.41,2.61s-1.86,4.69,2.22,7.16c.75.45,2.14,1.27,3.93,2.3Z" transform="translate(0 -0.02)"/><path class="cls-5" d="M254.59,295.9,252,294.4c-1.79-1-3.19-1.85-3.93-2.3-4.31-2.61-2.4-7.56-2.38-7.61l.48-3.08,4,2.37-.74,2.05s-1.48,4.66,1.16,6.17l.73,1.14Zm-7.83-13.28-.33,2.06c-.09.26-1.71,4.5,2,6.78l.94.56c-2-2.14-.74-6.24-.68-6.43l.53-1.48Z" transform="translate(0 -0.02)"/><path class="cls-3" d="M352.23,250.6l-.5-.29a3.54,3.54,0,0,0-.55-.18c-2.69-.56-6.13,3.12-7.21,8.23-1,4.72.12,9,2,10.07h0l6.74,3.53,4.77-18Z" transform="translate(0 -0.02)"/><path class="cls-5" d="M353.28,271.16a1.11,1.11,0,0,1-1.36.79.92.92,0,0,1-.23-.09l-6.12-3.23c-2-1.41-2.9-5.87-2-10.35a14,14,0,0,1,3.08-6.41c1.47-1.64,3.13-2.4,4.57-2.11a4.52,4.52,0,0,1,.62.21l.56.31,5.44,3.5Zm-7.12-3,6.28,3.29L357,254.12l-5.47-3.48a2.25,2.25,0,0,0-.44-.14c-1.16-.25-2.57.43-3.85,1.87a13.27,13.27,0,0,0-2.91,6.06c-1,4.61.15,8.72,1.79,9.67Z" transform="translate(0 -0.02)"/><path class="cls-3" d="M359.5,263.73c-1.07,5.11-4.13,8.8-6.82,8.23s-4-5.17-2.93-10.27,4.12-8.79,6.82-8.23S360.57,258.63,359.5,263.73Z" transform="translate(0 -0.02)"/><path class="cls-5" d="M353.24,272.39a3.47,3.47,0,0,1-.64-.06c-2.94-.62-4.35-5.33-3.22-10.72s4.31-9.14,7.26-8.51c1.45.3,2.57,1.61,3.17,3.69A16.4,16.4,0,0,1,357,270.21,5.11,5.11,0,0,1,353.24,272.39ZM356,253.78c-2.36,0-4.92,3.41-5.89,8-1,4.82.2,9.32,2.65,9.83,1.16.25,2.46-.41,3.65-1.85A15.69,15.69,0,0,0,359.08,257c-.51-1.8-1.43-2.93-2.59-3.17A2.72,2.72,0,0,0,356,253.78Z" transform="translate(0 -0.02)"/><path class="cls-5" d="M357.24,263.26c-.58,2.74-2.21,4.71-3.66,4.41s-2.15-2.77-1.57-5.51,2.21-4.71,3.65-4.41S357.81,260.52,357.24,263.26Z" transform="translate(0 -0.02)"/><path class="cls-5" d="M353.88,268.08h-.37c-1.68-.36-2.49-3-1.87-6s2.43-5,4.1-4.69,2.49,3,1.87,5.95h0C357,266.1,355.44,268.08,353.88,268.08Zm1.48-10c-1.17,0-2.49,1.8-3,4.14s.06,4.81,1.28,5.06,2.69-1.63,3.21-4.12h0c.52-2.49-.06-4.81-1.28-5.06a.74.74,0,0,0-.21,0Z" transform="translate(0 -0.02)"/><path class="cls-3" d="M355.66,257.75a1.6,1.6,0,0,0-.89.11c1.24.56,1.81,2.84,1.28,5.38-.46,2.19-1.59,3.86-2.76,4.31a1.48,1.48,0,0,0,.29.12c1.45.3,3.08-1.67,3.66-4.41S357.11,258.06,355.66,257.75Z" transform="translate(0 -0.02)"/><path class="cls-5" d="M314.25,227.13l-.19.11v56.23l34.42-19.29.16-.09v-.19c.54-4.5,2-10.28,5.81-12.31a3,3,0,0,1,2.82-.29c1.29.64,2.24,2.66,2.75,5.82l.09.53,10.7-6.17.19-56.59h0l-.37-.21Z" transform="translate(0 -0.02)"/><path class="cls-6" d="M348.3,263.79l-52.7,29.79-.2,5.76L348,269.58A43.12,43.12,0,0,1,348.3,263.79Z" transform="translate(0 -0.02)"/><path class="cls-5" d="M295.38,299.79l-.36-.26.22-6.17.18-.11,53.34-30.15-.09.73a42.29,42.29,0,0,0-.3,5.74v.23l-.2.11Zm.59-6-.17,4.89,51.82-29.32a44.53,44.53,0,0,1,.23-4.9Z" transform="translate(0 -0.02)"/><path class="cls-6" d="M360.39,257a33.56,33.56,0,0,1,.41,5.39l9.45-5.35.21-5.73Z" transform="translate(0 -0.02)"/><path class="cls-5" d="M360.79,262.77l-.37-.22v-.22A31.67,31.67,0,0,0,360,257v-.26l10.88-6.15-.24,6.61Zm0-5.62a33.1,33.1,0,0,1,.37,4.55l8.72-4.93.17-4.86Z" transform="translate(0 -0.02)"/><polygon class="cls-4" points="266.58 231.99 284.8 243.11 295.5 236.83 276.78 226.07 266.58 231.99"/><path class="cls-5" d="M284.79,243.57l-19-11.57,10.94-6.34,19.46,11.19ZM267.31,232l17.49,10.67,9.95-5.84-18-10.32Z" transform="translate(0 -0.02)"/><polygon points="276.78 228.54 293.37 238.08 295.5 236.83 276.78 226.07 266.58 231.99 268.65 233.26 276.78 228.54"/><path class="cls-5" d="M293.37,238.53,276.78,229l-8.13,4.72L265.84,232l10.94-6.34,19.46,11.19Zm-16.59-10.4,16.59,9.54,1.38-.82-18-10.32L267.31,232l1.35.82Z" transform="translate(0 -0.02)"/><polygon class="cls-3" points="314.44 243.19 370.65 211.85 370.65 241.42 314.44 272 314.44 243.19"/><path class="cls-5" d="M314.06,272.65V243l.2-.11L371,211.24v30.42l-.2.11Zm.75-29.22v28l55.47-30.17V212.51Z" transform="translate(0 -0.02)"/><path class="cls-3" d="M282.8,274.19a3.11,3.11,0,0,0,3.34,2c2.65-.21,2.87-1,2.87-1a3.47,3.47,0,0,0-1.91-2.9,27.38,27.38,0,0,0-4.3-1.5l-.54.87,1.26.59Z" transform="translate(0 -0.02)"/><path d="M285.8,276.57a3.45,3.45,0,0,1-3.35-2.27v-.12l.64-1.73-1.34-.61.92-1.47.27.07A28.14,28.14,0,0,1,287.3,272a3.82,3.82,0,0,1,2.12,3.23v.11c-.07.24-.5,1.05-3.2,1.26Zm-2.6-2.38a2.75,2.75,0,0,0,2.91,1.62c1.86-.14,2.39-.57,2.51-.71a3,3,0,0,0-1.68-2.46,26.73,26.73,0,0,0-4-1.41l-.17.28,1.2.55Z" transform="translate(0 -0.02)"/><path class="cls-6" d="M317,279.38h0l12.05-7v-5l-7.76,4.21C318.53,272.91,317,276.34,317,279.38Z" transform="translate(0 -0.02)"/><path class="cls-5" d="M316.57,280v-.65c0-3.47,1.85-6.83,4.49-8.19l8.31-4.5v5.88Zm12.05-12-7.21,3.91c-2.47,1.26-3.85,4.28-4.06,6.85l11.27-6.57Z" transform="translate(0 -0.02)"/><polygon class="cls-4" points="316.95 213.29 305.06 206.43 305.06 192.7 316.95 199.56 316.95 213.29"/><polygon class="cls-4" points="328.84 192.7 316.95 199.56 305.06 192.7 316.95 185.83 328.84 192.7"/><polygon class="cls-6" points="329.26 193.64 318.57 199.74 306.69 192.88 317.38 186.78 329.26 193.64"/><path class="cls-5" d="M317,185.45l-11.89,6.87-.35.21v14.12l11.89,6.86h0l.35.2.35-.2h0l11.89-6.86V192.52Zm0,.81,11.19,6.46L322.52,196,317,199.18l-1.76-1-9.43-5.45Zm-11.54,20V193.32l11.19,6.47v12.92Z" transform="translate(0 -0.02)"/><path class="cls-5" d="M314.08,209.2l-1.81-1a1.27,1.27,0,0,1-.53-1v-1.91c0-.39.24-.57.53-.4l1.81,1a1.27,1.27,0,0,1,.53,1v1.9C314.61,209.19,314.37,209.37,314.08,209.2Z" transform="translate(0 -0.02)"/></g><g id="_3" data-name=" 3"><polygon class="cls-4" points="224.46 248.84 195.82 234.81 195.82 184.26 224.46 198.44 224.46 248.84"/><path class="cls-5" d="M252.27,181.3,224.44,198l-29-14.36V235l28.63,14h0l.4.2.35-.22h0l27.44-16.49ZM196.2,234.6V184.88l27.88,13.81v49.57Z" transform="translate(0 -0.02)"/><polygon class="cls-3" points="223.28 165.54 191.63 184.38 224.44 200.7 256.57 181.61 223.28 165.54 223.28 165.54"/><polygon class="cls-6" points="223.68 167.51 192.03 186.35 224.84 202.67 256.97 183.58 223.68 167.51 223.68 167.51"/><polygon class="cls-3" points="191.63 184.38 191.63 187.19 224.44 203.47 224.44 200.7 191.63 184.38"/><path class="cls-5" d="M256.55,181.21l-33.1-16-.19-.09L191.61,184l-.36.22v3.25l32.82,16.29.39.19.36-.21,32.12-19.1V181.4Zm-32.48,21.68L192,187v-2l32.07,16Zm-31.66-18.52L223.3,166l32.48,15.69-31.35,18.62Z" transform="translate(0 -0.02)"/><polygon class="cls-6" points="222.54 218.99 222.54 209.32 200.52 198.75 200.52 208.45 222.54 218.99"/><path d="M221.29,217.78l-22.76-10.89V196.35l22.76,10.94Zm-22-11.36,21.26,10.17v-8.83l-21.26-10.22Z" transform="translate(0 -0.02)"/><polygon class="cls-3" points="249.29 194.31 249.29 204.39 227.68 217.38 227.68 207.44 249.29 194.31"/><path class="cls-5" d="M227.3,218.06V207.25l22.37-13.59v11Zm.75-10.39v9.07l20.87-12.54V195Z" transform="translate(0 -0.02)"/><polygon class="cls-3" points="233.82 189.73 221.74 183.8 221.74 174.52 227.78 177.42 233.82 189.73"/><polygon class="cls-3" points="220.66 174.03 227.78 177.42 233.82 189.73 235.9 190.81 228.82 176.34 220.66 172.38 220.66 174.03"/><polygon class="cls-3" points="238.81 170.42 228.82 176.34 228.82 176.34 220.66 172.38 230.51 166.42 238.81 170.42 238.81 170.42"/><polygon class="cls-7" points="238.81 172.02 230.27 177.12 230.27 177.12 222.12 173.16 230.5 168.02 238.81 172.02 238.81 172.02"/><path class="cls-5" d="M239.09,170.15h0l-.29-.14-8.31-4-9.85,6-.35.22v2.1l1.07.51v9.25l12.28,6,2,1,.29.16.48-.29,10-6Zm-8.56-3.29,7.49,3.61-9.22,5.46-7.35-3.57Zm-8.42,16.73v-8.43l5.39,2.56,2.7,5.5,2.8,5.71Zm12,5.88-3-6.21-3-6.11-.25-.11-6.45-3.1h0l-.32-.16V173l7.5,3.64L235.06,190Z" transform="translate(0 -0.02)"/><polygon class="cls-6" points="222.54 231.87 222.54 222.2 200.52 211.63 200.52 221.33 222.54 231.87"/><path d="M221.29,230.66l-22.76-10.89V209.23l22.76,10.93Zm-22-11.36,21.26,10.17v-8.83l-21.26-10.22Z" transform="translate(0 -0.02)"/><polygon class="cls-3" points="249.29 207.19 249.29 217.27 227.68 230.26 227.68 220.32 249.29 207.19"/><path d="M227.3,230.94V220.13l22.37-13.59v11Zm.75-10.39v9.07l20.87-12.54v-9.21Z" transform="translate(0 -0.02)"/><polygon class="cls-3" points="224.08 204.6 224.08 203.71 252.27 187.37 252.27 188.22 224.08 204.6"/></g><g id="_2" data-name=" 2"><path class="cls-4" d="M173.46,283.84c0,6.48-8.5,11.73-19,11.73s-19-5.25-19-11.73,8.5-11.73,19-11.73S173.46,277.36,173.46,283.84Z" transform="translate(0 -0.02)"/><path class="cls-5" d="M169.52,281.58h0l-1.07-4.43H165.9a23.21,23.21,0,0,0-22.64,0h-2.45l-1.16,4.37h0a5.58,5.58,0,0,0-.21,1.4c0,4.82,6.78,8.72,15.13,8.72s15.14-3.9,15.14-8.72A5.1,5.1,0,0,0,169.52,281.58Z" transform="translate(0 -0.02)"/><polygon class="cls-4" points="139.45 282.9 140.56 286.18 145.06 289.67 149.89 291.12 150.56 285.42 146.89 284.59 141.93 281.44 140.7 278.67 140.81 277.13 139.45 282.9"/><path class="cls-5" d="M154.58,292.14C146,292.14,139,288,139,282.92a5.47,5.47,0,0,1,.08-.9h0l.15-.62,1.27-4.75h2.69a23.77,23.77,0,0,1,22.93,0h2.8l1.16,4.81h0a6.06,6.06,0,0,1,.21,1.46C170.22,288,163.2,292.14,154.58,292.14ZM140.3,281h0l-.17.64a4.47,4.47,0,0,0-.19,1.26c0,4.53,6.57,8.22,14.63,8.22s14.64-3.69,14.64-8.22a4.92,4.92,0,0,0-.18-1.21h0l-1-4.05h-2.31l-.12-.08a22.67,22.67,0,0,0-22.09,0l-.13.08H141.2Z" transform="translate(0 -0.02)"/><path class="cls-4" d="M168.57,278.17c0,4.43-6.24,8-13.94,8s-13.93-3.6-13.93-8,6.24-8,13.93-8S168.57,273.73,168.57,278.17Z" transform="translate(0 -0.02)"/><path class="cls-6" d="M168.84,280c0,4.43-6.24,8-13.94,8s-13.9-3.55-13.9-8,6.24-8,13.93-8S168.84,275.58,168.84,280Z" transform="translate(0 -0.02)"/><path class="cls-5" d="M154.63,269.64c-8,0-14.43,3.83-14.43,8.53s6.47,8.53,14.43,8.53,14.44-3.83,14.44-8.53S162.59,269.64,154.63,269.64Zm0,16.06c-7.41,0-13.43-3.38-13.43-7.53s6-7.53,13.43-7.53,13.44,3.38,13.44,7.53S162,285.7,154.63,285.7Z" transform="translate(0 -0.02)"/><path class="cls-5" d="M154.58,273.94c-3.91,0-7.08,1.68-7.08,3.76s3.17,3.76,7.08,3.76,7.09-1.68,7.09-3.76S158.5,273.94,154.58,273.94Z" transform="translate(0 -0.02)"/><path class="cls-3" d="M152.1,173.68c-12.19,5.62-23.13,22.64-24.16,38.37-.42,6.29.83,11.38,3.29,14.85l17.57,33.31,8.42,4.11c.76-1.71,13.05-60.22,13.61-62h0c1.32-4.12,10.31-6.7,10.38-10.71C181.45,177,164,168.2,152.1,173.68Zm-1.54,37.54c-4.8,2.4-8.48-.54-8.18-6.52s4.37-12.45,9.05-14.69,8.22.6,8,6.34-4.12,12.5-8.87,14.87Z" transform="translate(0 -0.02)"/><path class="cls-6" d="M153.26,177.81c-12.19,5.62-23.13,22.63-24.16,38.36-.42,6.29.83,11.38,3.29,14.85l16,30.27,9,2.46c.76-1.72,14-55.53,14.6-57.29h0c1.32-4.11,10.31-6.7,10.38-10.7C182.61,181.11,165.15,172.33,153.26,177.81Zm-1.54,37.53c-4.8,2.4-8.48-.54-8.18-6.52s4.37-12.45,9.05-14.69,8.22.61,8,6.35S156.47,213,151.72,215.34Z" transform="translate(0 -0.02)"/><path class="cls-5" d="M156.74,265.46,148,261.09l-17.71-33.58c-2.68-3.82-3.88-9.19-3.46-15.54,1-15.86,12.19-33.51,24.84-39.34,6.4-2.95,14.77-2.09,21.32,2.18,6.11,4,9.54,10.12,9.43,16.84,0,2.71-2.87,4.64-5.61,6.51-2.12,1.46-4.32,3-4.82,4.53-.23.75-2.53,11.44-5,22.75-5.67,26.44-8.27,38.39-8.7,39.35Zm-7.09-6.13,6.83,3.34c1.2-5,5.22-23.64,8.23-37.72s4.78-22.23,5-23c.74-2.33,3.28-4.06,5.72-5.73,2.25-1.54,4.57-3.13,4.6-4.64.1-5.9-3-11.32-8.37-14.85-5.91-3.85-13.4-4.65-19.09-2h0c-12,5.51-22.5,22.28-23.5,37.38-.38,5.85.69,10.73,3.09,14.11l.08.13Zm-2.28-46.11a5.57,5.57,0,0,1-3.12-.91c-2.1-1.37-3.21-4.17-3-7.67.32-6.34,4.59-13.23,9.71-15.68,2.45-1.17,4.81-1.16,6.65,0,2,1.34,3.16,4,3,7.39-.2,6.33-4.4,13.29-9.55,15.87h0a8.38,8.38,0,0,1-3.69,1Zm7.07-22.8a5.8,5.8,0,0,0-2.51.64c-4.35,2.07-8.12,8.22-8.39,13.7-.14,2.65.59,4.7,2,5.61,1.16.76,2.76.69,4.52-.19h0c4.39-2.19,8.1-8.41,8.27-13.86.08-2.53-.65-4.49-2-5.38a3.31,3.31,0,0,0-1.89-.52Z" transform="translate(0 -0.02)"/><path class="cls-5" d="M175.34,176.88c-4.16-2.72-9.59-2.77-15.3-.14-12.65,5.83-23.79,23.48-24.84,39.34-.42,6.35.78,11.72,3.46,15.54L156.26,265a1.1,1.1,0,0,0,1.49.46,1.16,1.16,0,0,0,.51-.58l20.07-52.73a53.57,53.57,0,0,0,2-5.34,43.8,43.8,0,0,0,2.2-12.63C182.7,186.14,180.13,180,175.34,176.88Z" transform="translate(0 -0.02)"/><path class="cls-9" d="M170.85,205a13.36,13.36,0,0,1-2.58,7.7,23,23,0,0,1-7.17,6.52l-12.63,7.66v-29.1l11.56-7q4.62-2.81,7-2.39c1.58.27,2.38,1.61,2.38,4a11,11,0,0,1-1.19,4.9,14.43,14.43,0,0,1-3.63,4.51c2-1,3.6-1.18,4.66-.62S170.85,203,170.85,205Zm-6.78-8.55q0-2-1.08-2.13a5.49,5.49,0,0,0-3.21,1.13l-6,3.65v7.21l6.05-3.68a10.2,10.2,0,0,0,3.26-2.87,5.84,5.84,0,0,0,1-3.32Zm1.48,11.29q0-4.08-5.09-1l-6.7,4.07v8.34l6.89-4.18a11.39,11.39,0,0,0,3.72-3.32,6.92,6.92,0,0,0,1.18-3.92Z" transform="translate(0 -0.02)"/></g><g id="_1" data-name=" 1"><path class="cls-6" d="M403.33,97.49c0,6.48-8.5,11.73-19,11.73s-19-5.25-19-11.73,8.5-11.73,19-11.73S403.33,91,403.33,97.49Z" transform="translate(0 -0.02)"/><path class="cls-5" d="M398.88,94.93h0l-1.07-4.43h-2.55a23.21,23.21,0,0,0-22.64,0h-2.45L369,94.88h0a4.68,4.68,0,0,0-.21,1.39c0,4.82,6.78,8.72,15.13,8.72s15.14-3.9,15.14-8.72A5.09,5.09,0,0,0,398.88,94.93Z" transform="translate(0 -0.02)"/><polygon class="cls-3" points="368.81 96.25 369.92 99.53 374.42 103.02 379.25 104.47 379.92 98.77 376.25 97.94 371.29 94.79 370.06 92.02 370.17 90.48 368.81 96.25"/><path class="cls-5" d="M383.94,105.49c-8.62,0-15.63-4.14-15.63-9.22a5.26,5.26,0,0,1,.08-.89h0l.15-.63L369.79,90h2.69a23.77,23.77,0,0,1,22.93,0h2.8l1.16,4.81h0a6.06,6.06,0,0,1,.21,1.46C399.58,101.35,392.56,105.49,383.94,105.49ZM369.66,94.38h0l-.16.63a4.86,4.86,0,0,0-.19,1.26c0,4.53,6.56,8.22,14.63,8.22s14.64-3.69,14.64-8.22a4.92,4.92,0,0,0-.18-1.21h0l-1-4h-2.31L395,91a22.67,22.67,0,0,0-22.09,0l-.13.08h-2.21Z" transform="translate(0 -0.02)"/><path class="cls-3" d="M397.92,91.52c0,4.43-6.23,8-13.93,8s-13.93-3.6-13.93-8,6.24-8,13.93-8S397.92,87.08,397.92,91.52Z" transform="translate(0 -0.02)"/><path class="cls-6" d="M397.77,93.8c0,4.43-6.24,8-13.93,8s-13.94-3.59-13.94-8,6.24-8,13.94-8S397.77,89.36,397.77,93.8Z" transform="translate(0 -0.02)"/><path class="cls-5" d="M384,83c-8,0-14.43,3.83-14.43,8.53s6.47,8.53,14.43,8.53,14.43-3.83,14.43-8.53S392,83,384,83Zm0,16.06c-7.41,0-13.43-3.38-13.43-7.53S376.58,84,384,84s13.43,3.38,13.43,7.53-6,7.52-13.43,7.52Z" transform="translate(0 -0.02)"/><path class="cls-5" d="M383.94,87.29c-3.91,0-7.08,1.68-7.08,3.76s3.17,3.76,7.08,3.76S391,93.13,391,91.05,387.86,87.29,383.94,87.29Z" transform="translate(0 -0.02)"/><path class="cls-3" d="M378.67,2.4c-10.51,4.85-19.93,19.51-20.82,33.06-.36,5.43.71,9.81,2.84,12.8L375.83,77l7.25,3.54c.66-1.47,11.25-51.9,11.73-53.41h0c1.14-3.55,8.89-5.77,8.94-9.23C404,5.25,388.92-2.32,378.67,2.4Zm-1.33,32.35c-4.13,2.07-7.31-.47-7-5.62s3.77-10.73,7.8-12.66,7.09.52,6.93,5.47-3.63,10.77-7.73,12.81Z" transform="translate(0 -0.02)"/><path class="cls-6" d="M379.62,5.72c-10.51,4.84-19.93,19.51-20.82,33.06-.36,5.42.71,9.81,2.84,12.8l13.9,26.36L383,79.09c.66-1.48,12.26-47.16,12.74-48.68h0c1.14-3.54,8.89-5.77,8.94-9.22C404.92,8.56,389.87,1,379.62,5.72Zm-1.33,32.35c-4.13,2.06-7.31-.47-7.05-5.62S375,21.72,379,19.79s7.09.52,6.93,5.47S382.39,36,378.29,38.07Z" transform="translate(0 -0.02)"/><path class="cls-5" d="M382.67,81.42l-7.58-3.69L359.83,48.79c-2.31-3.29-3.34-7.92-3-13.39.9-13.67,10.5-28.88,21.4-33.9C383.77-1,391-.31,396.64,3.38c5.25,3.43,8.21,8.72,8.11,14.51,0,2.33-2.47,4-4.83,5.61-1.83,1.25-3.72,2.55-4.15,3.9-.2.65-2.18,9.86-4.27,19.6-4.89,22.79-7.14,33.09-7.5,33.92Zm-6.11-5.2,5.88,2.87c1-4.27,4.5-20.38,7.1-32.51s4.12-19.15,4.32-19.79c.64-2,2.83-3.5,4.94-4.94,1.93-1.32,3.93-2.69,3.95-4A14.94,14.94,0,0,0,395.54,5C390.45,1.73,384,1,379.09,3.3l-.42-.91.42.91c-10.31,4.75-19.39,19.2-20.25,32.22-.33,5,.59,9.24,2.66,12.15l.07.12Zm-2-39.74a4.85,4.85,0,0,1-2.69-.78c-1.81-1.19-2.77-3.6-2.62-6.62.28-5.46,4-11.4,8.37-13.51a5.7,5.7,0,0,1,5.73,0c1.76,1.15,2.72,3.48,2.63,6.37-.17,5.45-3.79,11.46-8.23,13.68l-.45-.9.45.9a7.24,7.24,0,0,1-3.15.86Zm6.09-19.65a5.09,5.09,0,0,0-2.17.55c-3.75,1.79-7,7.08-7.23,11.8-.11,2.29.51,4,1.71,4.84a3.89,3.89,0,0,0,3.9-.16h0c3.78-1.89,7-7.25,7.12-11.95.07-2.18-.56-3.87-1.72-4.63a2.9,2.9,0,0,0-1.57-.45Z" transform="translate(0 -0.02)"/><path class="cls-5" d="M398.7,5.16c-3.59-2.35-8.27-2.39-13.19-.12-10.9,5-20.5,20.23-21.4,33.9-.36,5.48.67,10.1,3,13.39L382.22,81a1,1,0,0,0,1.37.36,1,1,0,0,0,.41-.47l17.27-45.36q1-2.22,1.73-4.53a37.41,37.41,0,0,0,1.9-10.89C405,13.14,402.83,7.85,398.7,5.16Z" transform="translate(0 -0.02)"/><path class="cls-9" d="M390.92,37.7,389,32.47l-8.29,5-1.93,7.58-4.56,2.76L382.15,18l5.37-3.26L395.43,35Zm-6.08-17.52-.1.45c-.1.49-.22,1.05-.37,1.69s-1,4.17-2.65,10.61L388,29.14l-2.15-5.91-.66-2Z" transform="translate(0 -0.02)"/></g></svg>