<svg id="content" xmlns="http://www.w3.org/2000/svg" viewBox="0 0 662.06 578.3"><defs><style>.cls-1{fill:#00002b;}.cls-2{fill:#00003b;opacity:0.44;}.cls-3{fill:#e8ffb6;}.cls-4{fill:#16110d;}.cls-5{fill:#97c93c;}.cls-6{fill:#00004e;}</style></defs><title>transportadora-ifrete</title><path class="cls-1" d="M38.26,451c1.53.87,1.53,2.3,0,3.18a6.08,6.08,0,0,1-5.51,0c-1.52-.88-1.52-2.31,0-3.18A6.08,6.08,0,0,1,38.26,451Z"/><path class="cls-1" d="M52.67,442.7c1.53.87,1.53,2.3,0,3.18a6.08,6.08,0,0,1-5.51,0c-1.52-.88-1.52-2.31,0-3.18A6.08,6.08,0,0,1,52.67,442.7Z"/><path class="cls-1" d="M67.08,434.38c1.53.87,1.53,2.3,0,3.18a6.08,6.08,0,0,1-5.51,0c-1.52-.88-1.52-2.31,0-3.18A6.08,6.08,0,0,1,67.08,434.38Z"/><path class="cls-1" d="M81.5,426.06c1.52.87,1.52,2.3,0,3.18a6.1,6.1,0,0,1-5.52,0c-1.52-.88-1.52-2.31,0-3.18A6.1,6.1,0,0,1,81.5,426.06Z"/><path class="cls-1" d="M95.91,417.74c1.52.87,1.52,2.3,0,3.18a6.1,6.1,0,0,1-5.52,0c-1.52-.88-1.52-2.31,0-3.18A6.1,6.1,0,0,1,95.91,417.74Z"/><path class="cls-1" d="M110.36,409.52c1.52.88,1.52,2.31,0,3.19a6.14,6.14,0,0,1-5.51,0c-1.52-.88-1.52-2.31,0-3.19A6.08,6.08,0,0,1,110.36,409.52Z"/><path class="cls-1" d="M124.77,401.2c1.52.88,1.52,2.31,0,3.19a6.14,6.14,0,0,1-5.51,0c-1.52-.88-1.52-2.31,0-3.19A6.14,6.14,0,0,1,124.77,401.2Z"/><path class="cls-1" d="M139.18,392.88c1.52.88,1.52,2.31,0,3.19a6.14,6.14,0,0,1-5.51,0c-1.52-.88-1.52-2.31,0-3.19A6.08,6.08,0,0,1,139.18,392.88Z"/><path class="cls-1" d="M153.59,384.56c1.52.88,1.52,2.31,0,3.19a6.14,6.14,0,0,1-5.51,0c-1.52-.88-1.52-2.31,0-3.19A6.08,6.08,0,0,1,153.59,384.56Z"/><path class="cls-1" d="M168,376.24c1.52.88,1.52,2.31,0,3.19a6.14,6.14,0,0,1-5.51,0c-1.52-.88-1.52-2.31,0-3.19A6.08,6.08,0,0,1,168,376.24Z"/><path class="cls-1" d="M182.41,367.92c1.53.88,1.53,2.31,0,3.19a6.14,6.14,0,0,1-5.51,0c-1.52-.88-1.52-2.31,0-3.19A6.14,6.14,0,0,1,182.41,367.92Z"/><path class="cls-1" d="M196.82,359.6c1.53.88,1.53,2.31,0,3.19a6.14,6.14,0,0,1-5.51,0c-1.52-.88-1.52-2.31,0-3.19A6.08,6.08,0,0,1,196.82,359.6Z"/><path class="cls-1" d="M211.23,351.28c1.53.88,1.53,2.31,0,3.19a6.14,6.14,0,0,1-5.51,0c-1.52-.88-1.52-2.31,0-3.19A6.08,6.08,0,0,1,211.23,351.28Z"/><ellipse class="cls-1" cx="222.89" cy="344.55" rx="3.9" ry="2.25"/><path class="cls-1" d="M240.06,334.64c1.52.88,1.52,2.31,0,3.19a6.16,6.16,0,0,1-5.52,0c-1.52-.88-1.52-2.31,0-3.19A6.16,6.16,0,0,1,240.06,334.64Z"/><path class="cls-1" d="M254.47,326.32c1.52.88,1.52,2.31,0,3.19a6.16,6.16,0,0,1-5.52,0c-1.52-.88-1.52-2.31,0-3.19A6.16,6.16,0,0,1,254.47,326.32Z"/><path class="cls-1" d="M268.88,318c1.52.88,1.52,2.31,0,3.19a6.14,6.14,0,0,1-5.51,0c-1.53-.88-1.53-2.31,0-3.19A6.08,6.08,0,0,1,268.88,318Z"/><path class="cls-1" d="M283.29,309.68c1.52.88,1.52,2.31,0,3.19a6.14,6.14,0,0,1-5.51,0c-1.53-.88-1.53-2.31,0-3.19A6.14,6.14,0,0,1,283.29,309.68Z"/><path class="cls-1" d="M196.82,343c1.53.88,1.53,2.31,0,3.19a6.14,6.14,0,0,1-5.51,0c-1.52-.88-1.52-2.31,0-3.19A6.14,6.14,0,0,1,196.82,343Z"/><path class="cls-1" d="M211.23,334.64c1.53.88,1.53,2.31,0,3.19a6.14,6.14,0,0,1-5.51,0c-1.52-.88-1.52-2.31,0-3.19A6.14,6.14,0,0,1,211.23,334.64Z"/><path class="cls-1" d="M225.64,326.32c1.53.88,1.53,2.31,0,3.19a6.14,6.14,0,0,1-5.51,0c-1.52-.88-1.52-2.31,0-3.19A6.14,6.14,0,0,1,225.64,326.32Z"/><path class="cls-1" d="M240.06,318c1.52.88,1.52,2.31,0,3.19a6.16,6.16,0,0,1-5.52,0c-1.52-.88-1.52-2.31,0-3.19A6.16,6.16,0,0,1,240.06,318Z"/><path class="cls-1" d="M254.47,309.68c1.52.88,1.52,2.31,0,3.19a6.16,6.16,0,0,1-5.52,0c-1.52-.88-1.52-2.31,0-3.19a6.16,6.16,0,0,1,5.52,0C256,310.56,252.94,308.81,254.47,309.68Z"/><path class="cls-1" d="M182.41,334.64c1.53.88,1.53,2.31,0,3.19a6.14,6.14,0,0,1-5.51,0c-1.52-.88-1.52-2.31,0-3.19A6.14,6.14,0,0,1,182.41,334.64Z"/><path class="cls-1" d="M196.82,326.32c1.53.88,1.53,2.31,0,3.19a6.14,6.14,0,0,1-5.51,0c-1.52-.88-1.52-2.31,0-3.19A6.14,6.14,0,0,1,196.82,326.32Z"/><path class="cls-1" d="M211.24,318c1.52.88,1.52,2.31,0,3.19a6.16,6.16,0,0,1-5.52,0c-1.52-.88-1.52-2.31,0-3.19A6.16,6.16,0,0,1,211.24,318Z"/><path class="cls-1" d="M225.64,309.68c1.53.88,1.53,2.31,0,3.19a6.14,6.14,0,0,1-5.51,0c-1.52-.88-1.52-2.31,0-3.19A6.14,6.14,0,0,1,225.64,309.68Z"/><path class="cls-1" d="M168,326.32c1.52.88,1.52,2.31,0,3.19a6.14,6.14,0,0,1-5.51,0c-1.52-.88-1.52-2.31,0-3.19A6.14,6.14,0,0,1,168,326.32Z"/><path class="cls-1" d="M182.41,318c1.53.88,1.53,2.31,0,3.19a6.14,6.14,0,0,1-5.51,0c-1.52-.88-1.52-2.31,0-3.19A6.14,6.14,0,0,1,182.41,318Z"/><ellipse class="cls-1" cx="194.07" cy="311.28" rx="3.9" ry="2.25"/><ellipse class="cls-1" cx="208.48" cy="302.96" rx="3.9" ry="2.25"/><path class="cls-1" d="M153.59,318c1.53.88,1.53,2.31,0,3.19a6.14,6.14,0,0,1-5.51,0c-1.52-.88-1.52-2.31,0-3.19A6.14,6.14,0,0,1,153.59,318Z"/><ellipse class="cls-1" cx="165.25" cy="311.28" rx="3.9" ry="2.25"/><path class="cls-1" d="M182.41,301.36c1.53.88,1.53,2.31,0,3.19a6.08,6.08,0,0,1-5.51,0c-1.52-.88-1.52-2.31,0-3.19A6.14,6.14,0,0,1,182.41,301.36Z"/><path class="cls-1" d="M196.82,293c1.53.88,1.53,2.31,0,3.19a6.08,6.08,0,0,1-5.51,0c-1.52-.88-1.52-2.31,0-3.19a6.14,6.14,0,0,1,5.51,0Z"/><path class="cls-1" d="M139.06,309.6c1.52.88,1.52,2.3,0,3.18a6.08,6.08,0,0,1-5.51,0c-1.53-.88-1.53-2.3,0-3.18A6.08,6.08,0,0,1,139.06,309.6Z"/><path class="cls-1" d="M153.47,301.28c1.52.88,1.52,2.3,0,3.18a6.08,6.08,0,0,1-5.51,0c-1.53-.88-1.53-2.3,0-3.18A6.08,6.08,0,0,1,153.47,301.28Z"/><path class="cls-1" d="M167.88,293c1.52.88,1.52,2.3,0,3.18a6.08,6.08,0,0,1-5.51,0c-1.53-.88-1.53-2.3,0-3.18A6.08,6.08,0,0,1,167.88,293Z"/><path class="cls-1" d="M182.29,284.64c1.52.88,1.52,2.3,0,3.18a6.08,6.08,0,0,1-5.51,0c-1.52-.88-1.52-2.3,0-3.18A6.08,6.08,0,0,1,182.29,284.64Z"/><path class="cls-1" d="M139.06,293c1.52.88,1.52,2.3,0,3.18a6.08,6.08,0,0,1-5.51,0c-1.53-.88-1.53-2.3,0-3.18A6.08,6.08,0,0,1,139.06,293Z"/><path class="cls-1" d="M153.47,284.64c1.52.88,1.52,2.3,0,3.18a6.08,6.08,0,0,1-5.51,0c-1.53-.88-1.53-2.3,0-3.18A6.08,6.08,0,0,1,153.47,284.64Z"/><path class="cls-1" d="M167.88,276.32c1.52.88,1.52,2.3,0,3.18a6.08,6.08,0,0,1-5.51,0c-1.52-.88-1.52-2.3,0-3.18a6.08,6.08,0,0,1,5.51,0Z"/><path class="cls-1" d="M139.06,276.32c1.52.88,1.52,2.3,0,3.18a6.08,6.08,0,0,1-5.51,0c-1.53-.88-1.53-2.3,0-3.18A6.08,6.08,0,0,1,139.06,276.32Z"/><path class="cls-1" d="M153.47,268c1.52.88,1.52,2.3,0,3.18a6.08,6.08,0,0,1-5.51,0c-1.53-.88-1.53-2.3,0-3.18A6.08,6.08,0,0,1,153.47,268Z"/><ellipse class="cls-1" cx="324.12" cy="568.86" rx="3.9" ry="2.25"/><path class="cls-1" d="M341.29,559c1.52.88,1.52,2.3,0,3.18a6.08,6.08,0,0,1-5.51,0c-1.53-.88-1.53-2.3,0-3.18A6.08,6.08,0,0,1,341.29,559Z"/><path class="cls-1" d="M298.06,567.27c1.52.88,1.52,2.3,0,3.18a6.08,6.08,0,0,1-5.51,0c-1.53-.88-1.53-2.3,0-3.18A6.08,6.08,0,0,1,298.06,567.27Z"/><path class="cls-1" d="M312.47,559c1.52.88,1.52,2.3,0,3.18a6.08,6.08,0,0,1-5.51,0c-1.53-.88-1.53-2.3,0-3.18A6.08,6.08,0,0,1,312.47,559Z"/><path class="cls-1" d="M326.88,550.63c1.52.88,1.52,2.3,0,3.18a6.08,6.08,0,0,1-5.51,0c-1.53-.88-1.53-2.3,0-3.18A6.08,6.08,0,0,1,326.88,550.63Z"/><path class="cls-1" d="M283.65,559c1.52.88,1.52,2.3,0,3.18a6.1,6.1,0,0,1-5.52,0c-1.52-.88-1.52-2.3,0-3.18A6.1,6.1,0,0,1,283.65,559Z"/><path class="cls-1" d="M298.06,550.63c1.52.88,1.52,2.3,0,3.18a6.08,6.08,0,0,1-5.51,0c-1.53-.88-1.53-2.3,0-3.18A6.08,6.08,0,0,1,298.06,550.63Z"/><path class="cls-1" d="M312.47,542.31c1.52.88,1.52,2.31,0,3.18a6.08,6.08,0,0,1-5.51,0c-1.53-.87-1.53-2.3,0-3.18A6.08,6.08,0,0,1,312.47,542.31Z"/><path class="cls-1" d="M269.24,550.63c1.52.88,1.52,2.3,0,3.18a6.1,6.1,0,0,1-5.52,0c-1.52-.88-1.52-2.3,0-3.18A6.1,6.1,0,0,1,269.24,550.63Z"/><path class="cls-1" d="M283.65,542.31c1.52.88,1.52,2.31,0,3.18a6.08,6.08,0,0,1-5.51,0c-1.53-.87-1.53-2.3,0-3.18A6.08,6.08,0,0,1,283.65,542.31Z"/><path class="cls-1" d="M298.06,534c1.52.88,1.52,2.31,0,3.18a6.08,6.08,0,0,1-5.51,0c-1.53-.87-1.53-2.3,0-3.18A6.08,6.08,0,0,1,298.06,534Z"/><ellipse class="cls-1" cx="266.48" cy="535.58" rx="3.9" ry="2.25"/><path class="cls-1" d="M283.65,525.67c1.52.88,1.52,2.31,0,3.18a6.08,6.08,0,0,1-5.51,0c-1.53-.87-1.53-2.3,0-3.18A6.08,6.08,0,0,1,283.65,525.67Z"/><path class="cls-1" d="M269.11,517.26c1.52.88,1.52,2.31,0,3.19a6.08,6.08,0,0,1-5.51,0C262.08,519.57,267.59,516.39,269.11,517.26Z"/><path class="cls-1" d="M125,533.91c1.52.87,1.52,2.3,0,3.18a6.08,6.08,0,0,1-5.51,0c-1.53-.88-1.53-2.31,0-3.18A6.08,6.08,0,0,1,125,533.91Z"/><path class="cls-1" d="M139.42,525.58c1.52.88,1.52,2.31,0,3.19a6.08,6.08,0,0,1-5.51,0c-1.53-.88-1.53-2.31,0-3.19A6.14,6.14,0,0,1,139.42,525.58Z"/><path class="cls-1" d="M153.83,517.27c1.52.87,1.52,2.3,0,3.18a6.08,6.08,0,0,1-5.51,0c-1.53-.88-1.53-2.31,0-3.18A6.08,6.08,0,0,1,153.83,517.27Z"/><path class="cls-1" d="M168.24,509c1.52.87,1.52,2.3,0,3.18a6.08,6.08,0,0,1-5.51,0c-1.53-.88-1.53-2.31,0-3.18A6.08,6.08,0,0,1,168.24,509Z"/><path class="cls-1" d="M182.65,500.63c1.52.87,1.52,2.3,0,3.18a6.08,6.08,0,0,1-5.51,0c-1.53-.88-1.53-2.31,0-3.18A6.08,6.08,0,0,1,182.65,500.63Z"/><path class="cls-1" d="M197.06,492.3c1.52.88,1.52,2.31,0,3.19a6.08,6.08,0,0,1-5.51,0c-1.52-.88-1.52-2.31,0-3.18A6.11,6.11,0,0,1,197.06,492.3Z"/><path class="cls-1" d="M211.47,484c1.52.87,1.52,2.3,0,3.18a6.08,6.08,0,0,1-5.51,0c-1.52-.88-1.52-2.31,0-3.18A6.08,6.08,0,0,1,211.47,484Z"/><path class="cls-1" d="M96.19,533.91c1.52.87,1.52,2.3,0,3.18a6.1,6.1,0,0,1-5.52,0c-1.52-.88-1.52-2.31,0-3.18A6.1,6.1,0,0,1,96.19,533.91Z"/><path class="cls-1" d="M110.6,525.58c1.52.88,1.52,2.31,0,3.19a6.1,6.1,0,0,1-5.52,0c-1.52-.88-1.52-2.31,0-3.19A6.16,6.16,0,0,1,110.6,525.58Z"/><path class="cls-1" d="M125,517.27c1.52.87,1.52,2.3,0,3.18a6.08,6.08,0,0,1-5.51,0c-1.53-.88-1.53-2.31,0-3.18A6.08,6.08,0,0,1,125,517.27Z"/><path class="cls-1" d="M139.42,509c1.52.87,1.52,2.3,0,3.18a6.08,6.08,0,0,1-5.51,0c-1.53-.88-1.53-2.31,0-3.18A6.08,6.08,0,0,1,139.42,509Z"/><path class="cls-1" d="M153.83,500.63c1.52.87,1.52,2.3,0,3.18a6.08,6.08,0,0,1-5.51,0c-1.53-.88-1.53-2.31,0-3.18A6.08,6.08,0,0,1,153.83,500.63Z"/><ellipse class="cls-1" cx="165.48" cy="493.9" rx="3.9" ry="2.25"/><path class="cls-1" d="M182.65,484c1.52.87,1.52,2.3,0,3.18a6.08,6.08,0,0,1-5.51,0c-1.53-.88-1.53-2.31,0-3.18A6.08,6.08,0,0,1,182.65,484Z"/><path class="cls-1" d="M197.06,475.67c1.52.87,1.52,2.3,0,3.18a6.08,6.08,0,0,1-5.51,0c-1.52-.88-1.52-2.31,0-3.18A6.08,6.08,0,0,1,197.06,475.67Z"/><path class="cls-1" d="M67.36,533.91c1.53.87,1.53,2.3,0,3.18a6.08,6.08,0,0,1-5.51,0c-1.52-.88-1.52-2.31,0-3.18A6.08,6.08,0,0,1,67.36,533.91Z"/><ellipse class="cls-1" cx="79.02" cy="527.18" rx="3.9" ry="2.25"/><path class="cls-1" d="M96.19,517.27c1.52.87,1.52,2.3,0,3.18a6.1,6.1,0,0,1-5.52,0c-1.52-.88-1.52-2.31,0-3.18A6.1,6.1,0,0,1,96.19,517.27Z"/><path class="cls-1" d="M53,525.59c1.53.87,1.53,2.3,0,3.18a6.08,6.08,0,0,1-5.51,0c-1.52-.88-1.52-2.31,0-3.18A6.08,6.08,0,0,1,53,525.59Z"/><path class="cls-1" d="M67.36,517.27c1.53.87,1.53,2.3,0,3.18a6.08,6.08,0,0,1-5.51,0c-1.52-.88-1.52-2.31,0-3.18A6.08,6.08,0,0,1,67.36,517.27Z"/><path class="cls-1" d="M38.42,517.18c1.52.88,1.52,2.3,0,3.18a6.08,6.08,0,0,1-5.51,0c-1.53-.88-1.53-2.3,0-3.18A6.08,6.08,0,0,1,38.42,517.18Z"/><path class="cls-1" d="M52.83,508.86c1.52.88,1.52,2.3,0,3.18a6.08,6.08,0,0,1-5.51,0c-1.52-.88-1.52-2.3,0-3.18A6.08,6.08,0,0,1,52.83,508.86Z"/><path class="cls-1" d="M24,508.86c1.52.88,1.52,2.3,0,3.18a6.08,6.08,0,0,1-5.51,0c-1.52-.88-1.52-2.3,0-3.18A6.08,6.08,0,0,1,24,508.86Z"/><path class="cls-1" d="M38.42,500.54c1.52.88,1.52,2.3,0,3.18a6.08,6.08,0,0,1-5.51,0c-1.52-.88-1.52-2.3,0-3.18A6.08,6.08,0,0,1,38.42,500.54Z"/><path class="cls-1" d="M9.6,500.54c1.52.88,1.52,2.3,0,3.18a6.08,6.08,0,0,1-5.51,0c-1.53-.88-1.53-2.3,0-3.18A6.08,6.08,0,0,1,9.6,500.54Z"/><path class="cls-1" d="M24,492.22c1.52.88,1.52,2.3,0,3.18a6.08,6.08,0,0,1-5.51,0c-1.52-.88-1.52-2.3,0-3.18A6.08,6.08,0,0,1,24,492.22Z"/><path class="cls-1" d="M9.6,483.9c1.52.88,1.52,2.3,0,3.18a6.08,6.08,0,0,1-5.51,0c-1.53-.88-1.53-2.3,0-3.18A6.08,6.08,0,0,1,9.6,483.9Z"/><path class="cls-1" d="M32.91,467.26a6.08,6.08,0,0,1,5.51,0c1.52.88,1.52,2.3,0,3.18S31.39,468.14,32.91,467.26Z"/><path class="cls-1" d="M52.83,458.94c1.52.88,1.52,2.3,0,3.18a6.08,6.08,0,0,1-5.51,0c-1.52-.88-1.52-2.3,0-3.18A6.08,6.08,0,0,1,52.83,458.94Z"/><path class="cls-1" d="M67.24,450.62c1.52.88,1.52,2.3,0,3.18a6.08,6.08,0,0,1-5.51,0c-1.52-.88-1.52-2.3,0-3.18A6.08,6.08,0,0,1,67.24,450.62Z"/><path class="cls-1" d="M81.65,442.3c1.52.88,1.52,2.3,0,3.18a6.08,6.08,0,0,1-5.51,0c-1.52-.88-1.52-2.3,0-3.18A6.08,6.08,0,0,1,81.65,442.3Z"/><path class="cls-1" d="M96.06,434c1.52.88,1.52,2.3,0,3.18a6.08,6.08,0,0,1-5.51,0c-1.52-.88-1.52-2.3,0-3.18A6.08,6.08,0,0,1,96.06,434Z"/><path class="cls-1" d="M110.47,425.66c1.52.88,1.52,2.3,0,3.18a6.08,6.08,0,0,1-5.51,0c-1.52-.88-1.52-2.3,0-3.18A6.08,6.08,0,0,1,110.47,425.66Z"/><path class="cls-1" d="M355.74,553.92a6.08,6.08,0,0,1-5.51,0c-1.52-.88-1.52-2.3,0-3.18a6.08,6.08,0,0,1,5.51,0c1.53.88,1.53,2.3,0,3.18Z"/><path class="cls-1" d="M370.15,542.42c1.53.88,1.53,2.3,0,3.18a6.08,6.08,0,0,1-5.51,0c-1.52-.88-1.52-2.3,0-3.18A6.08,6.08,0,0,1,370.15,542.42Z"/><path class="cls-1" d="M384.56,534.1c1.53.88,1.53,2.3,0,3.18a6.08,6.08,0,0,1-5.51,0c-1.52-.88-1.52-2.3,0-3.18A6.08,6.08,0,0,1,384.56,534.1Z"/><path class="cls-1" d="M399,525.78c1.52.88,1.52,2.3,0,3.18a6.1,6.1,0,0,1-5.52,0c-1.52-.88-1.52-2.3,0-3.18A6.1,6.1,0,0,1,399,525.78Z"/><path class="cls-1" d="M413.39,517.46c1.52.88,1.52,2.3,0,3.18a6.1,6.1,0,0,1-5.52,0c-1.52-.88-1.52-2.3,0-3.18A6.1,6.1,0,0,1,413.39,517.46Z"/><path class="cls-1" d="M427.8,509.14c1.52.88,1.52,2.3,0,3.18a6.1,6.1,0,0,1-5.52,0c-1.52-.88-1.52-2.3,0-3.18A6.1,6.1,0,0,1,427.8,509.14Z"/><path class="cls-1" d="M442.21,500.82c1.52.88,1.52,2.3,0,3.18a6.08,6.08,0,0,1-5.51,0c-1.53-.88-1.53-2.3,0-3.18A6.08,6.08,0,0,1,442.21,500.82Z"/><path class="cls-1" d="M456.62,492.5c1.52.88,1.52,2.3,0,3.18a6.08,6.08,0,0,1-5.51,0c-1.53-.88-1.53-2.3,0-3.18A6.08,6.08,0,0,1,456.62,492.5Z"/><path class="cls-1" d="M471,484.18c1.52.88,1.52,2.3,0,3.18a6.08,6.08,0,0,1-5.51,0c-1.53-.88-1.53-2.3,0-3.18A6.08,6.08,0,0,1,471,484.18Z"/><path class="cls-1" d="M485.44,475.86c1.52.88,1.52,2.3,0,3.18a6.08,6.08,0,0,1-5.51,0c-1.52-.88-1.52-2.3,0-3.18A6.08,6.08,0,0,1,485.44,475.86Z"/><path class="cls-1" d="M335.8,542.43a6.13,6.13,0,0,1,5.52,0c1.52.88,1.52,2.31,0,3.19a6.1,6.1,0,0,1-5.52,0C334.29,544.74,334.28,543.31,335.8,542.43Z"/><path class="cls-1" d="M355.74,534.1c1.53.88,1.53,2.3,0,3.18a6.08,6.08,0,0,1-5.51,0c-1.52-.88-1.52-2.3,0-3.18A6.08,6.08,0,0,1,355.74,534.1Z"/><path class="cls-1" d="M370.15,525.78c1.53.88,1.53,2.3,0,3.18a6.08,6.08,0,0,1-5.51,0c-1.52-.88-1.52-2.3,0-3.18A6.08,6.08,0,0,1,370.15,525.78Z"/><path class="cls-1" d="M384.56,517.46c1.53.88,1.53,2.3,0,3.18a6.08,6.08,0,0,1-5.51,0c-1.52-.88-1.52-2.3,0-3.18A6.08,6.08,0,0,1,384.56,517.46Z"/><path class="cls-1" d="M399,509.14c1.52.88,1.52,2.3,0,3.18a6.1,6.1,0,0,1-5.52,0c-1.52-.88-1.52-2.3,0-3.18A6.1,6.1,0,0,1,399,509.14Z"/><path class="cls-1" d="M413.39,500.82c1.52.88,1.52,2.3,0,3.18a6.1,6.1,0,0,1-5.52,0c-1.52-.88-1.52-2.3,0-3.18A6.1,6.1,0,0,1,413.39,500.82Z"/><path class="cls-1" d="M427.8,492.5c1.52.88,1.52,2.3,0,3.18a6.1,6.1,0,0,1-5.52,0c-1.52-.88-1.52-2.3,0-3.18A6.1,6.1,0,0,1,427.8,492.5Z"/><ellipse class="cls-1" cx="439.45" cy="485.77" rx="3.9" ry="2.25"/><path class="cls-1" d="M456.62,475.86c1.52.88,1.52,2.3,0,3.18a6.08,6.08,0,0,1-5.51,0c-1.53-.88-1.53-2.3,0-3.18A6.08,6.08,0,0,1,456.62,475.86Z"/><path class="cls-1" d="M471,467.54c1.52.88,1.52,2.3,0,3.18a6.08,6.08,0,0,1-5.51,0c-1.53-.88-1.53-2.3,0-3.18A6.08,6.08,0,0,1,471,467.54Z"/><path class="cls-1" d="M321.39,534.11a6.11,6.11,0,0,1,5.51,0c1.53.88,1.53,2.31,0,3.19a6.08,6.08,0,0,1-5.51,0C319.88,536.42,319.87,535,321.39,534.11Z"/><path class="cls-1" d="M341.33,525.78c1.53.88,1.53,2.3,0,3.18a6.08,6.08,0,0,1-5.51,0c-1.52-.88-1.52-2.3,0-3.18A6.08,6.08,0,0,1,341.33,525.78Z"/><path class="cls-1" d="M355.74,517.46c1.53.88,1.53,2.3,0,3.18a6.08,6.08,0,0,1-5.51,0c-1.52-.88-1.52-2.3,0-3.18A6.08,6.08,0,0,1,355.74,517.46Z"/><path class="cls-1" d="M370.15,509.14c1.53.88,1.53,2.3,0,3.18a6.08,6.08,0,0,1-5.51,0c-1.52-.88-1.52-2.3,0-3.18A6.08,6.08,0,0,1,370.15,509.14Z"/><path class="cls-1" d="M384.56,500.82c1.53.88,1.53,2.3,0,3.18a6.08,6.08,0,0,1-5.51,0c-1.52-.88-1.52-2.3,0-3.18A6.08,6.08,0,0,1,384.56,500.82Z"/><path class="cls-1" d="M393.46,492.5a6.1,6.1,0,0,1,5.52,0c1.52.88,1.52,2.3,0,3.18a6.1,6.1,0,0,1-5.52,0c-1.52-.88-1.52-2.3,0-3.18Z"/><path class="cls-1" d="M413.39,484.18c1.52.88,1.52,2.3,0,3.18a6.1,6.1,0,0,1-5.52,0c-1.52-.88-1.52-2.3,0-3.18A6.1,6.1,0,0,1,413.39,484.18Z"/><path class="cls-1" d="M427.8,475.86c1.52.88,1.52,2.3,0,3.18a6.08,6.08,0,0,1-5.51,0c-1.53-.88-1.53-2.3,0-3.18A6.08,6.08,0,0,1,427.8,475.86Z"/><path class="cls-1" d="M442.21,467.54c1.52.88,1.52,2.3,0,3.18a6.08,6.08,0,0,1-5.51,0c-1.53-.88-1.53-2.3,0-3.18A6.08,6.08,0,0,1,442.21,467.54Z"/><path class="cls-1" d="M307,525.79a6.11,6.11,0,0,1,5.51,0c1.53.88,1.53,2.31,0,3.19a6.08,6.08,0,0,1-5.51,0C305.47,528.1,305.46,526.67,307,525.79Z"/><path class="cls-1" d="M298.09,520.65a6.08,6.08,0,0,1-5.51,0c-1.52-.87-1.53-2.3,0-3.18S299.61,519.77,298.09,520.65Z"/><path class="cls-1" d="M298,500.73c1.52.88,1.52,2.31,0,3.18a6.08,6.08,0,0,1-5.51,0c-1.53-.87-1.53-2.3,0-3.18A6.08,6.08,0,0,1,298,500.73Z"/><path class="cls-1" d="M312.39,492.41c1.52.88,1.52,2.31,0,3.18a6.08,6.08,0,0,1-5.51,0c-1.53-.87-1.53-2.3,0-3.18A6.08,6.08,0,0,1,312.39,492.41Z"/><path class="cls-1" d="M326.8,484.09c1.52.88,1.52,2.31,0,3.18a6.08,6.08,0,0,1-5.51,0c-1.53-.87-1.53-2.3,0-3.18A6.08,6.08,0,0,1,326.8,484.09Z"/><path class="cls-1" d="M341.21,475.77c1.52.88,1.52,2.31,0,3.18a6.08,6.08,0,0,1-5.51,0c-1.52-.87-1.52-2.3,0-3.18A6.08,6.08,0,0,1,341.21,475.77Z"/><ellipse class="cls-1" cx="352.86" cy="469.04" rx="3.9" ry="2.25"/><path class="cls-1" d="M370,459.13c1.52.88,1.52,2.31,0,3.18a6.08,6.08,0,0,1-5.51,0c-1.52-.87-1.52-2.3,0-3.18A6.08,6.08,0,0,1,370,459.13Z"/><path class="cls-1" d="M384.44,450.81c1.52.88,1.52,2.31,0,3.18a6.08,6.08,0,0,1-5.51,0c-1.52-.87-1.52-2.3,0-3.18A6.08,6.08,0,0,1,384.44,450.81Z"/><path class="cls-1" d="M398.85,442.49c1.52.88,1.52,2.31,0,3.19a6.14,6.14,0,0,1-5.51,0c-1.52-.88-1.52-2.31,0-3.19A6.08,6.08,0,0,1,398.85,442.49Z"/><path class="cls-1" d="M283.57,492.41c1.52.88,1.52,2.31,0,3.18a6.1,6.1,0,0,1-5.52,0c-1.52-.87-1.52-2.3,0-3.18A6.1,6.1,0,0,1,283.57,492.41Z"/><path class="cls-1" d="M298,484.09c1.52.88,1.52,2.31,0,3.18a6.08,6.08,0,0,1-5.51,0c-1.53-.87-1.53-2.3,0-3.18A6.08,6.08,0,0,1,298,484.09Z"/><path class="cls-1" d="M312.39,475.77c1.52.88,1.52,2.31,0,3.18a6.08,6.08,0,0,1-5.51,0c-1.53-.87-1.53-2.3,0-3.18A6.08,6.08,0,0,1,312.39,475.77Z"/><path class="cls-1" d="M326.8,467.45c1.52.88,1.52,2.31,0,3.19a6.14,6.14,0,0,1-5.51,0c-1.53-.88-1.53-2.31,0-3.19A6.08,6.08,0,0,1,326.8,467.45Z"/><path class="cls-1" d="M341.21,459.13c1.52.88,1.52,2.31,0,3.18a6.08,6.08,0,0,1-5.51,0c-1.52-.87-1.52-2.3,0-3.18A6.08,6.08,0,0,1,341.21,459.13Z"/><path class="cls-1" d="M355.62,450.81c1.52.88,1.52,2.31,0,3.18a6.08,6.08,0,0,1-5.51,0c-1.52-.87-1.52-2.3,0-3.18A6.08,6.08,0,0,1,355.62,450.81Z"/><path class="cls-1" d="M370,442.49c1.52.88,1.52,2.31,0,3.19a6.14,6.14,0,0,1-5.51,0c-1.52-.88-1.52-2.31,0-3.19A6.08,6.08,0,0,1,370,442.49Z"/><path class="cls-1" d="M384.44,434.17c1.52.88,1.52,2.31,0,3.19a6.14,6.14,0,0,1-5.51,0c-1.52-.88-1.52-2.31,0-3.19A6.08,6.08,0,0,1,384.44,434.17Z"/><path class="cls-1" d="M398.85,425.85c1.52.88,1.52,2.31,0,3.19a6.14,6.14,0,0,1-5.51,0c-1.52-.88-1.52-2.31,0-3.19A6.08,6.08,0,0,1,398.85,425.85Z"/><path class="cls-1" d="M263.64,484.09a6.1,6.1,0,0,1,5.52,0c1.52.88,1.52,2.31,0,3.18a6.1,6.1,0,0,1-5.52,0C262.12,486.4,262.12,485,263.64,484.09Z"/><path class="cls-1" d="M283.57,475.77c1.52.88,1.52,2.31,0,3.18a6.1,6.1,0,0,1-5.52,0c-1.52-.87-1.52-2.3,0-3.18A6.1,6.1,0,0,1,283.57,475.77Z"/><path class="cls-1" d="M292.47,467.45a6.08,6.08,0,0,1,5.51,0c1.52.88,1.52,2.31,0,3.19a6.14,6.14,0,0,1-5.51,0c-1.53-.88-1.53-2.31,0-3.19Z"/><path class="cls-1" d="M312.39,459.13c1.52.88,1.52,2.31,0,3.18a6.08,6.08,0,0,1-5.51,0C305.35,461.44,310.87,458.25,312.39,459.13Z"/><path class="cls-1" d="M326.8,450.81c1.52.88,1.52,2.31,0,3.18a6.08,6.08,0,0,1-5.51,0C319.76,453.12,325.28,449.93,326.8,450.81Z"/><path class="cls-1" d="M364.52,429c-1.52-.88-1.52-2.31,0-3.19a6.08,6.08,0,0,1,5.51,0C371.55,426.73,366,429.91,364.52,429Z"/><path class="cls-1" d="M355.62,417.53c1.52.88,1.52,2.31,0,3.19a6.14,6.14,0,0,1-5.51,0c-1.52-.88-1.52-2.31,0-3.19A6.08,6.08,0,0,1,355.62,417.53Z"/><path class="cls-1" d="M370,409.21c1.52.88,1.52,2.31,0,3.19a6.14,6.14,0,0,1-5.51,0c-1.52-.88-1.52-2.31,0-3.19A6.08,6.08,0,0,1,370,409.21Z"/><path class="cls-1" d="M220.39,475.78a6.1,6.1,0,0,1,5.52,0c1.52.87,1.53,2.3,0,3.18a6.11,6.11,0,0,1-5.51,0C218.88,478.09,218.88,476.66,220.39,475.78Z"/><path class="cls-1" d="M240.34,467.45c1.52.88,1.52,2.31,0,3.19a6.16,6.16,0,0,1-5.52,0c-1.52-.88-1.52-2.31,0-3.19A6.1,6.1,0,0,1,240.34,467.45Z"/><path class="cls-1" d="M254.75,459.13c1.52.88,1.52,2.31,0,3.18a6.1,6.1,0,0,1-5.52,0c-1.52-.87-1.52-2.3,0-3.18A6.1,6.1,0,0,1,254.75,459.13Z"/><path class="cls-1" d="M269.16,450.81c1.52.88,1.52,2.31,0,3.18a6.1,6.1,0,0,1-5.52,0c-1.52-.87-1.52-2.3,0-3.18A6.1,6.1,0,0,1,269.16,450.81Z"/><path class="cls-1" d="M283.57,442.49c1.52.88,1.52,2.31,0,3.19a6.16,6.16,0,0,1-5.52,0c-1.52-.88-1.52-2.31,0-3.19A6.08,6.08,0,0,1,283.57,442.49Z"/><path class="cls-1" d="M298,434.17c1.52.88,1.52,2.31,0,3.19a6.14,6.14,0,0,1-5.51,0c-1.53-.88-1.53-2.31,0-3.19A6.08,6.08,0,0,1,298,434.17Z"/><path class="cls-1" d="M312.39,425.85c1.52.88,1.52,2.31,0,3.19a6.14,6.14,0,0,1-5.51,0c-1.52-.88-1.52-2.31,0-3.19A6.14,6.14,0,0,1,312.39,425.85Z"/><path class="cls-1" d="M326.8,417.53c1.52.88,1.52,2.31,0,3.19a6.14,6.14,0,0,1-5.51,0c-1.53-.88-1.53-2.31,0-3.19A6.08,6.08,0,0,1,326.8,417.53Z"/><path class="cls-1" d="M341.21,409.21c1.52.88,1.52,2.31,0,3.19a6.14,6.14,0,0,1-5.51,0c-1.52-.88-1.52-2.31,0-3.19A6.08,6.08,0,0,1,341.21,409.21Z"/><path class="cls-1" d="M355.62,400.89c1.52.88,1.52,2.31,0,3.19a6.14,6.14,0,0,1-5.51,0c-1.52-.88-1.52-2.31,0-3.19A6.08,6.08,0,0,1,355.62,400.89Z"/><path class="cls-1" d="M206,467.46a6.1,6.1,0,0,1,5.52,0c1.52.88,1.52,2.3,0,3.18a6.13,6.13,0,0,1-5.52,0C204.47,469.77,204.47,468.34,206,467.46Z"/><path class="cls-1" d="M225.92,459.13c1.53.88,1.53,2.31,0,3.18a6.08,6.08,0,0,1-5.51,0c-1.52-.87-1.52-2.3,0-3.18A6.08,6.08,0,0,1,225.92,459.13Z"/><path class="cls-1" d="M240.34,450.81c1.52.88,1.52,2.31,0,3.19a6.16,6.16,0,0,1-5.52,0c-1.52-.88-1.52-2.31,0-3.19A6.1,6.1,0,0,1,240.34,450.81Z"/><path class="cls-1" d="M254.75,442.49c1.52.88,1.52,2.31,0,3.19a6.16,6.16,0,0,1-5.52,0c-1.52-.88-1.52-2.31,0-3.19A6.1,6.1,0,0,1,254.75,442.49Z"/><path class="cls-1" d="M269.16,434.17c1.52.88,1.52,2.31,0,3.19a6.16,6.16,0,0,1-5.52,0c-1.52-.88-1.52-2.31,0-3.19A6.1,6.1,0,0,1,269.16,434.17Z"/><path class="cls-1" d="M283.57,425.85c1.52.88,1.52,2.31,0,3.19a6.14,6.14,0,0,1-5.51,0c-1.53-.88-1.53-2.31,0-3.19A6.14,6.14,0,0,1,283.57,425.85Z"/><path class="cls-1" d="M298,417.53c1.52.88,1.52,2.31,0,3.19a6.14,6.14,0,0,1-5.51,0c-1.53-.88-1.53-2.31,0-3.19A6.08,6.08,0,0,1,298,417.53Z"/><path class="cls-1" d="M312.39,409.21c1.52.88,1.52,2.31,0,3.19a6.14,6.14,0,0,1-5.51,0c-1.52-.88-1.52-2.31,0-3.19A6.08,6.08,0,0,1,312.39,409.21Z"/><path class="cls-1" d="M326.8,400.89c1.52.88,1.52,2.31,0,3.19a6.14,6.14,0,0,1-5.51,0c-1.53-.88-1.52-2.31,0-3.19A6.08,6.08,0,0,1,326.8,400.89Z"/><path class="cls-1" d="M341.21,392.57c1.52.88,1.52,2.31,0,3.19a6.08,6.08,0,0,1-5.51,0c-1.52-.88-1.52-2.31,0-3.19A6.14,6.14,0,0,1,341.21,392.57Z"/><path class="cls-1" d="M341.21,375.93c1.52.88,1.52,2.31,0,3.19a6.08,6.08,0,0,1-5.51,0c-1.52-.88-1.52-2.31,0-3.19A6.08,6.08,0,0,1,341.21,375.93Z"/><path class="cls-1" d="M355.62,367.61c1.52.88,1.52,2.31,0,3.19a6.08,6.08,0,0,1-5.51,0c-1.52-.88-1.52-2.31,0-3.19A6.14,6.14,0,0,1,355.62,367.61Z"/><path class="cls-1" d="M370,359.29c1.52.88,1.52,2.31,0,3.19a6.08,6.08,0,0,1-5.51,0c-1.52-.88-1.52-2.31,0-3.19A6.14,6.14,0,0,1,370,359.29Z"/><path class="cls-1" d="M384.44,351c1.52.88,1.52,2.31,0,3.19a6.08,6.08,0,0,1-5.51,0c-1.52-.88-1.52-2.31,0-3.19A6.14,6.14,0,0,1,384.44,351Z"/><path class="cls-1" d="M398.85,342.65c1.52.88,1.52,2.31,0,3.19a6.08,6.08,0,0,1-5.51,0c-1.52-.88-1.52-2.31,0-3.19A6.14,6.14,0,0,1,398.85,342.65Z"/><path class="cls-1" d="M413.26,334.33c1.52.88,1.52,2.31,0,3.19a6.08,6.08,0,0,1-5.51,0c-1.52-.88-1.52-2.31,0-3.19A6.14,6.14,0,0,1,413.26,334.33Z"/><path class="cls-1" d="M427.67,326c1.52.88,1.52,2.31,0,3.19a6.08,6.08,0,0,1-5.51,0c-1.52-.88-1.52-2.31,0-3.19A6.14,6.14,0,0,1,427.67,326Z"/><path class="cls-1" d="M278.06,395.76c-1.53-.88-1.53-2.31,0-3.19a6.14,6.14,0,0,1,5.51,0c1.52.88,1.52,2.31,0,3.19A6.08,6.08,0,0,1,278.06,395.76Z"/><path class="cls-1" d="M298,384.25c1.52.88,1.52,2.31,0,3.19a6.08,6.08,0,0,1-5.51,0c-1.53-.88-1.53-2.31,0-3.19A6.08,6.08,0,0,1,298,384.25Z"/><path class="cls-1" d="M312.39,375.93c1.52.88,1.52,2.31,0,3.19a6.08,6.08,0,0,1-5.51,0c-1.52-.88-1.52-2.31,0-3.19A6.14,6.14,0,0,1,312.39,375.93Z"/><path class="cls-1" d="M326.8,367.61c1.52.88,1.52,2.31,0,3.19a6.08,6.08,0,0,1-5.51,0c-1.52-.88-1.52-2.31,0-3.19A6.14,6.14,0,0,1,326.8,367.61Z"/><path class="cls-1" d="M341.21,359.29c1.52.88,1.52,2.31,0,3.19a6.08,6.08,0,0,1-5.51,0c-1.52-.88-1.52-2.31,0-3.19A6.14,6.14,0,0,1,341.21,359.29Z"/><path class="cls-1" d="M355.62,351c1.52.88,1.52,2.31,0,3.19a6.08,6.08,0,0,1-5.51,0c-1.52-.88-1.52-2.31,0-3.19A6.14,6.14,0,0,1,355.62,351Z"/><path class="cls-1" d="M370,342.65c1.52.88,1.52,2.31,0,3.19a6.08,6.08,0,0,1-5.51,0c-1.52-.88-1.52-2.31,0-3.19A6.14,6.14,0,0,1,370,342.65Z"/><path class="cls-1" d="M384.44,334.33c1.52.88,1.52,2.31,0,3.19a6.08,6.08,0,0,1-5.51,0c-1.52-.88-1.52-2.31,0-3.19A6.14,6.14,0,0,1,384.44,334.33Z"/><path class="cls-1" d="M398.85,326c1.52.88,1.52,2.31,0,3.19a6.08,6.08,0,0,1-5.51,0c-1.52-.88-1.52-2.31,0-3.19A6.14,6.14,0,0,1,398.85,326Z"/><path class="cls-1" d="M413.26,317.7c1.52.87,1.52,2.3,0,3.18a6.08,6.08,0,0,1-5.51,0c-1.52-.88-1.52-2.31,0-3.18A6.08,6.08,0,0,1,413.26,317.7Z"/><path class="cls-1" d="M269,384.17c1.52.88,1.52,2.3,0,3.18a6.08,6.08,0,0,1-5.51,0c-1.52-.88-1.52-2.3,0-3.18A6.08,6.08,0,0,1,269,384.17Z"/><path class="cls-1" d="M283.44,375.85c1.52.88,1.52,2.3,0,3.18a6.08,6.08,0,0,1-5.51,0c-1.52-.88-1.52-2.3,0-3.18A6.08,6.08,0,0,1,283.44,375.85Z"/><path class="cls-1" d="M297.85,367.53c1.52.88,1.52,2.3,0,3.18a6.08,6.08,0,0,1-5.51,0c-1.52-.88-1.52-2.3,0-3.18A6.08,6.08,0,0,1,297.85,367.53Z"/><path class="cls-1" d="M312.26,359.21c1.53.88,1.53,2.3,0,3.18a6.08,6.08,0,0,1-5.51,0c-1.52-.88-1.52-2.3,0-3.18A6.08,6.08,0,0,1,312.26,359.21Z"/><ellipse class="cls-1" cx="323.92" cy="352.48" rx="3.9" ry="2.25"/><path class="cls-1" d="M341.08,342.57c1.53.88,1.53,2.3,0,3.18a6.08,6.08,0,0,1-5.51,0c-1.52-.88-1.52-2.3,0-3.18A6.08,6.08,0,0,1,341.08,342.57Z"/><path class="cls-1" d="M355.5,334.25c1.52.88,1.52,2.3,0,3.18a6.1,6.1,0,0,1-5.52,0c-1.52-.88-1.52-2.3,0-3.18A6.1,6.1,0,0,1,355.5,334.25Z"/><path class="cls-1" d="M369.91,325.93c1.52.88,1.52,2.3,0,3.18a6.1,6.1,0,0,1-5.52,0c-1.52-.88-1.52-2.3,0-3.18A6.1,6.1,0,0,1,369.91,325.93Z"/><ellipse class="cls-1" cx="381.56" cy="319.2" rx="3.9" ry="2.25"/><path class="cls-1" d="M398.73,309.29c1.52.88,1.52,2.3,0,3.18a6.1,6.1,0,0,1-5.52,0c-1.52-.88-1.52-2.3,0-3.18A6.1,6.1,0,0,1,398.73,309.29Z"/><path class="cls-1" d="M254.62,375.85c1.52.88,1.52,2.3,0,3.18a6.08,6.08,0,0,1-5.51,0c-1.52-.88-1.52-2.3,0-3.18A6.08,6.08,0,0,1,254.62,375.85Z"/><path class="cls-1" d="M269,367.53c1.52.88,1.52,2.3,0,3.18a6.08,6.08,0,0,1-5.51,0c-1.52-.88-1.52-2.3,0-3.18A6.08,6.08,0,0,1,269,367.53Z"/><ellipse class="cls-1" cx="280.69" cy="360.8" rx="3.9" ry="2.25"/><path class="cls-1" d="M297.85,350.89c1.52.88,1.52,2.3,0,3.18a6.08,6.08,0,0,1-5.51,0c-1.52-.88-1.52-2.3,0-3.18A6.08,6.08,0,0,1,297.85,350.89Z"/><path class="cls-1" d="M312.26,342.57c1.53.88,1.53,2.3,0,3.18a6.08,6.08,0,0,1-5.51,0c-1.52-.88-1.52-2.3,0-3.18A6.08,6.08,0,0,1,312.26,342.57Z"/><ellipse class="cls-1" cx="323.92" cy="335.84" rx="3.9" ry="2.25"/><path class="cls-1" d="M341.08,325.93c1.53.88,1.53,2.3,0,3.18a6.08,6.08,0,0,1-5.51,0c-1.52-.88-1.52-2.3,0-3.18A6.08,6.08,0,0,1,341.08,325.93Z"/><path class="cls-1" d="M355.5,317.61c1.52.88,1.52,2.3,0,3.18a6.1,6.1,0,0,1-5.52,0c-1.52-.88-1.52-2.3,0-3.18A6.1,6.1,0,0,1,355.5,317.61Z"/><path class="cls-1" d="M369.91,309.29c1.52.88,1.52,2.3,0,3.18a6.1,6.1,0,0,1-5.52,0c-1.52-.88-1.52-2.3,0-3.18A6.1,6.1,0,0,1,369.91,309.29Z"/><path class="cls-1" d="M384.32,301c1.52.88,1.52,2.3,0,3.18a6.1,6.1,0,0,1-5.52,0c-1.52-.88-1.52-2.3,0-3.18A6.1,6.1,0,0,1,384.32,301Z"/><path class="cls-1" d="M240.21,367.53c1.52.88,1.52,2.3,0,3.18a6.08,6.08,0,0,1-5.51,0c-1.52-.88-1.52-2.3,0-3.18A6.08,6.08,0,0,1,240.21,367.53Z"/><path class="cls-1" d="M254.62,359.21c1.52.88,1.52,2.3,0,3.18a6.08,6.08,0,0,1-5.51,0c-1.52-.88-1.52-2.3,0-3.18A6.08,6.08,0,0,1,254.62,359.21Z"/><path class="cls-1" d="M269,350.89c1.52.88,1.52,2.3,0,3.18a6.08,6.08,0,0,1-5.51,0c-1.52-.88-1.52-2.3,0-3.18A6.08,6.08,0,0,1,269,350.89Z"/><path class="cls-1" d="M283.44,342.57c1.52.88,1.52,2.3,0,3.18a6.08,6.08,0,0,1-5.51,0c-1.52-.88-1.52-2.3,0-3.18A6.08,6.08,0,0,1,283.44,342.57Z"/><path class="cls-1" d="M297.85,334.25c1.52.88,1.52,2.3,0,3.18a6.08,6.08,0,0,1-5.51,0c-1.52-.88-1.52-2.3,0-3.18A6.08,6.08,0,0,1,297.85,334.25Z"/><path class="cls-1" d="M312.26,325.93c1.53.88,1.53,2.3,0,3.18a6.08,6.08,0,0,1-5.51,0c-1.52-.88-1.52-2.3,0-3.18A6.08,6.08,0,0,1,312.26,325.93Z"/><path class="cls-1" d="M326.67,317.61c1.53.88,1.53,2.3,0,3.18a6.08,6.08,0,0,1-5.51,0c-1.52-.88-1.52-2.3,0-3.18A6.08,6.08,0,0,1,326.67,317.61Z"/><path class="cls-1" d="M341.08,309.29c1.53.88,1.53,2.3,0,3.18a6.08,6.08,0,0,1-5.51,0c-1.52-.88-1.52-2.3,0-3.18A6.08,6.08,0,0,1,341.08,309.29Z"/><path class="cls-1" d="M355.5,301c1.52.88,1.52,2.3,0,3.18a6.1,6.1,0,0,1-5.52,0c-1.52-.88-1.52-2.3,0-3.18A6.1,6.1,0,0,1,355.5,301Z"/><path class="cls-1" d="M119.4,417.46a6.08,6.08,0,0,1,5.51,0c1.52.88,1.53,2.3,0,3.18a6.08,6.08,0,0,1-5.51,0C117.88,419.76,117.88,418.34,119.4,417.46Z"/><path class="cls-1" d="M139.34,409.13c1.52.88,1.52,2.3,0,3.18a6.08,6.08,0,0,1-5.51,0c-1.53-.88-1.53-2.3,0-3.18A6.08,6.08,0,0,1,139.34,409.13Z"/><path class="cls-1" d="M153.75,400.81c1.52.88,1.52,2.3,0,3.18a6.08,6.08,0,0,1-5.51,0c-1.53-.88-1.53-2.3,0-3.18A6.08,6.08,0,0,1,153.75,400.81Z"/><path class="cls-1" d="M168.16,392.49c1.52.88,1.52,2.3,0,3.18a6.08,6.08,0,0,1-5.51,0c-1.52-.88-1.52-2.3,0-3.18A6.08,6.08,0,0,1,168.16,392.49Z"/><ellipse class="cls-1" cx="179.81" cy="385.76" rx="3.9" ry="2.25"/><path class="cls-1" d="M197,375.85c1.52.88,1.52,2.3,0,3.18a6.08,6.08,0,0,1-5.51,0c-1.52-.88-1.52-2.3,0-3.18A6.08,6.08,0,0,1,197,375.85Z"/><path class="cls-1" d="M211.39,367.53c1.52.88,1.52,2.3,0,3.18a6.08,6.08,0,0,1-5.51,0c-1.52-.88-1.52-2.3,0-3.18A6.08,6.08,0,0,1,211.39,367.53Z"/><path class="cls-1" d="M225.8,359.21c1.52.88,1.52,2.3,0,3.18a6.08,6.08,0,0,1-5.51,0c-1.52-.88-1.52-2.3,0-3.18A6.08,6.08,0,0,1,225.8,359.21Z"/><path class="cls-1" d="M240.21,350.89c1.52.88,1.52,2.3,0,3.18a6.08,6.08,0,0,1-5.51,0c-1.52-.88-1.52-2.3,0-3.18A6.08,6.08,0,0,1,240.21,350.89Z"/><path class="cls-1" d="M254.62,342.57c1.52.88,1.52,2.3,0,3.18a6.08,6.08,0,0,1-5.51,0c-1.52-.88-1.52-2.3,0-3.18A6.08,6.08,0,0,1,254.62,342.57Z"/><path class="cls-1" d="M269,334.25c1.52.88,1.52,2.3,0,3.18a6.08,6.08,0,0,1-5.51,0c-1.52-.88-1.52-2.3,0-3.18A6.08,6.08,0,0,1,269,334.25Z"/><path class="cls-1" d="M283.44,325.93c1.52.88,1.52,2.3,0,3.18a6.08,6.08,0,0,1-5.51,0c-1.52-.88-1.52-2.3,0-3.18A6.08,6.08,0,0,1,283.44,325.93Z"/><path class="cls-1" d="M297.85,317.61c1.52.88,1.52,2.3,0,3.18a6.08,6.08,0,0,1-5.51,0c-1.52-.88-1.52-2.3,0-3.18A6.08,6.08,0,0,1,297.85,317.61Z"/><path class="cls-1" d="M312.26,309.29c1.53.88,1.53,2.3,0,3.18a6.08,6.08,0,0,1-5.51,0c-1.52-.88-1.52-2.3,0-3.18A6.08,6.08,0,0,1,312.26,309.29Z"/><path class="cls-1" d="M601.41,574.45c1.52.88,1.52,2.31,0,3.19a6.08,6.08,0,0,1-5.51,0c-1.52-.88-1.52-2.31,0-3.19A6.14,6.14,0,0,1,601.41,574.45Z"/><path class="cls-1" d="M615.82,566.13c1.52.88,1.52,2.31,0,3.19a6.08,6.08,0,0,1-5.51,0c-1.52-.88-1.52-2.31,0-3.19A6.14,6.14,0,0,1,615.82,566.13Z"/><path class="cls-1" d="M630.23,557.81c1.52.88,1.52,2.31,0,3.19a6.08,6.08,0,0,1-5.51,0c-1.52-.88-1.52-2.31,0-3.19A6.14,6.14,0,0,1,630.23,557.81Z"/><path class="cls-1" d="M644.64,549.5c1.52.87,1.52,2.3,0,3.18a6.08,6.08,0,0,1-5.51,0c-1.52-.88-1.52-2.31,0-3.18A6.08,6.08,0,0,1,644.64,549.5Z"/><path class="cls-1" d="M572.59,574.45c1.52.88,1.52,2.31,0,3.19a6.08,6.08,0,0,1-5.51,0c-1.52-.88-1.52-2.31,0-3.19A6.14,6.14,0,0,1,572.59,574.45Z"/><path class="cls-1" d="M587,566.13c1.52.88,1.52,2.31,0,3.19a6.08,6.08,0,0,1-5.51,0c-1.52-.88-1.52-2.31,0-3.19A6.14,6.14,0,0,1,587,566.13Z"/><path class="cls-1" d="M601.41,557.81c1.52.88,1.52,2.31,0,3.19a6.08,6.08,0,0,1-5.51,0c-1.52-.88-1.52-2.31,0-3.19A6.14,6.14,0,0,1,601.41,557.81Z"/><path class="cls-1" d="M615.82,549.5c1.52.87,1.52,2.3,0,3.18a6.08,6.08,0,0,1-5.51,0c-1.52-.88-1.52-2.31,0-3.18A6.08,6.08,0,0,1,615.82,549.5Z"/><path class="cls-1" d="M630.23,541.18c1.52.87,1.52,2.3,0,3.18a6.08,6.08,0,0,1-5.51,0c-1.52-.88-1.52-2.31,0-3.18A6.08,6.08,0,0,1,630.23,541.18Z"/><path class="cls-1" d="M644.64,532.86c1.52.87,1.52,2.3,0,3.18a6.08,6.08,0,0,1-5.51,0c-1.52-.88-1.52-2.31,0-3.18A6.08,6.08,0,0,1,644.64,532.86Z"/><path class="cls-1" d="M543.77,574.45c1.52.88,1.52,2.31,0,3.19a6.08,6.08,0,0,1-5.51,0c-1.52-.88-1.52-2.31,0-3.19A6.14,6.14,0,0,1,543.77,574.45Z"/><path class="cls-1" d="M558.18,566.13c1.52.88,1.52,2.31,0,3.19a6.08,6.08,0,0,1-5.51,0c-1.52-.88-1.52-2.31,0-3.19A6.14,6.14,0,0,1,558.18,566.13Z"/><path class="cls-1" d="M572.59,557.81c1.52.88,1.52,2.31,0,3.19a6.08,6.08,0,0,1-5.51,0c-1.52-.88-1.52-2.31,0-3.19A6.14,6.14,0,0,1,572.59,557.81Z"/><path class="cls-1" d="M587,549.5c1.52.87,1.52,2.3,0,3.18a6.08,6.08,0,0,1-5.51,0c-1.52-.88-1.52-2.31,0-3.18A6.08,6.08,0,0,1,587,549.5Z"/><path class="cls-1" d="M601.41,541.18c1.52.87,1.52,2.3,0,3.18a6.08,6.08,0,0,1-5.51,0c-1.52-.88-1.52-2.31,0-3.18A6.08,6.08,0,0,1,601.41,541.18Z"/><path class="cls-1" d="M615.82,532.86c1.52.87,1.52,2.3,0,3.18a6.08,6.08,0,0,1-5.51,0c-1.52-.88-1.52-2.31,0-3.18A6.08,6.08,0,0,1,615.82,532.86Z"/><path class="cls-1" d="M630.23,524.54c1.52.87,1.52,2.3,0,3.18a6.08,6.08,0,0,1-5.51,0c-1.52-.88-1.52-2.31,0-3.18A6.08,6.08,0,0,1,630.23,524.54Z"/><path class="cls-1" d="M529.36,566.13c1.52.88,1.52,2.31,0,3.19a6.08,6.08,0,0,1-5.51,0c-1.53-.88-1.53-2.31,0-3.19A6.14,6.14,0,0,1,529.36,566.13Z"/><path class="cls-1" d="M543.77,557.81c1.52.88,1.52,2.31,0,3.19a6.08,6.08,0,0,1-5.51,0c-1.52-.88-1.52-2.31,0-3.19A6.14,6.14,0,0,1,543.77,557.81Z"/><path class="cls-1" d="M558.18,549.5c1.52.87,1.52,2.3,0,3.18a6.08,6.08,0,0,1-5.51,0c-1.52-.88-1.52-2.31,0-3.18A6.08,6.08,0,0,1,558.18,549.5Z"/><path class="cls-1" d="M572.59,541.18c1.52.87,1.52,2.3,0,3.18a6.08,6.08,0,0,1-5.51,0c-1.52-.88-1.52-2.31,0-3.18A6.08,6.08,0,0,1,572.59,541.18Z"/><path class="cls-1" d="M515,557.81c1.52.88,1.52,2.31,0,3.19a6.08,6.08,0,0,1-5.51,0c-1.53-.88-1.53-2.31,0-3.19A6.14,6.14,0,0,1,515,557.81Z"/><path class="cls-1" d="M529.36,549.5c1.52.87,1.52,2.3,0,3.18a6.08,6.08,0,0,1-5.51,0c-1.53-.88-1.53-2.31,0-3.18A6.08,6.08,0,0,1,529.36,549.5Z"/><path class="cls-1" d="M543.77,541.18c1.52.87,1.52,2.3,0,3.18a6.08,6.08,0,0,1-5.51,0c-1.52-.88-1.52-2.31,0-3.18A6.08,6.08,0,0,1,543.77,541.18Z"/><path class="cls-1" d="M515,541.18c1.52.87,1.52,2.3,0,3.18a6.08,6.08,0,0,1-5.51,0c-1.53-.88-1.53-2.31,0-3.18A6.08,6.08,0,0,1,515,541.18Z"/><ellipse class="cls-1" cx="526.6" cy="534.45" rx="3.9" ry="2.25"/><path class="cls-1" d="M514.82,524.45c1.53.88,1.53,2.3,0,3.18a6.08,6.08,0,0,1-5.51,0c-1.52-.88-1.52-2.3,0-3.18A6.08,6.08,0,0,1,514.82,524.45Z"/><path class="cls-1" d="M500.41,516.13c1.52.88,1.52,2.3,0,3.18a6.08,6.08,0,0,1-5.51,0c-1.52-.88-1.52-2.3,0-3.18A6.08,6.08,0,0,1,500.41,516.13Z"/><path class="cls-1" d="M514.82,507.81c1.53.88,1.53,2.3,0,3.18a6.08,6.08,0,0,1-5.51,0c-1.52-.88-1.52-2.3,0-3.18A6.08,6.08,0,0,1,514.82,507.81Z"/><path class="cls-1" d="M486,507.81c1.52.88,1.52,2.3,0,3.18a6.08,6.08,0,0,1-5.51,0c-1.52-.88-1.52-2.3,0-3.18A6.08,6.08,0,0,1,486,507.81Z"/><path class="cls-1" d="M500.41,499.49c1.52.88,1.52,2.3,0,3.18a6.08,6.08,0,0,1-5.51,0c-1.52-.88-1.52-2.3,0-3.18A6.08,6.08,0,0,1,500.41,499.49Z"/><path class="cls-1" d="M514.82,491.17c1.53.88,1.53,2.3,0,3.18a6.08,6.08,0,0,1-5.51,0c-1.52-.88-1.52-2.3,0-3.18A6.08,6.08,0,0,1,514.82,491.17Z"/><path class="cls-1" d="M471.59,499.49c1.52.88,1.52,2.3,0,3.18a6.08,6.08,0,0,1-5.51,0c-1.52-.88-1.52-2.3,0-3.18A6.08,6.08,0,0,1,471.59,499.49Z"/><path class="cls-1" d="M486,491.17c1.52.88,1.52,2.3,0,3.18a6.08,6.08,0,0,1-5.51,0c-1.52-.88-1.52-2.3,0-3.18A6.08,6.08,0,0,1,486,491.17Z"/><path class="cls-1" d="M500.41,482.85c1.52.88,1.52,2.3,0,3.18a6.08,6.08,0,0,1-5.51,0c-1.52-.88-1.52-2.3,0-3.18A6.08,6.08,0,0,1,500.41,482.85Z"/><path class="cls-1" d="M436.67,317.78a6.08,6.08,0,0,1,5.51,0c1.53.88,1.53,2.3,0,3.18a6.11,6.11,0,0,1-5.51,0C435.15,320.08,435.15,318.66,436.67,317.78Z"/><path class="cls-1" d="M456.61,309.45c1.52.87,1.52,2.3,0,3.18a6.08,6.08,0,0,1-5.51,0c-1.52-.88-1.52-2.31,0-3.18A6.08,6.08,0,0,1,456.61,309.45Z"/><path class="cls-1" d="M471,301.13c1.52.87,1.52,2.3,0,3.18a6.08,6.08,0,0,1-5.51,0c-1.52-.88-1.52-2.31,0-3.18A6.08,6.08,0,0,1,471,301.13Z"/><path class="cls-1" d="M422.26,309.46a6.08,6.08,0,0,1,5.51,0c1.53.88,1.53,2.3,0,3.18a6.08,6.08,0,0,1-5.51,0C420.74,311.76,420.74,310.34,422.26,309.46Z"/><path class="cls-1" d="M442.2,301.13c1.52.87,1.52,2.3,0,3.18a6.08,6.08,0,0,1-5.51,0c-1.52-.88-1.52-2.31,0-3.18A6.08,6.08,0,0,1,442.2,301.13Z"/><path class="cls-1" d="M456.61,292.81c1.52.87,1.52,2.3,0,3.18a6.08,6.08,0,0,1-5.51,0c-1.52-.88-1.52-2.31,0-3.18A6.08,6.08,0,0,1,456.61,292.81Z"/><path class="cls-1" d="M471,284.49c1.52.87,1.52,2.3,0,3.18a6.08,6.08,0,0,1-5.51,0c-1.52-.88-1.52-2.31,0-3.18A6.08,6.08,0,0,1,471,284.49Z"/><path class="cls-1" d="M407.72,301.05a6.13,6.13,0,0,1,5.52,0c1.52.88,1.52,2.3,0,3.18a6.07,6.07,0,0,1-5.52,0C406.21,303.35,406.2,301.93,407.72,301.05Z"/><path class="cls-1" d="M427.66,292.72c1.53.88,1.53,2.3,0,3.18a6.08,6.08,0,0,1-5.51,0c-1.52-.88-1.52-2.3,0-3.18A6.08,6.08,0,0,1,427.66,292.72Z"/><path class="cls-1" d="M442.07,284.4c1.53.88,1.53,2.3,0,3.18a6.08,6.08,0,0,1-5.51,0c-1.52-.88-1.52-2.3,0-3.18A6.08,6.08,0,0,1,442.07,284.4Z"/><path class="cls-1" d="M456.49,276.08c1.52.88,1.52,2.3,0,3.18a6.1,6.1,0,0,1-5.52,0c-1.52-.88-1.52-2.3,0-3.18A6.1,6.1,0,0,1,456.49,276.08Z"/><path class="cls-1" d="M393.31,292.73a6.11,6.11,0,0,1,5.51,0c1.53.88,1.53,2.3,0,3.19a6.13,6.13,0,0,1-5.52,0C391.8,295,391.79,293.61,393.31,292.73Z"/><path class="cls-1" d="M413.25,284.4c1.53.88,1.53,2.3,0,3.18a6.08,6.08,0,0,1-5.51,0c-1.52-.88-1.52-2.3,0-3.18A6.08,6.08,0,0,1,413.25,284.4Z"/><path class="cls-1" d="M427.66,276.08c1.53.88,1.53,2.3,0,3.18a6.08,6.08,0,0,1-5.51,0c-1.52-.88-1.52-2.3,0-3.18A6.08,6.08,0,0,1,427.66,276.08Z"/><path class="cls-1" d="M442.07,267.76c1.53.88,1.53,2.3,0,3.18a6.08,6.08,0,0,1-5.51,0c-1.52-.88-1.52-2.3,0-3.18A6.08,6.08,0,0,1,442.07,267.76Z"/><path class="cls-2" d="M497.32,473.37c-20.94-12.11-53.76-12.11-74.7,0l-80.33,46.38c-16.58,9.57-44.59,9.56-61.17,0-6.78-3.91-10.68-8.92-10.68-13.74s3.9-9.82,10.68-13.74l92.68-53.52c11.27-6.5,17.47-15.55,17.47-25.48s-6.21-19-17.45-25.46l-2-1.19c-21-12.08-53.79-12.08-74.71,0L117.9,490.07c-16.58,9.57-44.58,9.56-61.16,0L24.24,471.3c-6.79-3.92-10.68-8.93-10.68-13.74s3.89-9.83,10.66-13.74L305.11,282.53c10.61,4.54,25.6,4.09,35.22-1.46,10.58-6.11,10.58-16,0-22.13s-27.75-6.11-38.33,0c-6.59,3.8-9.07,9.08-7.45,14L17.46,432.08C6.2,438.58,0,447.63,0,457.56s6.2,19,17.46,25.47L50,501.8c20.93,12.1,53.76,12.1,74.71,0L303.85,398.36c16.58-9.57,44.58-9.57,61.15,0l2,1.18c6.79,3.91,10.68,8.92,10.68,13.73S373.82,423.09,367,427l-92.68,53.51c-11.26,6.5-17.46,15.55-17.46,25.48s6.2,19,17.46,25.48c20.94,12.1,53.76,12.11,74.71,0l80.33-46.38c16.58-9.56,44.59-9.57,61.06-.05l36.33,22.84,6.44-18Z"/><path class="cls-3" d="M498.9,462.08C478,450,445.13,450,424.19,462.08l-80.32,46.38c-16.58,9.57-44.59,9.56-61.17,0-6.78-3.92-10.68-8.92-10.68-13.74s3.9-9.82,10.68-13.74l92.68-53.52c11.27-6.5,17.47-15.55,17.47-25.48s-6.21-19-17.45-25.46l-2-1.19c-21-12.08-53.79-12.08-74.72,0L119.48,478.78c-16.58,9.57-44.58,9.56-61.16,0L25.81,460c-6.78-3.92-10.67-8.93-10.67-13.74S19,436.44,25.8,432.53l283.81-163c10.05,2.75,22.4,1.78,30.72-3,10.58-6.12,10.58-16,0-22.13s-27.75-6.11-38.33,0c-8,4.64-9.94,11.46-5.76,17.16L19,420.79c-11.26,6.5-17.46,15.54-17.46,25.48s6.2,19,17.46,25.47l32.51,18.77c20.93,12.1,53.76,12.1,74.7,0L305.43,387.07c16.58-9.57,44.58-9.57,61.15,0l2,1.18c6.78,3.91,10.68,8.92,10.68,13.73s-3.9,9.83-10.68,13.75l-92.68,53.51c-11.26,6.5-17.46,15.55-17.46,25.48s6.2,19,17.46,25.48c20.93,12.1,53.76,12.11,74.71,0L431,473.81c16.59-9.56,44.6-9.57,61.06-.05l36.34,22.84,15-6.78Z"/><path class="cls-4" d="M587.15,508.9c-7.13-4.12-18.69-4.12-25.82,0s-7.13,10.79,0,14.91,18.69,4.11,25.82,0S594.28,513,587.15,508.9Z"/><path class="cls-2" d="M615.26,489.85c-23-13.28-59-13.29-82,0-11.88,6.86-18.42,16.27-18.42,26.5s6.54,19.65,18.42,26.5c11.5,6.65,26.26,10,41,10s29.52-3.32,41-10c11.88-6.85,18.42-16.27,18.42-26.5S627.14,496.71,615.26,489.85Zm-4.88,44.56c-19.92,11.49-52.34,11.49-72.28,0-8.73-5-13.54-11.46-13.53-18.06s4.8-13,13.53-18.05c10-5.75,23-8.63,36.14-8.63s26.17,2.88,36.14,8.63c8.73,5.05,13.54,11.45,13.54,18.05S619.11,529.36,610.38,534.41Z"/><path class="cls-3" d="M587.15,499.12c-7.13-4.12-18.69-4.12-25.82,0s-7.13,10.79,0,14.9,18.69,4.12,25.82,0S594.28,503.23,587.15,499.12Z"/><path class="cls-3" d="M615.26,480.07c-23-13.28-59-13.29-82,0-11.88,6.86-18.42,16.27-18.42,26.5s6.54,19.65,18.42,26.5c11.5,6.65,26.26,10,41,10s29.52-3.31,41-10c11.88-6.85,18.42-16.27,18.42-26.5S627.14,486.93,615.26,480.07Zm-4.88,44.55c-19.93,11.5-52.35,11.5-72.28,0-8.73-5-13.54-11.46-13.54-18.05s4.81-13,13.54-18.05c10-5.75,23-8.63,36.14-8.63s26.17,2.88,36.14,8.63c8.73,5,13.53,11.45,13.53,18.05S619.11,519.58,610.38,524.62Z"/><path class="cls-5" d="M566.56,209C528,226.7,493.5,280.46,490.22,330.14c-1.31,19.88,2.62,35.95,10.42,46.91l55.48,105.23,26.61,13c2.4-5.43,41.22-190.25,43-195.81h0c4.16-13,32.55-21.15,32.77-33.8C659.28,219.38,604.13,191.64,566.56,209Zm-4.87,118.58c-15.17,7.57-26.8-1.72-25.85-20.6.94-18.63,13.8-39.34,28.6-46.41s26,1.91,25.39,20.05C589.25,298.94,576.71,320,561.69,327.53Z"/><path class="cls-3" d="M571.36,218.43c-38.53,17.75-73.06,71.5-76.34,121.18a94.21,94.21,0,0,0,1.61,25.54c44,26.43,76.88,24.89,111.22,48.31,10.68-49.67,21.74-101.62,22.68-104.53,4.16-13,25.44-22.72,25.66-35.37C657,227.28,608.93,201.12,571.36,218.43ZM566.49,337c-15.17,7.57-26.8-1.72-25.85-20.6.94-18.63,13.8-39.33,28.6-46.4s26,1.91,25.39,20C594.05,308.41,581.51,329.5,566.49,337Z"/><path class="cls-6" d="M584.18,499.23,554,484.49l-.45-.85L498.05,378.41C489.77,366.82,486,350,487.3,330c3.29-49.87,38.29-105.34,78-123.66h0c20-9.22,46.15-6.52,66.65,6.85,19.06,12.43,29.79,31.59,29.44,52.57-.14,8.17-8.91,14.17-17.39,20-6.81,4.67-13.86,9.49-15.53,14.69-.69,2.2-7.93,35.94-15.6,71.65-15.2,70.82-26.07,121.21-27.5,124.44Zm-25.91-19.17,22.6,11c3.58-14.39,16.57-74.92,26.31-120.32,9.29-43.28,15-69.92,15.76-72.21,2.27-7.11,10.17-12.52,17.8-17.73,7.25-5,14.74-10.09,14.83-15.23.32-18.92-9.44-36.26-26.78-47.56-18.86-12.3-42.79-14.82-61-6.44h0c-38,17.51-71.48,70.76-74.64,118.72-1.23,18.64,2.18,34.21,9.88,45Zm-6.65-147a17,17,0,0,1-9.45-2.74c-6.42-4.2-9.79-12.79-9.25-23.57,1-19.8,14.29-41.29,30.26-48.91,7.52-3.58,14.72-3.56,20.27.07,6.25,4.08,9.64,12.35,9.31,22.71-.62,19.39-14,41.59-29.76,49.49h0A25.76,25.76,0,0,1,551.62,333.1Zm22.35-72a19.4,19.4,0,0,0-8.27,2.08c-14,6.67-26.05,26.37-26.93,43.92-.44,8.65,2,15.35,6.61,18.38,3.88,2.54,9.21,2.33,15-.55,14.07-7,26-27,26.53-44.44.26-8.26-2.17-14.68-6.66-17.62A11.33,11.33,0,0,0,574,261.08Z"/><path class="cls-6" d="M659.11,273.61c.78-46.28-28.38-69-65.94-51.67-38.53,17.75-73.07,71.51-76.34,121.19-1.31,19.88,2.62,35.95,10.41,46.91l55.49,105.23L646.05,329a167.89,167.89,0,0,0,6.28-16.51h0A135.58,135.58,0,0,0,659.11,273.61Z"/><path class="cls-4" d="M584.18,499.23l-3.57-1.71-56-106.11c-8.28-11.59-12.07-28.46-10.75-48.48,3.29-49.87,38.29-105.34,78-123.65,17.8-8.19,34.71-8.06,47.63.37,14.91,9.73,22.89,28.91,22.47,54h0a138,138,0,0,1-6.92,39.7,171.08,171.08,0,0,1-6.39,16.79Zm33-280.13a54.88,54.88,0,0,0-22.8,5.5c-38,17.5-71.48,70.76-74.64,118.72-1.22,18.64,2.19,34.21,9.88,45l52.67,99.83,61-160.26a167.76,167.76,0,0,0,6.24-16.36,133,133,0,0,0,6.64-38c.38-22.69-6.84-40.54-19.82-49A34.59,34.59,0,0,0,617.19,219.1Z"/><path class="cls-3" d="M584.94,376.68,556.7,357.47c-4-2.7-3.67-10.61.64-17.67h0c4.32-7.06,11-10.61,15-7.91l14.24,9.69,26.28-53.39c3.7-7.37,10.38-12,14.92-10.35h0c4.53,1.65,5.21,9,1.51,16.35L589.9,373.65C588.63,376.17,586.29,377.6,584.94,376.68Z"/><polygon class="cls-3" points="447.98 91.57 295.5 3.53 143.01 91.57 143.01 91.57 143.01 267.64 295.5 355.68 295.5 180.05 447.98 91.57"/><polygon class="cls-5" points="143.02 267.07 295.5 355.11 295.5 179.49 143.02 91 143.02 91 143.02 267.07"/><path class="cls-6" d="M451,89.81,295.5,0,140.42,89.54l-.47.27h0l0,3.51h0V269.4l152.49,88h0l3.06,1.76,3.06-1.76h0l151-87.15,1.53-.89V93.33h0ZM295.5,7.06l71.66,41.37L220.78,132.94,149.12,91.57Zm-3.06,343.33L146.07,265.88v-169l146.37,84.51Zm65.12-210.15L295.5,176.08,223.83,134.7,370.21,50.19l71.66,41.38Z"/><path class="cls-6" d="M234.93,179.81l-28.29-16.33c-3.12-1.8-6.3-2-8.91-.48-2.94,1.71-4.64,5.31-4.64,9.9,0,7.7,4.61,16.38,10.5,19.78L231.87,209a10.29,10.29,0,0,0,5.1,1.49,7.63,7.63,0,0,0,3.83-1c2.94-1.7,4.62-5.3,4.62-9.9C245.42,191.89,240.82,183.21,234.93,179.81Zm2.81,24.38c-.86.48-2.13-.09-2.81-.48l-28.29-16.33c-4-2.33-7.43-8.95-7.43-14.48,0-2.73.84-4.18,1.57-4.6s2.14.08,2.81.48l1.95,1.12c.71,6.63,4.63,13.55,9.58,16.41l24.14,13.93C239.13,202.51,238.43,203.79,237.74,204.19Z"/></svg>